; Drill file
; Format: 2.4 (00.0000)
M48
INCH
T01C0.0157
T02C0.0236
T03C0.0315
T04C0.0354
T05C0.0472
T06C0.1181
%
G05
G90
T01
X004810Y024160
X007350Y026100
X008520Y026250
X008430Y026650
X008810Y026530
X007800Y027320
X008020Y028570
X009080Y028450
X010190Y028140
X010780Y028340
X011090Y027480
X011890Y027330
X012280Y027330
X012670Y027330
X013060Y027330
X016580Y025590
X017280Y025390
X018330Y025720
X019030Y025950
X019060Y026670
X019440Y027770
X018890Y028330
X018340Y027840
X017200Y028360
X016940Y028670
X017440Y029060
X017170Y029360
X018270Y029500
X019410Y030140
X020520Y029860
X020470Y028800
X020270Y028280
X021140Y027640
X021980Y027770
X023060Y027840
X023830Y028110
X023840Y029030
X024140Y029990
X022720Y029700
X022270Y029090
X021980Y026660
X023020Y026340
X024020Y025740
X024100Y026970
X025720Y025920
X026390Y025920
X027110Y026270
X028340Y025740
X028820Y024640
X027820Y024640
X026820Y024640
X025820Y024640
X024820Y024640
X023930Y023660
X023010Y023770
X021660Y025450
X021000Y025730
X019530Y025380
X019220Y025090
X018670Y023200
X015620Y022980
X014900Y022980
X014180Y022980
X013460Y022980
X012740Y022980
X012020Y022980
X011300Y022980
X010580Y022980
X005620Y028050
X003050Y028440
X002950Y032060
X005410Y032540
X006130Y032540
X006850Y032540
X007570Y032540
X008290Y032540
X009010Y032540
X007090Y031050
X017110Y027330
X018270Y032530
X021720Y032590
X021720Y031640
X023030Y031970
X023300Y032330
X023560Y032630
X024310Y032450
X025080Y033610
X025590Y034770
X025000Y035050
X024690Y036250
X025310Y036250
X026690Y034170
X028920Y032670
X029850Y030560
X027430Y028400
X026690Y029440
X026190Y029030
X023910Y038390
T02
X006590Y024530
X007590Y024530
X008590Y024530
X009590Y024530
X010590Y024530
X011590Y024530
X012590Y024530
X013590Y024530
X014590Y024530
X015590Y024530
X016590Y024530
X017590Y024530
X016260Y026120
X015260Y026120
X014260Y026120
X013260Y026120
X012260Y026120
X011260Y026120
X010260Y026120
X009260Y026120
X009260Y029120
X010260Y029120
X011260Y029120
X012260Y029120
X013260Y029120
X014260Y029120
X015260Y029120
X016260Y029120
X016590Y030530
X015590Y030530
X014590Y030530
X013590Y030530
X012590Y030530
X011590Y030530
X010590Y030530
X009590Y030530
X008590Y030530
X007590Y030530
X006590Y030530
X017590Y030530
T03
X002630Y023140
X003620Y023140
X004620Y023140
X005620Y023140
X006670Y023140
X007670Y023140
X008670Y023140
X009670Y023140
X024820Y023700
X025820Y023700
X026820Y023700
X027820Y023700
X028820Y023700
X029850Y025340
X029850Y026340
X029850Y027340
X029850Y028340
X029850Y029340
X025560Y036860
X023840Y036860
T04
X019840Y030750
X021840Y030750
T05
X003920Y026440
X003920Y027440
X003920Y029440
X003920Y030440
X001920Y028440
T06
X001220Y023280
X001220Y031890
X030130Y031910
X030130Y023280
M30
