%FSLAX34Y34*%
%MOMM*%
%LNSILK_TOP*%
G71*
G01*
%ADD10C, 1.90*%
%ADD11R, 1.50X1.60*%
%ADD12C, 1.20*%
%ADD13C, 0.80*%
%ADD14C, 0.60*%
%ADD15R, 1.60X1.50*%
%ADD16C, 0.50*%
%ADD17C, 2.00*%
%ADD18C, 2.50*%
%ADD19C, 2.50*%
%ADD20C, 4.20*%
%ADD21R, 1.80X1.60*%
%ADD22R, 1.80X1.80*%
%ADD23R, 1.20X1.40*%
%ADD24R, 1.40X1.40*%
%ADD25R, 1.40X1.20*%
%ADD26C, 2.30*%
%ADD27R, 2.40X2.00*%
%ADD28C, 0.70*%
%ADD29R, 2.20X2.40*%
%ADD30C, 2.30*%
%ADD31R, 3.90X1.90*%
%ADD32C, 0.37*%
%ADD33C, 0.27*%
%ADD34C, 0.53*%
%ADD35C, 0.63*%
%ADD36C, 0.47*%
%ADD37C, 0.54*%
%ADD38C, 1.50*%
%ADD39R, 1.10X1.20*%
%ADD40C, 0.80*%
%ADD41C, 0.40*%
%ADD42C, 0.20*%
%ADD43R, 1.20X1.10*%
%ADD44C, 0.10*%
%ADD45C, 1.60*%
%ADD46C, 1.90*%
%ADD47C, 1.90*%
%ADD48C, 4.00*%
%ADD49R, 0.80X1.00*%
%ADD50R, 1.00X1.00*%
%ADD51R, 1.00X0.80*%
%ADD52R, 2.00X1.60*%
%ADD53C, 0.30*%
%ADD54R, 1.80X2.00*%
%ADD55C, 1.90*%
%ADD56R, 3.50X1.50*%
%LPD*%
G36*
X0Y1000000D02*
X795000Y1000000D01*
X795000Y556000D01*
X0Y556000D01*
X0Y1000000D01*
G37*
%LPC*%
X235197Y663507D02*
G54D10*
D03*
X260597Y663507D02*
G54D10*
D03*
X235197Y739707D02*
G54D10*
D03*
X285997Y663508D02*
G54D10*
D03*
X260597Y739707D02*
G54D10*
D03*
X285997Y739707D02*
G54D10*
D03*
X311397Y739707D02*
G54D10*
D03*
X311397Y663507D02*
G54D10*
D03*
X336797Y663507D02*
G54D10*
D03*
X336797Y739707D02*
G54D10*
D03*
X362197Y663507D02*
G54D10*
D03*
X362197Y739707D02*
G54D10*
D03*
X387597Y663507D02*
G54D10*
D03*
X387597Y739707D02*
G54D10*
D03*
X412997Y663507D02*
G54D10*
D03*
X412997Y739707D02*
G54D10*
D03*
X412991Y663501D02*
G54D10*
D03*
X670256Y658416D02*
G54D11*
D03*
X653256Y658416D02*
G54D11*
D03*
X519906Y731441D02*
G54D12*
D03*
X258762Y714772D02*
G54D12*
D03*
X273844Y719931D02*
G54D12*
D03*
X436959Y720328D02*
G54D12*
D03*
X484188Y677466D02*
G54D12*
D03*
G54D13*
X273844Y719931D02*
X263922Y719931D01*
X258762Y714772D01*
G54D13*
X436959Y720328D02*
X441325Y720328D01*
X484188Y677466D01*
X521097Y758428D02*
G54D12*
D03*
X605631Y737394D02*
G54D12*
D03*
X665162Y737394D02*
G54D12*
D03*
G54D14*
X605631Y737394D02*
X665162Y737394D01*
X577056Y754459D02*
G54D12*
D03*
G54D14*
X521097Y758428D02*
X573088Y758428D01*
X577056Y754459D01*
X605234Y713978D02*
G54D12*
D03*
X430212Y728266D02*
G54D12*
D03*
X465931Y707231D02*
G54D12*
D03*
G54D14*
X430212Y728266D02*
X440531Y728266D01*
X461169Y707628D01*
X465534Y707628D01*
X465931Y707231D01*
X585788Y707231D02*
G54D12*
D03*
X558403Y705247D02*
G54D12*
D03*
G54D14*
X585788Y707231D02*
X666222Y707231D01*
X719762Y653692D01*
X719762Y653692D02*
G54D12*
D03*
X610225Y653785D02*
G54D12*
D03*
X501188Y677466D02*
G54D11*
D03*
X484188Y677466D02*
G54D11*
D03*
X612088Y685113D02*
G54D12*
D03*
X629088Y685113D02*
G54D11*
D03*
X612088Y685113D02*
G54D11*
D03*
G54D14*
X558403Y705247D02*
X558763Y705247D01*
X610225Y653785D01*
X258762Y697772D02*
G54D15*
D03*
X258762Y714772D02*
G54D15*
D03*
X629084Y685119D02*
G54D11*
D03*
X501184Y677469D02*
G54D11*
D03*
X258764Y697769D02*
G54D15*
D03*
X463947Y749300D02*
G54D12*
D03*
X479822Y719534D02*
G54D12*
D03*
G54D14*
X519906Y731441D02*
X492125Y731441D01*
X467122Y756444D01*
X395288Y756444D01*
X387747Y748903D01*
X387747Y739858D01*
X387597Y739707D01*
X732056Y625741D02*
G54D12*
D03*
X706656Y625741D02*
G54D12*
D03*
X681256Y625741D02*
G54D12*
D03*
X655856Y625741D02*
G54D12*
D03*
X630456Y625741D02*
G54D12*
D03*
X533400Y653653D02*
G54D12*
D03*
G54D14*
X732056Y626535D02*
X732056Y627638D01*
X725091Y634603D01*
X571897Y634603D01*
X552847Y653653D01*
X533400Y653653D01*
X550069Y646509D02*
G54D12*
D03*
G54D14*
X550069Y646509D02*
X554434Y646509D01*
X570706Y630238D01*
X614759Y630238D01*
X626269Y618728D01*
X648843Y618728D01*
X655856Y625741D01*
X670256Y658416D02*
G54D12*
D03*
X653256Y658416D02*
G54D12*
D03*
X514747Y718344D02*
G54D12*
D03*
X465534Y653256D02*
G54D12*
D03*
X281781Y698103D02*
G54D12*
D03*
G54D14*
X281781Y698103D02*
X281781Y724694D01*
X267097Y739378D01*
X260926Y739378D01*
X260597Y739707D01*
X434580Y694130D02*
G54D12*
D03*
G54D16*
G75*
G01X17066Y839391D02*
G03X1588Y823913I0J-15478D01*
G01*
G54D16*
X17066Y839391D02*
X553894Y839371D01*
G54D16*
X1588Y823913D02*
X1444Y577433D01*
G54D16*
G75*
G01X1444Y577433D02*
G03X16922Y561955I15478J0D01*
G01*
G54D16*
G75*
G01X794544Y823913D02*
G03X779066Y839391I-15478J0D01*
G01*
G54D16*
X794544Y823913D02*
X794689Y577433D01*
G54D16*
G75*
G01X779211Y561955D02*
G03X794689Y577433I0J15478D01*
G01*
G54D16*
X16922Y561955D02*
X779211Y561955D01*
X677805Y747754D02*
G54D12*
D03*
X492919Y765572D02*
G54D12*
D03*
X613114Y761645D02*
G54D12*
D03*
G54D14*
X677805Y747754D02*
X627005Y747754D01*
X613114Y761645D01*
G54D14*
X492919Y765572D02*
X609187Y765572D01*
X613114Y761645D01*
X446825Y622969D02*
G54D17*
D03*
X421425Y622969D02*
G54D17*
D03*
X396025Y622969D02*
G54D17*
D03*
X370625Y622969D02*
G54D17*
D03*
X345225Y622969D02*
G54D17*
D03*
X319825Y622969D02*
G54D17*
D03*
X294425Y622969D02*
G54D17*
D03*
X269025Y622969D02*
G54D17*
D03*
X243625Y622969D02*
G54D17*
D03*
X218225Y622969D02*
G54D17*
D03*
X192825Y622969D02*
G54D17*
D03*
X167425Y622969D02*
G54D17*
D03*
X167425Y775369D02*
G54D17*
D03*
X192825Y775369D02*
G54D17*
D03*
X218225Y775369D02*
G54D17*
D03*
X243625Y775369D02*
G54D17*
D03*
X269025Y775369D02*
G54D17*
D03*
X294425Y775369D02*
G54D17*
D03*
X319825Y775369D02*
G54D17*
D03*
X446825Y775369D02*
G54D17*
D03*
X421425Y775369D02*
G54D17*
D03*
X396025Y775369D02*
G54D17*
D03*
X370625Y775369D02*
G54D17*
D03*
X345225Y775369D02*
G54D17*
D03*
G54D13*
X421425Y775369D02*
X396025Y775369D01*
X167425Y622969D02*
G54D17*
D03*
X446821Y622971D02*
G54D17*
D03*
X167420Y622968D02*
G54D17*
D03*
X319820Y775369D02*
G54D17*
D03*
X319820Y775369D02*
G54D17*
D03*
X281781Y698103D02*
G54D12*
D03*
X302022Y694134D02*
G54D12*
D03*
X311944Y694134D02*
G54D12*
D03*
X321866Y694134D02*
G54D12*
D03*
X331788Y694134D02*
G54D12*
D03*
G54D14*
X311397Y739707D02*
X311397Y703509D01*
X302022Y694134D01*
G54D14*
X336797Y739707D02*
X336797Y718987D01*
X311944Y694134D01*
G54D14*
X362197Y739707D02*
X362197Y734465D01*
X321866Y694134D01*
G54D14*
X281781Y698103D02*
X281781Y724694D01*
X267097Y739378D01*
X260926Y739378D01*
X260597Y739707D01*
X223838Y673894D02*
G54D12*
D03*
G54D14*
X260597Y663507D02*
X260597Y664916D01*
X248841Y676672D01*
X226616Y676672D01*
X223838Y673894D01*
X438944Y644922D02*
G54D12*
D03*
G54D14*
X465534Y653256D02*
X459978Y653256D01*
X426244Y686991D01*
X298847Y686991D01*
X294878Y690959D01*
X294878Y718344D01*
X300831Y724297D01*
X300831Y768962D01*
X294425Y775369D01*
G54D14*
X438944Y644922D02*
X438944Y668734D01*
X424656Y683022D01*
X297259Y683022D01*
X290512Y689769D01*
X290512Y719931D01*
X296862Y726281D01*
X296862Y747531D01*
X269025Y775369D01*
X496094Y644525D02*
G54D12*
D03*
X488156Y637381D02*
G54D12*
D03*
G54D14*
X488156Y637381D02*
X487362Y637381D01*
X483791Y640953D01*
X450850Y640953D01*
X443706Y633809D01*
X434578Y633809D01*
X428228Y640159D01*
X428228Y649684D01*
X431006Y652462D01*
X431006Y665559D01*
X421481Y675084D01*
X294084Y675084D01*
X288528Y680641D01*
X240903Y680641D01*
X217884Y703659D01*
X217884Y775029D01*
X218225Y775369D01*
X493712Y705247D02*
G54D12*
D03*
X436166Y745728D02*
G54D12*
D03*
G54D14*
X493712Y705247D02*
X483791Y705247D01*
X471884Y717153D01*
X471884Y731044D01*
X457200Y745728D01*
X436166Y745728D01*
X421084Y650081D02*
G54D12*
D03*
G54D14*
X192825Y622969D02*
X192825Y628990D01*
X198041Y634206D01*
X405209Y634206D01*
X421084Y650081D01*
X216297Y666750D02*
G54D12*
D03*
G54D14*
X216297Y666750D02*
X217091Y666750D01*
X230981Y652859D01*
X275349Y652859D01*
X285997Y663508D01*
X186696Y662946D02*
G54D12*
D03*
G54D14*
X387597Y663507D02*
X377361Y663507D01*
X362744Y648891D01*
X218281Y648891D01*
X204391Y662781D01*
X186862Y662781D01*
X186696Y662946D01*
G54D14*
X605234Y713978D02*
X550466Y713978D01*
X545703Y709216D01*
X545703Y702072D01*
X99682Y671508D02*
G54D18*
D03*
X99693Y696913D02*
G54D18*
D03*
X99693Y747713D02*
G54D19*
D03*
X99688Y773111D02*
G54D18*
D03*
X99693Y747716D02*
G54D18*
D03*
X48883Y722321D02*
G54D18*
D03*
X180181Y788591D02*
G54D12*
D03*
X203763Y725653D02*
G54D12*
D03*
G54D14*
X180181Y788591D02*
X180181Y749234D01*
X203763Y725653D01*
X30956Y810022D02*
G54D20*
D03*
X415617Y695961D02*
G54D21*
D03*
X415624Y718179D02*
G54D22*
D03*
X388233Y695961D02*
G54D21*
D03*
X388229Y718194D02*
G54D22*
D03*
X442912Y738188D02*
G54D12*
D03*
X369704Y709929D02*
G54D23*
D03*
X368905Y698817D02*
G54D24*
D03*
X357792Y698023D02*
G54D25*
D03*
G54D14*
X387597Y739707D02*
X376964Y739707D01*
X366712Y729456D01*
X362744Y729456D01*
X331788Y698500D01*
X331788Y694134D01*
G54D14*
X357792Y698023D02*
X357792Y694720D01*
X361553Y690959D01*
X383231Y690959D01*
X388233Y695961D01*
G54D14*
X388229Y718194D02*
X364578Y718194D01*
X361553Y715169D01*
X361553Y706168D01*
X368905Y698817D01*
G54D14*
X442912Y738188D02*
X431800Y738188D01*
X419100Y750888D01*
X407988Y750888D01*
X402431Y745331D01*
X402431Y736203D01*
X394494Y728266D01*
X371475Y728266D01*
X368697Y725488D01*
X364728Y725488D01*
X354409Y715169D01*
X354409Y701406D01*
X357792Y698023D01*
X536972Y702072D02*
G54D23*
D03*
X545703Y702072D02*
G54D23*
D03*
X536972Y702072D02*
G54D12*
D03*
X630454Y601929D02*
G54D26*
D03*
X655856Y601928D02*
G54D26*
D03*
X681254Y601929D02*
G54D26*
D03*
X706656Y601928D02*
G54D26*
D03*
X732056Y601928D02*
G54D26*
D03*
X558403Y677069D02*
G54D12*
D03*
X584597Y669131D02*
G54D12*
D03*
G36*
X543675Y667530D02*
X533068Y656924D01*
X521755Y668238D01*
X532362Y678844D01*
X543675Y667530D01*
G37*
G36*
X558077Y681932D02*
X547470Y671325D01*
X536157Y682639D01*
X546764Y693246D01*
X558077Y681932D01*
G37*
G54D14*
X558403Y677069D02*
X552334Y677069D01*
X547117Y682286D01*
X554369Y630634D02*
G54D11*
D03*
X537369Y630634D02*
G54D11*
D03*
X554365Y630638D02*
G54D11*
D03*
G54D14*
X537369Y630634D02*
X529431Y630634D01*
X524272Y635794D01*
X524272Y659441D01*
X532715Y667884D01*
G36*
X565913Y675493D02*
X576521Y686098D01*
X587834Y674783D01*
X577225Y664178D01*
X565913Y675493D01*
G37*
G36*
X577934Y687509D02*
X588539Y698117D01*
X599854Y686805D01*
X589249Y676197D01*
X577934Y687509D01*
G37*
G54D14*
X584597Y669131D02*
X582876Y669131D01*
X576873Y675133D01*
X647807Y685113D02*
G54D11*
D03*
X664807Y685113D02*
G54D11*
D03*
X647811Y685119D02*
G54D11*
D03*
G54D14*
X588894Y687154D02*
X588894Y687319D01*
X604838Y703262D01*
X658019Y703262D01*
X664766Y696516D01*
X664766Y685154D01*
X664807Y685113D01*
X268852Y583635D02*
G54D15*
D03*
X268852Y600635D02*
G54D15*
D03*
X268850Y600638D02*
G54D15*
D03*
X287108Y583635D02*
G54D15*
D03*
X287108Y600635D02*
G54D15*
D03*
X287106Y600638D02*
G54D15*
D03*
X305364Y583635D02*
G54D15*
D03*
X305364Y600635D02*
G54D15*
D03*
X305362Y600638D02*
G54D15*
D03*
X323620Y583635D02*
G54D15*
D03*
X323620Y600635D02*
G54D15*
D03*
X323619Y600638D02*
G54D15*
D03*
X341877Y583635D02*
G54D15*
D03*
X341877Y600635D02*
G54D15*
D03*
X341875Y600638D02*
G54D15*
D03*
X360133Y583635D02*
G54D15*
D03*
X360133Y600635D02*
G54D15*
D03*
X360131Y600638D02*
G54D15*
D03*
X378389Y583635D02*
G54D15*
D03*
X378389Y600635D02*
G54D15*
D03*
X378387Y600638D02*
G54D15*
D03*
X396645Y583635D02*
G54D15*
D03*
X396645Y600635D02*
G54D15*
D03*
X396644Y600638D02*
G54D15*
D03*
X396645Y583635D02*
G54D12*
D03*
X378389Y583635D02*
G54D12*
D03*
X360133Y583635D02*
G54D12*
D03*
X341877Y583635D02*
G54D12*
D03*
X323620Y583635D02*
G54D12*
D03*
X305364Y583635D02*
G54D12*
D03*
X287108Y583635D02*
G54D12*
D03*
X268852Y583635D02*
G54D12*
D03*
X607781Y601034D02*
G54D12*
D03*
G54D14*
X607781Y601034D02*
X607781Y599116D01*
X619522Y587375D01*
X692102Y587375D01*
X706656Y601928D01*
X584477Y603744D02*
G54D12*
D03*
X155742Y809457D02*
G54D15*
D03*
X155742Y826457D02*
G54D15*
D03*
X173998Y809457D02*
G54D15*
D03*
X173998Y826457D02*
G54D15*
D03*
X192255Y809457D02*
G54D15*
D03*
X192255Y826457D02*
G54D15*
D03*
X210511Y809457D02*
G54D15*
D03*
X210511Y826457D02*
G54D15*
D03*
X228767Y809457D02*
G54D15*
D03*
X228767Y826457D02*
G54D15*
D03*
G54D14*
X294425Y775369D02*
X293812Y775369D01*
X259556Y809625D01*
X228935Y809625D01*
X228767Y809457D01*
G54D14*
X192825Y775369D02*
X192825Y791822D01*
X187722Y796925D01*
X168274Y796925D01*
X155742Y809457D01*
G54D14*
X218225Y775369D02*
X218225Y777535D01*
X194866Y800894D01*
X182562Y800894D01*
X173998Y809457D01*
G54D14*
X243625Y775369D02*
X238647Y775369D01*
X213122Y800894D01*
X200818Y800894D01*
X192255Y809457D01*
G54D14*
X269025Y775369D02*
X262459Y775369D01*
X236934Y800894D01*
X219074Y800894D01*
X210511Y809457D01*
X137486Y809457D02*
G54D15*
D03*
X137486Y826457D02*
G54D15*
D03*
X214081Y676837D02*
G54D12*
D03*
G54D14*
X214081Y676837D02*
X214081Y704288D01*
X137716Y780653D01*
X137716Y809228D01*
X137486Y809457D01*
X142871Y587769D02*
G54D26*
D03*
X66675Y587772D02*
G54D26*
D03*
X92075Y587772D02*
G54D26*
D03*
X117471Y587769D02*
G54D26*
D03*
X30956Y591344D02*
G54D20*
D03*
X245662Y587769D02*
G54D26*
D03*
X169466Y587772D02*
G54D26*
D03*
X194866Y587772D02*
G54D26*
D03*
X220262Y587769D02*
G54D26*
D03*
X765175Y591344D02*
G54D20*
D03*
X198206Y693903D02*
G54D12*
D03*
X142643Y712556D02*
G54D12*
D03*
G54D14*
X198206Y693903D02*
X161296Y693903D01*
X142643Y712556D01*
X765175Y810419D02*
G54D20*
D03*
X758100Y643725D02*
G54D26*
D03*
X758107Y669130D02*
G54D26*
D03*
X758107Y694530D02*
G54D26*
D03*
X758107Y719930D02*
G54D26*
D03*
X758103Y745329D02*
G54D26*
D03*
X758104Y719929D02*
G54D26*
D03*
G54D13*
X765246Y745329D02*
X720657Y745329D01*
X696681Y721354D01*
G54D14*
X463947Y749300D02*
X468709Y749300D01*
X575469Y642541D01*
X723503Y642541D01*
X733425Y652462D01*
X733425Y684609D01*
X743744Y694928D01*
X764853Y694928D01*
X765251Y694530D01*
G54D14*
X479822Y719534D02*
X492919Y719534D01*
X573881Y638572D01*
X725091Y638572D01*
X737791Y651272D01*
X737791Y663575D01*
X743347Y669131D01*
X765251Y669130D01*
X696681Y721354D02*
G54D12*
D03*
X31188Y751516D02*
G54D11*
D03*
X48188Y751516D02*
G54D11*
D03*
X31185Y751514D02*
G54D11*
D03*
X31188Y772153D02*
G54D11*
D03*
X48188Y772153D02*
G54D11*
D03*
X31185Y772152D02*
G54D11*
D03*
G54D14*
X48883Y722321D02*
X48883Y750821D01*
X48188Y751516D01*
G54D14*
X99688Y773111D02*
X49146Y773111D01*
X48188Y772153D01*
G54D14*
X496094Y644525D02*
X448866Y644525D01*
X442119Y637778D01*
X436166Y637778D01*
X432197Y641747D01*
X432197Y648097D01*
X434975Y650875D01*
X434975Y667147D01*
X423069Y679053D01*
X295672Y679053D01*
X290116Y684609D01*
X242491Y684609D01*
X221853Y705247D01*
X221853Y753597D01*
X243625Y775369D01*
X230584Y722709D02*
G54D12*
D03*
X627062Y920750D02*
G54D12*
D03*
X635000Y890191D02*
G54D12*
D03*
X584994Y812006D02*
G54D12*
D03*
X591741Y821134D02*
G54D12*
D03*
G54D14*
X627062Y920750D02*
X627062Y882253D01*
X584994Y840184D01*
X584994Y812006D01*
G54D14*
X591741Y821134D02*
X591741Y840978D01*
X635000Y884238D01*
X635000Y890191D01*
X598488Y828675D02*
G54D12*
D03*
G36*
X632690Y852189D02*
X622083Y841582D01*
X610770Y852896D01*
X621377Y863503D01*
X632690Y852189D01*
G37*
G36*
X620669Y840168D02*
X610063Y829562D01*
X598749Y840875D01*
X609356Y851482D01*
X620669Y840168D01*
G37*
G54D14*
X598488Y828675D02*
X598488Y829302D01*
X609709Y840524D01*
G36*
X632686Y852195D02*
X622079Y841588D01*
X610766Y852902D01*
X621372Y863508D01*
X632686Y852195D01*
G37*
X617538Y824309D02*
G54D12*
D03*
X659905Y836490D02*
G54D11*
D03*
X642905Y836490D02*
G54D11*
D03*
X659904Y836495D02*
G54D11*
D03*
X659905Y816249D02*
G54D11*
D03*
X642905Y816249D02*
G54D11*
D03*
X659904Y816255D02*
G54D11*
D03*
G54D14*
X642905Y816249D02*
X625598Y816249D01*
X617538Y824309D01*
G54D14*
X642905Y836490D02*
X642905Y816249D01*
X642938Y920750D02*
G54D12*
D03*
X650081Y883047D02*
G54D12*
D03*
X656143Y886907D02*
G54D27*
D03*
X656143Y914907D02*
G54D27*
D03*
G54D14*
X642938Y920750D02*
X650300Y920750D01*
X656143Y914907D01*
G54D16*
X656034Y894159D02*
X656143Y914907D01*
X629180Y955718D02*
G54D15*
D03*
X629180Y938718D02*
G54D15*
D03*
X629175Y955718D02*
G54D15*
D03*
G54D14*
X642938Y920750D02*
X642938Y924961D01*
X629180Y938718D01*
G54D16*
G75*
G01X684466Y854849D02*
G03X699944Y839371I15478J0D01*
G01*
G54D16*
G75*
G01X553894Y839371D02*
G03X569372Y854849I0J15478D01*
G01*
X677805Y868007D02*
G54D12*
D03*
X636927Y853720D02*
G54D12*
D03*
G54D14*
X733425Y684609D02*
X716756Y684609D01*
X683816Y717550D01*
X683816Y727869D01*
X700881Y744934D01*
X700881Y815975D01*
X663178Y853678D01*
X636968Y853678D01*
X636927Y853720D01*
G54D14*
X758107Y669130D02*
X758107Y675557D01*
X771128Y688578D01*
X771128Y700484D01*
X764778Y706834D01*
X700484Y706834D01*
X688181Y719138D01*
X688181Y726281D01*
X705247Y743347D01*
X705247Y817547D01*
X677862Y844947D01*
X677805Y868007D01*
G54D16*
G75*
G01X584850Y993755D02*
G03X569372Y978277I0J-15478D01*
G01*
G54D16*
G75*
G01X684524Y978238D02*
G03X669046Y993716I-15478J0D01*
G01*
G54D16*
X569372Y854849D02*
X569372Y978277D01*
G54D16*
X684466Y854849D02*
X684466Y978180D01*
X684524Y978238D01*
G54D16*
X584850Y993755D02*
X669006Y993755D01*
X669046Y993716D01*
G54D16*
X699944Y839371D02*
X779046Y839371D01*
X779066Y839391D01*
X607219Y975122D02*
G54D12*
D03*
X463947Y826294D02*
G54D12*
D03*
X734616Y829866D02*
G54D12*
D03*
X483394Y659209D02*
G54D12*
D03*
X474266Y589359D02*
G54D12*
D03*
X77391Y722312D02*
G54D12*
D03*
X75009Y814388D02*
G54D12*
D03*
X122238Y613569D02*
G54D12*
D03*
X688578Y667147D02*
G54D12*
D03*
X137486Y826457D02*
G54D12*
D03*
X155742Y826457D02*
G54D12*
D03*
X173997Y826460D02*
G54D12*
D03*
X192255Y826457D02*
G54D12*
D03*
X210511Y826457D02*
G54D12*
D03*
X228767Y826457D02*
G54D12*
D03*
G36*
X452791Y705233D02*
X442184Y694627D01*
X430870Y705941D01*
X441477Y716547D01*
X452791Y705233D01*
G37*
G36*
X467193Y719635D02*
X456586Y709029D01*
X445272Y720342D01*
X455879Y730949D01*
X467193Y719635D01*
G37*
G54D14*
X415617Y695961D02*
X422829Y695961D01*
X436959Y681831D01*
X442119Y681831D01*
X449262Y688975D01*
X449262Y698155D01*
X441831Y705587D01*
X565547Y738981D02*
G54D12*
D03*
X551656Y803672D02*
G54D12*
D03*
X551656Y827881D02*
G54D12*
D03*
G54D28*
X551656Y803672D02*
X551656Y827881D01*
X731836Y809625D02*
G54D29*
D03*
X680243Y809625D02*
G54D29*
D03*
X731836Y767159D02*
G54D29*
D03*
X680247Y767154D02*
G54D29*
D03*
G36*
X545459Y728885D02*
X535559Y718985D01*
X527074Y727470D01*
X536973Y737370D01*
X545459Y728885D01*
G37*
G36*
X551632Y722711D02*
X541733Y712811D01*
X533248Y721296D01*
X543147Y731196D01*
X551632Y722711D01*
G37*
G54D14*
X446825Y775369D02*
X453753Y775369D01*
X490934Y738188D01*
X526256Y738188D01*
X536266Y728177D01*
G54D14*
X542440Y722004D02*
X550466Y713978D01*
X605234Y713978D01*
G54D14*
X680243Y809625D02*
X690959Y809625D01*
X696912Y803672D01*
X696912Y746919D01*
X675878Y725884D01*
X555228Y725884D01*
X550069Y731044D01*
X539133Y731044D01*
X536266Y728177D01*
X770088Y764395D02*
G54D25*
D03*
X758976Y765194D02*
G54D24*
D03*
G36*
X752182Y783307D02*
X764182Y783307D01*
X764182Y769307D01*
X752182Y769307D01*
X752182Y783307D01*
G37*
G54D14*
X758976Y765194D02*
X733801Y765194D01*
X731836Y767159D01*
X758182Y776307D02*
G54D12*
D03*
G54D14*
X731836Y809625D02*
X731836Y802653D01*
X758182Y776307D01*
X554829Y781051D02*
G54D30*
D03*
X503832Y781050D02*
G54D30*
D03*
X485775Y781050D02*
G54D31*
D03*
X573191Y781172D02*
G54D31*
D03*
G54D13*
X421425Y775369D02*
X421425Y788137D01*
X434578Y801291D01*
X483591Y801291D01*
X503832Y781050D01*
%LPD*%
G54D16*
G36*
X412991Y661001D02*
X402991Y661001D01*
X402991Y666001D01*
X412991Y666001D01*
X412991Y661001D01*
G37*
G36*
X412991Y666001D02*
X422991Y666001D01*
X422991Y661001D01*
X412991Y661001D01*
X412991Y666001D01*
G37*
G36*
X415491Y663501D02*
X415491Y653501D01*
X410491Y653501D01*
X410491Y663501D01*
X415491Y663501D01*
G37*
G54D32*
G36*
X627250Y685119D02*
X627250Y693619D01*
X630917Y693619D01*
X630917Y685119D01*
X627250Y685119D01*
G37*
G36*
X629084Y686953D02*
X637084Y686953D01*
X637084Y683286D01*
X629084Y683286D01*
X629084Y686953D01*
G37*
G36*
X630917Y685119D02*
X630917Y676619D01*
X627250Y676619D01*
X627250Y685119D01*
X630917Y685119D01*
G37*
G36*
X629084Y683286D02*
X621084Y683286D01*
X621084Y686953D01*
X629084Y686953D01*
X629084Y683286D01*
G37*
G54D32*
G36*
X499350Y677469D02*
X499350Y685969D01*
X503017Y685969D01*
X503017Y677469D01*
X499350Y677469D01*
G37*
G36*
X501184Y679303D02*
X509184Y679303D01*
X509184Y675636D01*
X501184Y675636D01*
X501184Y679303D01*
G37*
G36*
X503017Y677469D02*
X503017Y668969D01*
X499350Y668969D01*
X499350Y677469D01*
X503017Y677469D01*
G37*
G36*
X501184Y675636D02*
X493184Y675636D01*
X493184Y679303D01*
X501184Y679303D01*
X501184Y675636D01*
G37*
G54D32*
G36*
X258764Y699603D02*
X267264Y699603D01*
X267264Y695936D01*
X258764Y695936D01*
X258764Y699603D01*
G37*
G36*
X260597Y697769D02*
X260597Y689769D01*
X256930Y689769D01*
X256930Y697769D01*
X260597Y697769D01*
G37*
G36*
X258764Y695936D02*
X250264Y695936D01*
X250264Y699603D01*
X258764Y699603D01*
X258764Y695936D01*
G37*
G36*
X256930Y697769D02*
X256930Y705769D01*
X260597Y705769D01*
X260597Y697769D01*
X256930Y697769D01*
G37*
G54D33*
G36*
X682199Y626684D02*
X686795Y622088D01*
X684909Y620202D01*
X680313Y624798D01*
X682199Y626684D01*
G37*
G36*
X682199Y624798D02*
X677602Y620202D01*
X675717Y622088D01*
X680313Y626684D01*
X682199Y624798D01*
G37*
G36*
X680313Y624798D02*
X675717Y629394D01*
X677602Y631280D01*
X682199Y626684D01*
X680313Y624798D01*
G37*
G36*
X680313Y626684D02*
X684909Y631280D01*
X686795Y629394D01*
X682199Y624798D01*
X680313Y626684D01*
G37*
G54D33*
G36*
X513414Y718344D02*
X513414Y724844D01*
X516080Y724844D01*
X516080Y718344D01*
X513414Y718344D01*
G37*
G36*
X514747Y719677D02*
X521247Y719677D01*
X521247Y717010D01*
X514747Y717010D01*
X514747Y719677D01*
G37*
G36*
X516080Y718344D02*
X516080Y711844D01*
X513414Y711844D01*
X513414Y718344D01*
X516080Y718344D01*
G37*
G36*
X514747Y717010D02*
X508247Y717010D01*
X508247Y719677D01*
X514747Y719677D01*
X514747Y717010D01*
G37*
G54D33*
G36*
X433247Y694130D02*
X433247Y700630D01*
X435913Y700630D01*
X435913Y694130D01*
X433247Y694130D01*
G37*
G36*
X434580Y695463D02*
X441080Y695463D01*
X441080Y692797D01*
X434580Y692797D01*
X434580Y695463D01*
G37*
G36*
X435523Y695073D02*
X440119Y690477D01*
X438233Y688591D01*
X433637Y693187D01*
X435523Y695073D01*
G37*
G36*
X433637Y693187D02*
X429041Y697783D01*
X430927Y699669D01*
X435523Y695073D01*
X433637Y693187D01*
G37*
G54D34*
G36*
X164758Y622969D02*
X164758Y633469D01*
X170091Y633469D01*
X170091Y622969D01*
X164758Y622969D01*
G37*
G36*
X167425Y625636D02*
X177925Y625636D01*
X177925Y620302D01*
X167425Y620302D01*
X167425Y625636D01*
G37*
G36*
X170091Y622969D02*
X170091Y612469D01*
X164758Y612469D01*
X164758Y622969D01*
X170091Y622969D01*
G37*
G36*
X167425Y620302D02*
X156925Y620302D01*
X156925Y625636D01*
X167425Y625636D01*
X167425Y620302D01*
G37*
G54D34*
G36*
X446821Y625638D02*
X457321Y625638D01*
X457321Y620305D01*
X446821Y620305D01*
X446821Y625638D01*
G37*
G36*
X449488Y622971D02*
X449488Y612471D01*
X444155Y612471D01*
X444155Y622971D01*
X449488Y622971D01*
G37*
G36*
X446821Y620305D02*
X436321Y620305D01*
X436321Y625638D01*
X446821Y625638D01*
X446821Y620305D01*
G37*
G54D34*
G36*
X164753Y622968D02*
X164753Y633468D01*
X170087Y633468D01*
X170087Y622968D01*
X164753Y622968D01*
G37*
G36*
X167420Y625635D02*
X177920Y625635D01*
X177920Y620302D01*
X167420Y620302D01*
X167420Y625635D01*
G37*
G36*
X170087Y622968D02*
X170087Y612468D01*
X164753Y612468D01*
X164753Y622968D01*
X170087Y622968D01*
G37*
G36*
X167420Y620302D02*
X156920Y620302D01*
X156920Y625635D01*
X167420Y625635D01*
X167420Y620302D01*
G37*
G54D34*
G36*
X317153Y775369D02*
X317153Y785869D01*
X322487Y785869D01*
X322487Y775369D01*
X317153Y775369D01*
G37*
G36*
X319820Y778035D02*
X330320Y778035D01*
X330320Y772702D01*
X319820Y772702D01*
X319820Y778035D01*
G37*
G36*
X322487Y775369D02*
X322487Y764869D01*
X317153Y764869D01*
X317153Y775369D01*
X322487Y775369D01*
G37*
G36*
X319820Y772702D02*
X309320Y772702D01*
X309320Y778035D01*
X319820Y778035D01*
X319820Y772702D01*
G37*
G54D34*
G36*
X317153Y775369D02*
X317153Y785869D01*
X322487Y785869D01*
X322487Y775369D01*
X317153Y775369D01*
G37*
G36*
X319820Y778035D02*
X330320Y778035D01*
X330320Y772702D01*
X319820Y772702D01*
X319820Y778035D01*
G37*
G36*
X322487Y775369D02*
X322487Y764869D01*
X317153Y764869D01*
X317153Y775369D01*
X322487Y775369D01*
G37*
G36*
X319820Y772702D02*
X309320Y772702D01*
X309320Y778035D01*
X319820Y778035D01*
X319820Y772702D01*
G37*
G54D35*
G36*
X99682Y668341D02*
X86682Y668341D01*
X86682Y674674D01*
X99682Y674674D01*
X99682Y668341D01*
G37*
G36*
X96515Y671508D02*
X96515Y684508D01*
X102848Y684508D01*
X102848Y671508D01*
X96515Y671508D01*
G37*
G36*
X99682Y674674D02*
X112682Y674674D01*
X112682Y668341D01*
X99682Y668341D01*
X99682Y674674D01*
G37*
G36*
X102848Y671508D02*
X102848Y658508D01*
X96515Y658508D01*
X96515Y671508D01*
X102848Y671508D01*
G37*
G54D35*
G54D36*
G36*
X417957Y718179D02*
X417957Y708679D01*
X413290Y708679D01*
X413290Y718179D01*
X417957Y718179D01*
G37*
G36*
X415624Y715846D02*
X406124Y715846D01*
X406124Y720513D01*
X415624Y720513D01*
X415624Y715846D01*
G37*
G36*
X413290Y718179D02*
X413290Y727679D01*
X417957Y727679D01*
X417957Y718179D01*
X413290Y718179D01*
G37*
G36*
X415624Y720513D02*
X425124Y720513D01*
X425124Y715846D01*
X415624Y715846D01*
X415624Y720513D01*
G37*
G54D13*
G36*
X369704Y713929D02*
X376204Y713929D01*
X376204Y705929D01*
X369704Y705929D01*
X369704Y713929D01*
G37*
G54D35*
G36*
X681254Y598763D02*
X669254Y598763D01*
X669254Y605096D01*
X681254Y605096D01*
X681254Y598763D01*
G37*
G36*
X678087Y601929D02*
X678087Y613929D01*
X684420Y613929D01*
X684420Y601929D01*
X678087Y601929D01*
G37*
G36*
X681254Y605096D02*
X693254Y605096D01*
X693254Y598763D01*
X681254Y598763D01*
X681254Y605096D01*
G37*
G54D32*
G36*
X552532Y630638D02*
X552532Y639138D01*
X556198Y639138D01*
X556198Y630638D01*
X552532Y630638D01*
G37*
G36*
X554365Y632472D02*
X562365Y632472D01*
X562365Y628805D01*
X554365Y628805D01*
X554365Y632472D01*
G37*
G36*
X556198Y630638D02*
X556198Y622138D01*
X552532Y622138D01*
X552532Y630638D01*
X556198Y630638D01*
G37*
G36*
X554365Y628805D02*
X546365Y628805D01*
X546365Y632472D01*
X554365Y632472D01*
X554365Y628805D01*
G37*
G54D32*
G36*
X649644Y685119D02*
X649644Y676619D01*
X645978Y676619D01*
X645978Y685119D01*
X649644Y685119D01*
G37*
G36*
X647811Y683286D02*
X639811Y683286D01*
X639811Y686953D01*
X647811Y686953D01*
X647811Y683286D01*
G37*
G36*
X645978Y685119D02*
X645978Y693619D01*
X649644Y693619D01*
X649644Y685119D01*
X645978Y685119D01*
G37*
G36*
X647811Y686953D02*
X655811Y686953D01*
X655811Y683286D01*
X647811Y683286D01*
X647811Y686953D01*
G37*
G54D37*
G36*
X266173Y600638D02*
X266173Y608638D01*
X271526Y608638D01*
X271526Y600638D01*
X266173Y600638D01*
G37*
G36*
X268850Y603314D02*
X277350Y603314D01*
X277350Y597961D01*
X268850Y597961D01*
X268850Y603314D01*
G37*
G36*
X268850Y597961D02*
X260350Y597961D01*
X260350Y603314D01*
X268850Y603314D01*
X268850Y597961D01*
G37*
G54D37*
G36*
X284430Y600638D02*
X284430Y608638D01*
X289783Y608638D01*
X289783Y600638D01*
X284430Y600638D01*
G37*
G36*
X287106Y603314D02*
X295606Y603314D01*
X295606Y597961D01*
X287106Y597961D01*
X287106Y603314D01*
G37*
G36*
X287106Y597961D02*
X278606Y597961D01*
X278606Y603314D01*
X287106Y603314D01*
X287106Y597961D01*
G37*
G54D37*
G36*
X302686Y600638D02*
X302686Y608638D01*
X308039Y608638D01*
X308039Y600638D01*
X302686Y600638D01*
G37*
G36*
X305362Y603314D02*
X313862Y603314D01*
X313862Y597961D01*
X305362Y597961D01*
X305362Y603314D01*
G37*
G36*
X305362Y597961D02*
X296862Y597961D01*
X296862Y603314D01*
X305362Y603314D01*
X305362Y597961D01*
G37*
G54D37*
G36*
X320942Y600638D02*
X320942Y608638D01*
X326295Y608638D01*
X326295Y600638D01*
X320942Y600638D01*
G37*
G36*
X323619Y603314D02*
X332119Y603314D01*
X332119Y597961D01*
X323619Y597961D01*
X323619Y603314D01*
G37*
G36*
X323619Y597961D02*
X315119Y597961D01*
X315119Y603314D01*
X323619Y603314D01*
X323619Y597961D01*
G37*
G54D37*
G36*
X339198Y600638D02*
X339198Y608638D01*
X344551Y608638D01*
X344551Y600638D01*
X339198Y600638D01*
G37*
G36*
X341875Y603314D02*
X350375Y603314D01*
X350375Y597961D01*
X341875Y597961D01*
X341875Y603314D01*
G37*
G36*
X341875Y597961D02*
X333375Y597961D01*
X333375Y603314D01*
X341875Y603314D01*
X341875Y597961D01*
G37*
G54D37*
G36*
X357455Y600638D02*
X357455Y608638D01*
X362808Y608638D01*
X362808Y600638D01*
X357455Y600638D01*
G37*
G36*
X360131Y603314D02*
X368631Y603314D01*
X368631Y597961D01*
X360131Y597961D01*
X360131Y603314D01*
G37*
G36*
X360131Y597961D02*
X351631Y597961D01*
X351631Y603314D01*
X360131Y603314D01*
X360131Y597961D01*
G37*
G54D37*
G36*
X375711Y600638D02*
X375711Y608638D01*
X381064Y608638D01*
X381064Y600638D01*
X375711Y600638D01*
G37*
G36*
X378387Y603314D02*
X386887Y603314D01*
X386887Y597961D01*
X378387Y597961D01*
X378387Y603314D01*
G37*
G36*
X378387Y597961D02*
X369887Y597961D01*
X369887Y603314D01*
X378387Y603314D01*
X378387Y597961D01*
G37*
G54D37*
G36*
X393967Y600638D02*
X393967Y608638D01*
X399320Y608638D01*
X399320Y600638D01*
X393967Y600638D01*
G37*
G36*
X396644Y603314D02*
X405144Y603314D01*
X405144Y597961D01*
X396644Y597961D01*
X396644Y603314D01*
G37*
G36*
X396644Y597961D02*
X388144Y597961D01*
X388144Y603314D01*
X396644Y603314D01*
X396644Y597961D01*
G37*
G54D33*
G36*
X583144Y603744D02*
X583144Y610244D01*
X585810Y610244D01*
X585810Y603744D01*
X583144Y603744D01*
G37*
G36*
X584477Y605078D02*
X590977Y605078D01*
X590977Y602411D01*
X584477Y602411D01*
X584477Y605078D01*
G37*
G36*
X585810Y603744D02*
X585810Y597244D01*
X583144Y597244D01*
X583144Y603744D01*
X585810Y603744D01*
G37*
G36*
X584477Y602411D02*
X577977Y602411D01*
X577977Y605078D01*
X584477Y605078D01*
X584477Y602411D01*
G37*
G54D35*
G36*
X142871Y590935D02*
X154871Y590935D01*
X154871Y584602D01*
X142871Y584602D01*
X142871Y590935D01*
G37*
G36*
X146038Y587769D02*
X146038Y575769D01*
X139705Y575769D01*
X139705Y587769D01*
X146038Y587769D01*
G37*
G36*
X142871Y584602D02*
X130871Y584602D01*
X130871Y590935D01*
X142871Y590935D01*
X142871Y584602D01*
G37*
G54D35*
G36*
X117471Y590935D02*
X129471Y590935D01*
X129471Y584602D01*
X117471Y584602D01*
X117471Y590935D01*
G37*
G36*
X120638Y587769D02*
X120638Y575769D01*
X114305Y575769D01*
X114305Y587769D01*
X120638Y587769D01*
G37*
G36*
X117471Y584602D02*
X105471Y584602D01*
X105471Y590935D01*
X117471Y590935D01*
X117471Y584602D01*
G37*
G54D35*
G36*
X245662Y590935D02*
X257662Y590935D01*
X257662Y584602D01*
X245662Y584602D01*
X245662Y590935D01*
G37*
G36*
X248829Y587769D02*
X248829Y575769D01*
X242495Y575769D01*
X242495Y587769D01*
X248829Y587769D01*
G37*
G36*
X245662Y584602D02*
X233662Y584602D01*
X233662Y590935D01*
X245662Y590935D01*
X245662Y584602D01*
G37*
G54D35*
G36*
X220262Y590935D02*
X232262Y590935D01*
X232262Y584602D01*
X220262Y584602D01*
X220262Y590935D01*
G37*
G36*
X223429Y587769D02*
X223429Y575769D01*
X217095Y575769D01*
X217095Y587769D01*
X223429Y587769D01*
G37*
G36*
X220262Y584602D02*
X208262Y584602D01*
X208262Y590935D01*
X220262Y590935D01*
X220262Y584602D01*
G37*
G54D35*
G54D35*
G36*
X758104Y716763D02*
X746104Y716763D01*
X746104Y723096D01*
X758104Y723096D01*
X758104Y716763D01*
G37*
G36*
X754937Y719929D02*
X754937Y731929D01*
X761270Y731929D01*
X761270Y719929D01*
X754937Y719929D01*
G37*
G36*
X758104Y723096D02*
X770104Y723096D01*
X770104Y716763D01*
X758104Y716763D01*
X758104Y723096D01*
G37*
G54D32*
G36*
X33019Y751514D02*
X33019Y743014D01*
X29352Y743014D01*
X29352Y751514D01*
X33019Y751514D01*
G37*
G36*
X31185Y749681D02*
X23185Y749681D01*
X23185Y753348D01*
X31185Y753348D01*
X31185Y749681D01*
G37*
G36*
X29352Y751514D02*
X29352Y760014D01*
X33019Y760014D01*
X33019Y751514D01*
X29352Y751514D01*
G37*
G36*
X31185Y753348D02*
X39185Y753348D01*
X39185Y749681D01*
X31185Y749681D01*
X31185Y753348D01*
G37*
G54D32*
G36*
X33019Y772152D02*
X33019Y763652D01*
X29352Y763652D01*
X29352Y772152D01*
X33019Y772152D01*
G37*
G36*
X31185Y770318D02*
X23185Y770318D01*
X23185Y773986D01*
X31185Y773986D01*
X31185Y770318D01*
G37*
G36*
X29352Y772152D02*
X29352Y780652D01*
X33019Y780652D01*
X33019Y772152D01*
X29352Y772152D01*
G37*
G36*
X31185Y773986D02*
X39185Y773986D01*
X39185Y770318D01*
X31185Y770318D01*
X31185Y773986D01*
G37*
G54D33*
G36*
X229250Y722709D02*
X229250Y729209D01*
X231917Y729209D01*
X231917Y722709D01*
X229250Y722709D01*
G37*
G36*
X230584Y724043D02*
X237084Y724043D01*
X237084Y721376D01*
X230584Y721376D01*
X230584Y724043D01*
G37*
G36*
X231917Y722709D02*
X231917Y716209D01*
X229250Y716209D01*
X229250Y722709D01*
X231917Y722709D01*
G37*
G54D32*
G36*
X623022Y853845D02*
X629032Y847834D01*
X626440Y845241D01*
X620429Y851252D01*
X623022Y853845D01*
G37*
G36*
X623022Y851252D02*
X617365Y845595D01*
X614772Y848188D01*
X620429Y853845D01*
X623022Y851252D01*
G37*
G36*
X620429Y851252D02*
X614419Y857262D01*
X617012Y859855D01*
X623022Y853845D01*
X620429Y851252D01*
G37*
G36*
X620429Y853845D02*
X626086Y859501D01*
X628679Y856908D01*
X623022Y851252D01*
X620429Y853845D01*
G37*
G54D32*
G36*
X661738Y836495D02*
X661738Y827995D01*
X658071Y827995D01*
X658071Y836495D01*
X661738Y836495D01*
G37*
G36*
X659904Y834662D02*
X651904Y834662D01*
X651904Y838329D01*
X659904Y838329D01*
X659904Y834662D01*
G37*
G36*
X658071Y836495D02*
X658071Y844995D01*
X661738Y844995D01*
X661738Y836495D01*
X658071Y836495D01*
G37*
G36*
X659904Y838329D02*
X667904Y838329D01*
X667904Y834662D01*
X659904Y834662D01*
X659904Y838329D01*
G37*
G54D32*
G36*
X661738Y816255D02*
X661738Y807755D01*
X658071Y807755D01*
X658071Y816255D01*
X661738Y816255D01*
G37*
G36*
X659904Y814421D02*
X651904Y814421D01*
X651904Y818088D01*
X659904Y818088D01*
X659904Y814421D01*
G37*
G36*
X658071Y816255D02*
X658071Y824755D01*
X661738Y824755D01*
X661738Y816255D01*
X658071Y816255D01*
G37*
G36*
X659904Y818088D02*
X667904Y818088D01*
X667904Y814421D01*
X659904Y814421D01*
X659904Y818088D01*
G37*
G54D32*
G36*
X629175Y957551D02*
X637675Y957551D01*
X637675Y953884D01*
X629175Y953884D01*
X629175Y957551D01*
G37*
G36*
X631008Y955718D02*
X631008Y947718D01*
X627341Y947718D01*
X627341Y955718D01*
X631008Y955718D01*
G37*
G36*
X629175Y953884D02*
X620675Y953884D01*
X620675Y957551D01*
X629175Y957551D01*
X629175Y953884D01*
G37*
G36*
X627341Y955718D02*
X627341Y963718D01*
X631008Y963718D01*
X631008Y955718D01*
X627341Y955718D01*
G37*
G54D33*
G36*
X605885Y975122D02*
X605885Y981622D01*
X608552Y981622D01*
X608552Y975122D01*
X605885Y975122D01*
G37*
G36*
X607219Y976455D02*
X613719Y976455D01*
X613719Y973789D01*
X607219Y973789D01*
X607219Y976455D01*
G37*
G36*
X608552Y975122D02*
X608552Y968622D01*
X605885Y968622D01*
X605885Y975122D01*
X608552Y975122D01*
G37*
G36*
X607219Y973789D02*
X600719Y973789D01*
X600719Y976455D01*
X607219Y976455D01*
X607219Y973789D01*
G37*
G54D33*
G36*
X462614Y826294D02*
X462614Y832794D01*
X465280Y832794D01*
X465280Y826294D01*
X462614Y826294D01*
G37*
G36*
X463947Y827627D02*
X470447Y827627D01*
X470447Y824960D01*
X463947Y824960D01*
X463947Y827627D01*
G37*
G36*
X465280Y826294D02*
X465280Y819794D01*
X462614Y819794D01*
X462614Y826294D01*
X465280Y826294D01*
G37*
G36*
X463947Y824960D02*
X457447Y824960D01*
X457447Y827627D01*
X463947Y827627D01*
X463947Y824960D01*
G37*
G54D33*
G36*
X733282Y829866D02*
X733282Y836366D01*
X735949Y836366D01*
X735949Y829866D01*
X733282Y829866D01*
G37*
G36*
X734616Y831199D02*
X741116Y831199D01*
X741116Y828532D01*
X734616Y828532D01*
X734616Y831199D01*
G37*
G36*
X735949Y829866D02*
X735949Y823366D01*
X733282Y823366D01*
X733282Y829866D01*
X735949Y829866D01*
G37*
G36*
X734616Y828532D02*
X728116Y828532D01*
X728116Y831199D01*
X734616Y831199D01*
X734616Y828532D01*
G37*
G54D33*
G36*
X482060Y659209D02*
X482060Y665709D01*
X484727Y665709D01*
X484727Y659209D01*
X482060Y659209D01*
G37*
G36*
X483394Y660543D02*
X489894Y660543D01*
X489894Y657876D01*
X483394Y657876D01*
X483394Y660543D01*
G37*
G36*
X484727Y659209D02*
X484727Y652709D01*
X482060Y652709D01*
X482060Y659209D01*
X484727Y659209D01*
G37*
G36*
X483394Y657876D02*
X476894Y657876D01*
X476894Y660543D01*
X483394Y660543D01*
X483394Y657876D01*
G37*
G54D33*
G36*
X472932Y589359D02*
X472932Y595859D01*
X475599Y595859D01*
X475599Y589359D01*
X472932Y589359D01*
G37*
G36*
X474266Y590693D02*
X480766Y590693D01*
X480766Y588026D01*
X474266Y588026D01*
X474266Y590693D01*
G37*
G36*
X475599Y589359D02*
X475599Y582859D01*
X472932Y582859D01*
X472932Y589359D01*
X475599Y589359D01*
G37*
G36*
X474266Y588026D02*
X467766Y588026D01*
X467766Y590693D01*
X474266Y590693D01*
X474266Y588026D01*
G37*
G54D33*
G36*
X76057Y722312D02*
X76057Y728812D01*
X78724Y728812D01*
X78724Y722312D01*
X76057Y722312D01*
G37*
G36*
X77391Y723646D02*
X83891Y723646D01*
X83891Y720979D01*
X77391Y720979D01*
X77391Y723646D01*
G37*
G36*
X78724Y722312D02*
X78724Y715812D01*
X76057Y715812D01*
X76057Y722312D01*
X78724Y722312D01*
G37*
G36*
X77391Y720979D02*
X70891Y720979D01*
X70891Y723646D01*
X77391Y723646D01*
X77391Y720979D01*
G37*
G54D33*
G36*
X73676Y814388D02*
X73676Y820888D01*
X76343Y820888D01*
X76343Y814388D01*
X73676Y814388D01*
G37*
G36*
X75009Y815721D02*
X81509Y815721D01*
X81509Y813054D01*
X75009Y813054D01*
X75009Y815721D01*
G37*
G36*
X76343Y814388D02*
X76343Y807888D01*
X73676Y807888D01*
X73676Y814388D01*
X76343Y814388D01*
G37*
G36*
X75009Y813054D02*
X68509Y813054D01*
X68509Y815721D01*
X75009Y815721D01*
X75009Y813054D01*
G37*
G54D33*
G36*
X120904Y613569D02*
X120904Y620069D01*
X123571Y620069D01*
X123571Y613569D01*
X120904Y613569D01*
G37*
G36*
X122238Y614902D02*
X128738Y614902D01*
X128738Y612235D01*
X122238Y612235D01*
X122238Y614902D01*
G37*
G36*
X123571Y613569D02*
X123571Y607069D01*
X120904Y607069D01*
X120904Y613569D01*
X123571Y613569D01*
G37*
G36*
X122238Y612235D02*
X115738Y612235D01*
X115738Y614902D01*
X122238Y614902D01*
X122238Y612235D01*
G37*
G54D33*
G36*
X687245Y667147D02*
X687245Y673647D01*
X689911Y673647D01*
X689911Y667147D01*
X687245Y667147D01*
G37*
G36*
X688578Y668480D02*
X695078Y668480D01*
X695078Y665814D01*
X688578Y665814D01*
X688578Y668480D01*
G37*
G36*
X689911Y667147D02*
X689911Y660647D01*
X687245Y660647D01*
X687245Y667147D01*
X689911Y667147D01*
G37*
G36*
X688578Y665814D02*
X682078Y665814D01*
X682078Y668480D01*
X688578Y668480D01*
X688578Y665814D01*
G37*
G54D33*
G36*
X564214Y738981D02*
X564214Y745481D01*
X566880Y745481D01*
X566880Y738981D01*
X564214Y738981D01*
G37*
G36*
X565547Y740315D02*
X572047Y740315D01*
X572047Y737648D01*
X565547Y737648D01*
X565547Y740315D01*
G37*
G36*
X566880Y738981D02*
X566880Y732481D01*
X564214Y732481D01*
X564214Y738981D01*
X566880Y738981D01*
G37*
G36*
X565547Y737648D02*
X559047Y737648D01*
X559047Y740315D01*
X565547Y740315D01*
X565547Y737648D01*
G37*
G54D14*
G36*
X683247Y767154D02*
X683247Y754654D01*
X677247Y754654D01*
X677247Y767154D01*
X683247Y767154D01*
G37*
G36*
X680247Y764154D02*
X668747Y764154D01*
X668747Y770154D01*
X680247Y770154D01*
X680247Y764154D01*
G37*
G36*
X677247Y767154D02*
X677247Y779654D01*
X683247Y779654D01*
X683247Y767154D01*
X677247Y767154D01*
G37*
G36*
X680247Y770154D02*
X691747Y770154D01*
X691747Y764154D01*
X680247Y764154D01*
X680247Y770154D01*
G37*
G54D13*
G36*
X774088Y764395D02*
X774088Y757895D01*
X766088Y757895D01*
X766088Y764395D01*
X774088Y764395D01*
G37*
G54D35*
G36*
X557996Y781051D02*
X557996Y769051D01*
X551663Y769051D01*
X551663Y781051D01*
X557996Y781051D01*
G37*
G36*
X554829Y777885D02*
X542829Y777885D01*
X542829Y784218D01*
X554829Y784218D01*
X554829Y777885D01*
G37*
G36*
X551663Y781051D02*
X551663Y793051D01*
X557996Y793051D01*
X557996Y781051D01*
X551663Y781051D01*
G37*
G36*
X554829Y784218D02*
X566829Y784218D01*
X566829Y777885D01*
X554829Y777885D01*
X554829Y784218D01*
G37*
X235197Y663507D02*
G54D38*
D03*
X260597Y663507D02*
G54D38*
D03*
X235197Y739707D02*
G54D38*
D03*
X285997Y663508D02*
G54D38*
D03*
X260597Y739707D02*
G54D38*
D03*
X285997Y739707D02*
G54D38*
D03*
X311397Y739707D02*
G54D38*
D03*
X311397Y663507D02*
G54D38*
D03*
X336797Y663507D02*
G54D38*
D03*
X336797Y739707D02*
G54D38*
D03*
X362197Y663507D02*
G54D38*
D03*
X362197Y739707D02*
G54D38*
D03*
X387597Y663507D02*
G54D38*
D03*
X387597Y739707D02*
G54D38*
D03*
X412997Y663507D02*
G54D38*
D03*
X412997Y739707D02*
G54D38*
D03*
X412991Y663501D02*
G54D38*
D03*
X670256Y658416D02*
G54D39*
D03*
X653256Y658416D02*
G54D39*
D03*
X519906Y731441D02*
G54D40*
D03*
X258762Y714772D02*
G54D40*
D03*
X273844Y719931D02*
G54D40*
D03*
X436959Y720328D02*
G54D40*
D03*
X484188Y677466D02*
G54D40*
D03*
G54D41*
X273844Y719931D02*
X263922Y719931D01*
X258762Y714772D01*
G54D41*
X436959Y720328D02*
X441325Y720328D01*
X484188Y677466D01*
X521097Y758428D02*
G54D40*
D03*
X605631Y737394D02*
G54D40*
D03*
X665162Y737394D02*
G54D40*
D03*
G54D42*
X605631Y737394D02*
X665162Y737394D01*
X577056Y754459D02*
G54D40*
D03*
G54D42*
X521097Y758428D02*
X573088Y758428D01*
X577056Y754459D01*
X605234Y713978D02*
G54D40*
D03*
X430212Y728266D02*
G54D40*
D03*
X465931Y707231D02*
G54D40*
D03*
G54D42*
X430212Y728266D02*
X440531Y728266D01*
X461169Y707628D01*
X465534Y707628D01*
X465931Y707231D01*
X585788Y707231D02*
G54D40*
D03*
X558403Y705247D02*
G54D40*
D03*
G54D42*
X585788Y707231D02*
X666222Y707231D01*
X719762Y653692D01*
X719762Y653692D02*
G54D40*
D03*
X610225Y653785D02*
G54D40*
D03*
X501188Y677466D02*
G54D39*
D03*
X484188Y677466D02*
G54D39*
D03*
X612088Y685113D02*
G54D40*
D03*
X629088Y685113D02*
G54D39*
D03*
X612088Y685113D02*
G54D39*
D03*
G54D42*
X558403Y705247D02*
X558763Y705247D01*
X610225Y653785D01*
X258762Y697772D02*
G54D43*
D03*
X258762Y714772D02*
G54D43*
D03*
X629084Y685119D02*
G54D39*
D03*
X501184Y677469D02*
G54D39*
D03*
X258764Y697769D02*
G54D43*
D03*
X463947Y749300D02*
G54D40*
D03*
X479822Y719534D02*
G54D40*
D03*
G54D42*
X519906Y731441D02*
X492125Y731441D01*
X467122Y756444D01*
X395288Y756444D01*
X387747Y748903D01*
X387747Y739858D01*
X387597Y739707D01*
X732056Y625741D02*
G54D40*
D03*
X706656Y625741D02*
G54D40*
D03*
X681256Y625741D02*
G54D40*
D03*
X655856Y625741D02*
G54D40*
D03*
X630456Y625741D02*
G54D40*
D03*
X533400Y653653D02*
G54D40*
D03*
G54D42*
X732056Y626535D02*
X732056Y627638D01*
X725091Y634603D01*
X571897Y634603D01*
X552847Y653653D01*
X533400Y653653D01*
X550069Y646509D02*
G54D40*
D03*
G54D42*
X550069Y646509D02*
X554434Y646509D01*
X570706Y630238D01*
X614759Y630238D01*
X626269Y618728D01*
X648843Y618728D01*
X655856Y625741D01*
X670256Y658416D02*
G54D40*
D03*
X653256Y658416D02*
G54D40*
D03*
X514747Y718344D02*
G54D40*
D03*
X465534Y653256D02*
G54D40*
D03*
X281781Y698103D02*
G54D40*
D03*
G54D42*
X281781Y698103D02*
X281781Y724694D01*
X267097Y739378D01*
X260926Y739378D01*
X260597Y739707D01*
X434580Y694130D02*
G54D40*
D03*
G54D44*
G75*
G01X17066Y839391D02*
G03X1588Y823913I0J-15478D01*
G01*
G54D44*
X17066Y839391D02*
X553894Y839371D01*
G54D44*
X1588Y823913D02*
X1444Y577433D01*
G54D44*
G75*
G01X1444Y577433D02*
G03X16922Y561955I15478J0D01*
G01*
G54D44*
G75*
G01X794544Y823913D02*
G03X779066Y839391I-15478J0D01*
G01*
G54D44*
X794544Y823913D02*
X794689Y577433D01*
G54D44*
G75*
G01X779211Y561955D02*
G03X794689Y577433I0J15478D01*
G01*
G54D44*
X16922Y561955D02*
X779211Y561955D01*
X677805Y747754D02*
G54D40*
D03*
X492919Y765572D02*
G54D40*
D03*
X613114Y761645D02*
G54D40*
D03*
G54D42*
X677805Y747754D02*
X627005Y747754D01*
X613114Y761645D01*
G54D42*
X492919Y765572D02*
X609187Y765572D01*
X613114Y761645D01*
X446825Y622969D02*
G54D45*
D03*
X421425Y622969D02*
G54D45*
D03*
X396025Y622969D02*
G54D45*
D03*
X370625Y622969D02*
G54D45*
D03*
X345225Y622969D02*
G54D45*
D03*
X319825Y622969D02*
G54D45*
D03*
X294425Y622969D02*
G54D45*
D03*
X269025Y622969D02*
G54D45*
D03*
X243625Y622969D02*
G54D45*
D03*
X218225Y622969D02*
G54D45*
D03*
X192825Y622969D02*
G54D45*
D03*
X167425Y622969D02*
G54D45*
D03*
X167425Y775369D02*
G54D45*
D03*
X192825Y775369D02*
G54D45*
D03*
X218225Y775369D02*
G54D45*
D03*
X243625Y775369D02*
G54D45*
D03*
X269025Y775369D02*
G54D45*
D03*
X294425Y775369D02*
G54D45*
D03*
X319825Y775369D02*
G54D45*
D03*
X446825Y775369D02*
G54D45*
D03*
X421425Y775369D02*
G54D45*
D03*
X396025Y775369D02*
G54D45*
D03*
X370625Y775369D02*
G54D45*
D03*
X345225Y775369D02*
G54D45*
D03*
G54D41*
X421425Y775369D02*
X396025Y775369D01*
X167425Y622969D02*
G54D45*
D03*
X446821Y622971D02*
G54D45*
D03*
X167420Y622968D02*
G54D45*
D03*
X319820Y775369D02*
G54D45*
D03*
X319820Y775369D02*
G54D45*
D03*
X281781Y698103D02*
G54D40*
D03*
X302022Y694134D02*
G54D40*
D03*
X311944Y694134D02*
G54D40*
D03*
X321866Y694134D02*
G54D40*
D03*
X331788Y694134D02*
G54D40*
D03*
G54D42*
X311397Y739707D02*
X311397Y703509D01*
X302022Y694134D01*
G54D42*
X336797Y739707D02*
X336797Y718987D01*
X311944Y694134D01*
G54D42*
X362197Y739707D02*
X362197Y734465D01*
X321866Y694134D01*
G54D42*
X281781Y698103D02*
X281781Y724694D01*
X267097Y739378D01*
X260926Y739378D01*
X260597Y739707D01*
X223838Y673894D02*
G54D40*
D03*
G54D42*
X260597Y663507D02*
X260597Y664916D01*
X248841Y676672D01*
X226616Y676672D01*
X223838Y673894D01*
X438944Y644922D02*
G54D40*
D03*
G54D42*
X465534Y653256D02*
X459978Y653256D01*
X426244Y686991D01*
X298847Y686991D01*
X294878Y690959D01*
X294878Y718344D01*
X300831Y724297D01*
X300831Y768962D01*
X294425Y775369D01*
G54D42*
X438944Y644922D02*
X438944Y668734D01*
X424656Y683022D01*
X297259Y683022D01*
X290512Y689769D01*
X290512Y719931D01*
X296862Y726281D01*
X296862Y747531D01*
X269025Y775369D01*
X496094Y644525D02*
G54D40*
D03*
X488156Y637381D02*
G54D40*
D03*
G54D42*
X488156Y637381D02*
X487362Y637381D01*
X483791Y640953D01*
X450850Y640953D01*
X443706Y633809D01*
X434578Y633809D01*
X428228Y640159D01*
X428228Y649684D01*
X431006Y652462D01*
X431006Y665559D01*
X421481Y675084D01*
X294084Y675084D01*
X288528Y680641D01*
X240903Y680641D01*
X217884Y703659D01*
X217884Y775029D01*
X218225Y775369D01*
X493712Y705247D02*
G54D40*
D03*
X436166Y745728D02*
G54D40*
D03*
G54D42*
X493712Y705247D02*
X483791Y705247D01*
X471884Y717153D01*
X471884Y731044D01*
X457200Y745728D01*
X436166Y745728D01*
X421084Y650081D02*
G54D40*
D03*
G54D42*
X192825Y622969D02*
X192825Y628990D01*
X198041Y634206D01*
X405209Y634206D01*
X421084Y650081D01*
X216297Y666750D02*
G54D40*
D03*
G54D42*
X216297Y666750D02*
X217091Y666750D01*
X230981Y652859D01*
X275349Y652859D01*
X285997Y663508D01*
X186696Y662946D02*
G54D40*
D03*
G54D42*
X387597Y663507D02*
X377361Y663507D01*
X362744Y648891D01*
X218281Y648891D01*
X204391Y662781D01*
X186862Y662781D01*
X186696Y662946D01*
G54D42*
X605234Y713978D02*
X550466Y713978D01*
X545703Y709216D01*
X545703Y702072D01*
X99682Y671508D02*
G54D46*
D03*
X99693Y696913D02*
G54D46*
D03*
X99693Y747713D02*
G54D47*
D03*
X99688Y773111D02*
G54D46*
D03*
X99693Y747716D02*
G54D46*
D03*
X48883Y722321D02*
G54D46*
D03*
X180181Y788591D02*
G54D40*
D03*
X203763Y725653D02*
G54D40*
D03*
G54D42*
X180181Y788591D02*
X180181Y749234D01*
X203763Y725653D01*
X30956Y810022D02*
G54D48*
D03*
X415617Y695961D02*
G54D25*
D03*
X415624Y718179D02*
G54D24*
D03*
X388233Y695961D02*
G54D25*
D03*
X388229Y718194D02*
G54D24*
D03*
X442912Y738188D02*
G54D40*
D03*
X369704Y709929D02*
G54D49*
D03*
X368905Y698817D02*
G54D50*
D03*
X357792Y698023D02*
G54D51*
D03*
G54D42*
X387597Y739707D02*
X376964Y739707D01*
X366712Y729456D01*
X362744Y729456D01*
X331788Y698500D01*
X331788Y694134D01*
G54D42*
X357792Y698023D02*
X357792Y694720D01*
X361553Y690959D01*
X383231Y690959D01*
X388233Y695961D01*
G54D42*
X388229Y718194D02*
X364578Y718194D01*
X361553Y715169D01*
X361553Y706168D01*
X368905Y698817D01*
G54D42*
X442912Y738188D02*
X431800Y738188D01*
X419100Y750888D01*
X407988Y750888D01*
X402431Y745331D01*
X402431Y736203D01*
X394494Y728266D01*
X371475Y728266D01*
X368697Y725488D01*
X364728Y725488D01*
X354409Y715169D01*
X354409Y701406D01*
X357792Y698023D01*
X536972Y702072D02*
G54D49*
D03*
X545703Y702072D02*
G54D49*
D03*
X536972Y702072D02*
G54D40*
D03*
X630454Y601929D02*
G54D47*
D03*
X655856Y601928D02*
G54D47*
D03*
X681254Y601929D02*
G54D47*
D03*
X706656Y601928D02*
G54D47*
D03*
X732056Y601928D02*
G54D47*
D03*
X558403Y677069D02*
G54D40*
D03*
X584597Y669131D02*
G54D40*
D03*
G36*
X540847Y667530D02*
X533068Y659752D01*
X524583Y668238D01*
X532362Y676016D01*
X540847Y667530D01*
G37*
G36*
X555249Y681932D02*
X547470Y674154D01*
X538985Y682639D01*
X546764Y690417D01*
X555249Y681932D01*
G37*
G54D42*
X558403Y677069D02*
X552334Y677069D01*
X547117Y682286D01*
X554369Y630634D02*
G54D39*
D03*
X537369Y630634D02*
G54D39*
D03*
X554365Y630638D02*
G54D39*
D03*
G54D42*
X537369Y630634D02*
X529431Y630634D01*
X524272Y635794D01*
X524272Y659441D01*
X532715Y667884D01*
G36*
X568742Y675493D02*
X576521Y683270D01*
X585005Y674783D01*
X577226Y667006D01*
X568742Y675493D01*
G37*
G36*
X580762Y687509D02*
X588540Y695288D01*
X597026Y686804D01*
X589249Y679025D01*
X580762Y687509D01*
G37*
G54D42*
X584597Y669131D02*
X582876Y669131D01*
X576873Y675133D01*
X647807Y685113D02*
G54D39*
D03*
X664807Y685113D02*
G54D39*
D03*
X647811Y685119D02*
G54D39*
D03*
G54D42*
X588894Y687154D02*
X588894Y687319D01*
X604838Y703262D01*
X658019Y703262D01*
X664766Y696516D01*
X664766Y685154D01*
X664807Y685113D01*
X268852Y583635D02*
G54D43*
D03*
X268852Y600635D02*
G54D43*
D03*
X268850Y600638D02*
G54D43*
D03*
X287108Y583635D02*
G54D43*
D03*
X287108Y600635D02*
G54D43*
D03*
X287106Y600638D02*
G54D43*
D03*
X305364Y583635D02*
G54D43*
D03*
X305364Y600635D02*
G54D43*
D03*
X305362Y600638D02*
G54D43*
D03*
X323620Y583635D02*
G54D43*
D03*
X323620Y600635D02*
G54D43*
D03*
X323619Y600638D02*
G54D43*
D03*
X341877Y583635D02*
G54D43*
D03*
X341877Y600635D02*
G54D43*
D03*
X341875Y600638D02*
G54D43*
D03*
X360133Y583635D02*
G54D43*
D03*
X360133Y600635D02*
G54D43*
D03*
X360131Y600638D02*
G54D43*
D03*
X378389Y583635D02*
G54D43*
D03*
X378389Y600635D02*
G54D43*
D03*
X378387Y600638D02*
G54D43*
D03*
X396645Y583635D02*
G54D43*
D03*
X396645Y600635D02*
G54D43*
D03*
X396644Y600638D02*
G54D43*
D03*
X396645Y583635D02*
G54D40*
D03*
X378389Y583635D02*
G54D40*
D03*
X360133Y583635D02*
G54D40*
D03*
X341877Y583635D02*
G54D40*
D03*
X323620Y583635D02*
G54D40*
D03*
X305364Y583635D02*
G54D40*
D03*
X287108Y583635D02*
G54D40*
D03*
X268852Y583635D02*
G54D40*
D03*
X607781Y601034D02*
G54D40*
D03*
G54D42*
X607781Y601034D02*
X607781Y599116D01*
X619522Y587375D01*
X692102Y587375D01*
X706656Y601928D01*
X584477Y603744D02*
G54D40*
D03*
X155742Y809457D02*
G54D43*
D03*
X155742Y826457D02*
G54D43*
D03*
X173998Y809457D02*
G54D43*
D03*
X173998Y826457D02*
G54D43*
D03*
X192255Y809457D02*
G54D43*
D03*
X192255Y826457D02*
G54D43*
D03*
X210511Y809457D02*
G54D43*
D03*
X210511Y826457D02*
G54D43*
D03*
X228767Y809457D02*
G54D43*
D03*
X228767Y826457D02*
G54D43*
D03*
G54D42*
X294425Y775369D02*
X293812Y775369D01*
X259556Y809625D01*
X228935Y809625D01*
X228767Y809457D01*
G54D42*
X192825Y775369D02*
X192825Y791822D01*
X187722Y796925D01*
X168274Y796925D01*
X155742Y809457D01*
G54D42*
X218225Y775369D02*
X218225Y777535D01*
X194866Y800894D01*
X182562Y800894D01*
X173998Y809457D01*
G54D42*
X243625Y775369D02*
X238647Y775369D01*
X213122Y800894D01*
X200818Y800894D01*
X192255Y809457D01*
G54D42*
X269025Y775369D02*
X262459Y775369D01*
X236934Y800894D01*
X219074Y800894D01*
X210511Y809457D01*
X137486Y809457D02*
G54D43*
D03*
X137486Y826457D02*
G54D43*
D03*
X214081Y676837D02*
G54D40*
D03*
G54D42*
X214081Y676837D02*
X214081Y704288D01*
X137716Y780653D01*
X137716Y809228D01*
X137486Y809457D01*
X142871Y587769D02*
G54D47*
D03*
X66675Y587772D02*
G54D47*
D03*
X92075Y587772D02*
G54D47*
D03*
X117471Y587769D02*
G54D47*
D03*
X30956Y591344D02*
G54D48*
D03*
X245662Y587769D02*
G54D47*
D03*
X169466Y587772D02*
G54D47*
D03*
X194866Y587772D02*
G54D47*
D03*
X220262Y587769D02*
G54D47*
D03*
X765175Y591344D02*
G54D48*
D03*
X198206Y693903D02*
G54D40*
D03*
X142643Y712556D02*
G54D40*
D03*
G54D42*
X198206Y693903D02*
X161296Y693903D01*
X142643Y712556D01*
X765175Y810419D02*
G54D48*
D03*
X758100Y643725D02*
G54D47*
D03*
X758107Y669130D02*
G54D47*
D03*
X758107Y694530D02*
G54D47*
D03*
X758107Y719930D02*
G54D47*
D03*
X758103Y745329D02*
G54D47*
D03*
X758104Y719929D02*
G54D47*
D03*
G54D41*
X765246Y745329D02*
X720657Y745329D01*
X696681Y721354D01*
G54D42*
X463947Y749300D02*
X468709Y749300D01*
X575469Y642541D01*
X723503Y642541D01*
X733425Y652462D01*
X733425Y684609D01*
X743744Y694928D01*
X764853Y694928D01*
X765251Y694530D01*
G54D42*
X479822Y719534D02*
X492919Y719534D01*
X573881Y638572D01*
X725091Y638572D01*
X737791Y651272D01*
X737791Y663575D01*
X743347Y669131D01*
X765251Y669130D01*
X696681Y721354D02*
G54D40*
D03*
X31188Y751516D02*
G54D39*
D03*
X48188Y751516D02*
G54D39*
D03*
X31185Y751514D02*
G54D39*
D03*
X31188Y772153D02*
G54D39*
D03*
X48188Y772153D02*
G54D39*
D03*
X31185Y772152D02*
G54D39*
D03*
G54D42*
X48883Y722321D02*
X48883Y750821D01*
X48188Y751516D01*
G54D42*
X99688Y773111D02*
X49146Y773111D01*
X48188Y772153D01*
G54D42*
X496094Y644525D02*
X448866Y644525D01*
X442119Y637778D01*
X436166Y637778D01*
X432197Y641747D01*
X432197Y648097D01*
X434975Y650875D01*
X434975Y667147D01*
X423069Y679053D01*
X295672Y679053D01*
X290116Y684609D01*
X242491Y684609D01*
X221853Y705247D01*
X221853Y753597D01*
X243625Y775369D01*
X230584Y722709D02*
G54D40*
D03*
X627062Y920750D02*
G54D40*
D03*
X635000Y890191D02*
G54D40*
D03*
X584994Y812006D02*
G54D40*
D03*
X591741Y821134D02*
G54D40*
D03*
G54D42*
X627062Y920750D02*
X627062Y882253D01*
X584994Y840184D01*
X584994Y812006D01*
G54D42*
X591741Y821134D02*
X591741Y840978D01*
X635000Y884238D01*
X635000Y890191D01*
X598488Y828675D02*
G54D40*
D03*
G36*
X629862Y852189D02*
X622084Y844411D01*
X613598Y852896D01*
X621376Y860674D01*
X629862Y852189D01*
G37*
G36*
X617841Y840168D02*
X610063Y832390D01*
X601577Y840875D01*
X609356Y848653D01*
X617841Y840168D01*
G37*
G54D42*
X598488Y828675D02*
X598488Y829302D01*
X609709Y840524D01*
G36*
X629857Y852195D02*
X622079Y844416D01*
X613594Y852902D01*
X621372Y860680D01*
X629857Y852195D01*
G37*
X617538Y824309D02*
G54D40*
D03*
X659905Y836490D02*
G54D39*
D03*
X642905Y836490D02*
G54D39*
D03*
X659904Y836495D02*
G54D39*
D03*
X659905Y816249D02*
G54D39*
D03*
X642905Y816249D02*
G54D39*
D03*
X659904Y816255D02*
G54D39*
D03*
G54D42*
X642905Y816249D02*
X625598Y816249D01*
X617538Y824309D01*
G54D42*
X642905Y836490D02*
X642905Y816249D01*
X642938Y920750D02*
G54D40*
D03*
X650081Y883047D02*
G54D40*
D03*
X656143Y886907D02*
G54D52*
D03*
X656143Y914907D02*
G54D52*
D03*
G54D42*
X642938Y920750D02*
X650300Y920750D01*
X656143Y914907D01*
G54D44*
X656034Y894159D02*
X656143Y914907D01*
X629180Y955718D02*
G54D43*
D03*
X629180Y938718D02*
G54D43*
D03*
X629175Y955718D02*
G54D43*
D03*
G54D42*
X642938Y920750D02*
X642938Y924961D01*
X629180Y938718D01*
G54D44*
G75*
G01X684466Y854849D02*
G03X699944Y839371I15478J0D01*
G01*
G54D44*
G75*
G01X553894Y839371D02*
G03X569372Y854849I0J15478D01*
G01*
X677805Y868007D02*
G54D40*
D03*
X636927Y853720D02*
G54D40*
D03*
G54D42*
X733425Y684609D02*
X716756Y684609D01*
X683816Y717550D01*
X683816Y727869D01*
X700881Y744934D01*
X700881Y815975D01*
X663178Y853678D01*
X636968Y853678D01*
X636927Y853720D01*
G54D42*
X758107Y669130D02*
X758107Y675557D01*
X771128Y688578D01*
X771128Y700484D01*
X764778Y706834D01*
X700484Y706834D01*
X688181Y719138D01*
X688181Y726281D01*
X705247Y743347D01*
X705247Y817547D01*
X677862Y844947D01*
X677805Y868007D01*
G54D44*
G75*
G01X584850Y993755D02*
G03X569372Y978277I0J-15478D01*
G01*
G54D44*
G75*
G01X684524Y978238D02*
G03X669046Y993716I-15478J0D01*
G01*
G54D44*
X569372Y854849D02*
X569372Y978277D01*
G54D44*
X684466Y854849D02*
X684466Y978180D01*
X684524Y978238D01*
G54D44*
X584850Y993755D02*
X669006Y993755D01*
X669046Y993716D01*
G54D44*
X699944Y839371D02*
X779046Y839371D01*
X779066Y839391D01*
X607219Y975122D02*
G54D40*
D03*
X463947Y826294D02*
G54D40*
D03*
X734616Y829866D02*
G54D40*
D03*
X483394Y659209D02*
G54D40*
D03*
X474266Y589359D02*
G54D40*
D03*
X77391Y722312D02*
G54D40*
D03*
X75009Y814388D02*
G54D40*
D03*
X122238Y613569D02*
G54D40*
D03*
X688578Y667147D02*
G54D40*
D03*
X137486Y826457D02*
G54D40*
D03*
X155742Y826457D02*
G54D40*
D03*
X173997Y826460D02*
G54D40*
D03*
X192255Y826457D02*
G54D40*
D03*
X210511Y826457D02*
G54D40*
D03*
X228767Y826457D02*
G54D40*
D03*
G36*
X449962Y705233D02*
X442184Y697455D01*
X433699Y705941D01*
X441477Y713719D01*
X449962Y705233D01*
G37*
G36*
X464364Y719635D02*
X456586Y711857D01*
X448101Y720342D01*
X455879Y728120D01*
X464364Y719635D01*
G37*
G54D42*
X415617Y695961D02*
X422829Y695961D01*
X436959Y681831D01*
X442119Y681831D01*
X449262Y688975D01*
X449262Y698155D01*
X441831Y705587D01*
X565547Y738981D02*
G54D40*
D03*
X551656Y803672D02*
G54D40*
D03*
X551656Y827881D02*
G54D40*
D03*
G54D53*
X551656Y803672D02*
X551656Y827881D01*
X731836Y809625D02*
G54D54*
D03*
X680243Y809625D02*
G54D54*
D03*
X731836Y767159D02*
G54D54*
D03*
X680247Y767154D02*
G54D54*
D03*
G36*
X542630Y728885D02*
X535559Y721813D01*
X529902Y727470D01*
X536973Y734541D01*
X542630Y728885D01*
G37*
G36*
X548804Y722711D02*
X541733Y715640D01*
X536076Y721296D01*
X543147Y728368D01*
X548804Y722711D01*
G37*
G54D42*
X446825Y775369D02*
X453753Y775369D01*
X490934Y738188D01*
X526256Y738188D01*
X536266Y728177D01*
G54D42*
X542440Y722004D02*
X550466Y713978D01*
X605234Y713978D01*
G54D42*
X680243Y809625D02*
X690959Y809625D01*
X696912Y803672D01*
X696912Y746919D01*
X675878Y725884D01*
X555228Y725884D01*
X550069Y731044D01*
X539133Y731044D01*
X536266Y728177D01*
X770088Y764395D02*
G54D51*
D03*
X758976Y765194D02*
G54D50*
D03*
G36*
X754182Y781307D02*
X762182Y781307D01*
X762182Y771307D01*
X754182Y771307D01*
X754182Y781307D01*
G37*
G54D42*
X758976Y765194D02*
X733801Y765194D01*
X731836Y767159D01*
X758182Y776307D02*
G54D40*
D03*
G54D42*
X731836Y809625D02*
X731836Y802653D01*
X758182Y776307D01*
X554829Y781051D02*
G54D55*
D03*
X503832Y781050D02*
G54D55*
D03*
X485775Y781050D02*
G54D56*
D03*
X573191Y781172D02*
G54D56*
D03*
G54D41*
X421425Y775369D02*
X421425Y788137D01*
X434578Y801291D01*
X483591Y801291D01*
X503832Y781050D01*
M02*
