%FSLAX34Y34*%
%MOMM*%
%LNSMDMASK_TOP*%
G71*
G01*
%ADD10R, 1.30X1.40*%
%ADD11R, 1.40X1.30*%
%ADD12R, 1.60X1.40*%
%ADD13R, 1.60X1.60*%
%ADD14R, 1.00X1.20*%
%ADD15R, 1.20X1.20*%
%ADD16R, 1.20X1.00*%
%ADD17R, 2.20X1.80*%
%ADD18R, 2.00X2.20*%
%ADD19R, 3.70X1.70*%
%LPD*%
X670256Y658416D02*
G54D10*
D03*
X653256Y658416D02*
G54D10*
D03*
X501188Y677466D02*
G54D10*
D03*
X484188Y677466D02*
G54D10*
D03*
X629088Y685113D02*
G54D10*
D03*
X612088Y685113D02*
G54D10*
D03*
X258762Y697772D02*
G54D11*
D03*
X258762Y714772D02*
G54D11*
D03*
X629084Y685119D02*
G54D10*
D03*
X501184Y677469D02*
G54D10*
D03*
X258764Y697769D02*
G54D11*
D03*
X415617Y695961D02*
G54D12*
D03*
X415624Y718179D02*
G54D13*
D03*
X388233Y695961D02*
G54D12*
D03*
X388229Y718194D02*
G54D13*
D03*
X369704Y709929D02*
G54D14*
D03*
X368905Y698817D02*
G54D15*
D03*
X357792Y698023D02*
G54D16*
D03*
X536972Y702072D02*
G54D14*
D03*
X545703Y702072D02*
G54D14*
D03*
G36*
X542261Y667530D02*
X533068Y658338D01*
X523169Y668238D01*
X532362Y677430D01*
X542261Y667530D01*
G37*
G36*
X556663Y681932D02*
X547470Y672740D01*
X537571Y682639D01*
X546764Y691832D01*
X556663Y681932D01*
G37*
X554369Y630634D02*
G54D10*
D03*
X537369Y630634D02*
G54D10*
D03*
X554365Y630638D02*
G54D10*
D03*
G36*
X567328Y675493D02*
X576521Y684684D01*
X586419Y674783D01*
X577226Y665592D01*
X567328Y675493D01*
G37*
G36*
X579348Y687509D02*
X588540Y696703D01*
X598440Y686804D01*
X589249Y677611D01*
X579348Y687509D01*
G37*
X647807Y685113D02*
G54D10*
D03*
X664807Y685113D02*
G54D10*
D03*
X647811Y685119D02*
G54D10*
D03*
X268852Y583635D02*
G54D11*
D03*
X268852Y600635D02*
G54D11*
D03*
X268850Y600638D02*
G54D11*
D03*
X287108Y583635D02*
G54D11*
D03*
X287108Y600635D02*
G54D11*
D03*
X287106Y600638D02*
G54D11*
D03*
X305364Y583635D02*
G54D11*
D03*
X305364Y600635D02*
G54D11*
D03*
X305362Y600638D02*
G54D11*
D03*
X323620Y583635D02*
G54D11*
D03*
X323620Y600635D02*
G54D11*
D03*
X323619Y600638D02*
G54D11*
D03*
X341877Y583635D02*
G54D11*
D03*
X341877Y600635D02*
G54D11*
D03*
X341875Y600638D02*
G54D11*
D03*
X360133Y583635D02*
G54D11*
D03*
X360133Y600635D02*
G54D11*
D03*
X360131Y600638D02*
G54D11*
D03*
X378389Y583635D02*
G54D11*
D03*
X378389Y600635D02*
G54D11*
D03*
X378387Y600638D02*
G54D11*
D03*
X396645Y583635D02*
G54D11*
D03*
X396645Y600635D02*
G54D11*
D03*
X396644Y600638D02*
G54D11*
D03*
X155742Y809457D02*
G54D11*
D03*
X155742Y826457D02*
G54D11*
D03*
X173998Y809457D02*
G54D11*
D03*
X173998Y826457D02*
G54D11*
D03*
X192255Y809457D02*
G54D11*
D03*
X192255Y826457D02*
G54D11*
D03*
X210511Y809457D02*
G54D11*
D03*
X210511Y826457D02*
G54D11*
D03*
X228767Y809457D02*
G54D11*
D03*
X228767Y826457D02*
G54D11*
D03*
X137486Y809457D02*
G54D11*
D03*
X137486Y826457D02*
G54D11*
D03*
X31188Y751516D02*
G54D10*
D03*
X48188Y751516D02*
G54D10*
D03*
X31185Y751514D02*
G54D10*
D03*
X31188Y772153D02*
G54D10*
D03*
X48188Y772153D02*
G54D10*
D03*
X31185Y772152D02*
G54D10*
D03*
G36*
X631276Y852189D02*
X622083Y842997D01*
X612184Y852896D01*
X621377Y862088D01*
X631276Y852189D01*
G37*
G36*
X619255Y840168D02*
X610063Y830976D01*
X600163Y840875D01*
X609356Y850068D01*
X619255Y840168D01*
G37*
G36*
X631272Y852195D02*
X622079Y843002D01*
X612180Y852902D01*
X621372Y862094D01*
X631272Y852195D01*
G37*
X659905Y836490D02*
G54D10*
D03*
X642905Y836490D02*
G54D10*
D03*
X659904Y836495D02*
G54D10*
D03*
X659905Y816249D02*
G54D10*
D03*
X642905Y816249D02*
G54D10*
D03*
X659904Y816255D02*
G54D10*
D03*
X656143Y886907D02*
G54D17*
D03*
X656143Y914907D02*
G54D17*
D03*
X629180Y955718D02*
G54D11*
D03*
X629180Y938718D02*
G54D11*
D03*
X629175Y955718D02*
G54D11*
D03*
G36*
X451377Y705233D02*
X442184Y696041D01*
X432285Y705941D01*
X441477Y715133D01*
X451377Y705233D01*
G37*
G36*
X465779Y719635D02*
X456586Y710443D01*
X446687Y720342D01*
X455879Y729535D01*
X465779Y719635D01*
G37*
X731836Y809625D02*
G54D18*
D03*
X680243Y809625D02*
G54D18*
D03*
X731836Y767159D02*
G54D18*
D03*
X680247Y767154D02*
G54D18*
D03*
G36*
X544044Y728885D02*
X535559Y720399D01*
X528488Y727470D01*
X536973Y735956D01*
X544044Y728885D01*
G37*
G36*
X550218Y722711D02*
X541733Y714225D01*
X534662Y721296D01*
X543147Y729782D01*
X550218Y722711D01*
G37*
X770088Y764395D02*
G54D16*
D03*
X758976Y765194D02*
G54D15*
D03*
G36*
X753182Y782307D02*
X763182Y782307D01*
X763182Y770307D01*
X753182Y770307D01*
X753182Y782307D01*
G37*
X485775Y781050D02*
G54D19*
D03*
X573191Y781172D02*
G54D19*
D03*
M02*
