%FSLAX34Y34*%
%MOMM*%
%LNSOLDERMASK_TOP*%
G71*
G01*
%ADD10R, 0.60X1.70*%
%ADD11R, 1.70X0.60*%
%ADD12R, 4.20X1.20*%
%ADD13R, 1.00X2.60*%
%ADD14R, 0.65X1.70*%
%ADD15C, 2.10*%
%ADD16R, 1.30X1.40*%
%ADD17R, 1.40X1.30*%
%ADD18C, 1.40*%
%ADD19R, 1.70X1.20*%
%ADD20C, 2.20*%
%ADD21C, 2.50*%
%ADD22C, 2.50*%
%ADD23R, 0.60X1.90*%
%ADD24R, 2.20X2.70*%
%ADD25R, 0.80X2.40*%
%ADD26R, 1.00X3.70*%
%ADD27C, 2.50*%
%LPD*%
G36*
X469062Y633612D02*
X475062Y633613D01*
X475062Y616613D01*
X469062Y616612D01*
X469062Y633612D01*
G37*
X472062Y745113D02*
G54D10*
D03*
G36*
X477062Y633612D02*
X483062Y633613D01*
X483062Y616613D01*
X477062Y616612D01*
X477062Y633612D01*
G37*
G36*
X477062Y753612D02*
X483062Y753613D01*
X483062Y736613D01*
X477062Y736612D01*
X477062Y753612D01*
G37*
X488062Y625113D02*
G54D10*
D03*
X488062Y745113D02*
G54D10*
D03*
X496062Y625113D02*
G54D10*
D03*
X496062Y745113D02*
G54D10*
D03*
X504062Y625113D02*
G54D10*
D03*
G36*
X501062Y753612D02*
X507062Y753613D01*
X507062Y736613D01*
X501062Y736612D01*
X501062Y753612D01*
G37*
G36*
X509062Y633612D02*
X515061Y633613D01*
X515062Y616613D01*
X509062Y616612D01*
X509062Y633612D01*
G37*
X512062Y745113D02*
G54D10*
D03*
G36*
X517062Y633612D02*
X523062Y633613D01*
X523062Y616613D01*
X517062Y616612D01*
X517062Y633612D01*
G37*
X520062Y745113D02*
G54D10*
D03*
G36*
X525062Y633612D02*
X531062Y633613D01*
X531062Y616613D01*
X525062Y616612D01*
X525062Y633612D01*
G37*
X528062Y745113D02*
G54D10*
D03*
G36*
X533061Y633612D02*
X539061Y633613D01*
X539063Y616613D01*
X533063Y616612D01*
X533061Y633612D01*
G37*
X536062Y745113D02*
G54D10*
D03*
G36*
X541061Y633612D02*
X547061Y633613D01*
X547062Y616613D01*
X541062Y616612D01*
X541061Y633612D01*
G37*
G36*
X541062Y753613D02*
X547062Y753613D01*
X547062Y736613D01*
X541062Y736613D01*
X541062Y753613D01*
G37*
X552062Y625113D02*
G54D10*
D03*
X552062Y745113D02*
G54D10*
D03*
X452062Y645113D02*
G54D11*
D03*
X572062Y645113D02*
G54D11*
D03*
X452062Y653113D02*
G54D11*
D03*
X572062Y653112D02*
G54D11*
D03*
X452062Y661113D02*
G54D11*
D03*
X572062Y661113D02*
G54D11*
D03*
X452062Y669112D02*
G54D11*
D03*
X572062Y669113D02*
G54D11*
D03*
X452062Y677113D02*
G54D11*
D03*
X572062Y677113D02*
G54D11*
D03*
X452062Y685113D02*
G54D11*
D03*
X572062Y685113D02*
G54D11*
D03*
X452062Y693112D02*
G54D11*
D03*
X572062Y693113D02*
G54D11*
D03*
X452062Y701113D02*
G54D11*
D03*
X572062Y701113D02*
G54D11*
D03*
X452062Y709113D02*
G54D11*
D03*
X572062Y709113D02*
G54D11*
D03*
X452062Y717112D02*
G54D11*
D03*
X572062Y717113D02*
G54D11*
D03*
X452062Y725113D02*
G54D11*
D03*
X572062Y725113D02*
G54D11*
D03*
X452066Y685115D02*
G54D11*
D03*
X572062Y693113D02*
G54D11*
D03*
X610225Y653785D02*
G54D12*
D03*
G36*
X698762Y659691D02*
X740762Y659692D01*
X740762Y647692D01*
X698762Y647691D01*
X698762Y659691D01*
G37*
X639705Y697754D02*
G54D13*
D03*
G36*
X647404Y710754D02*
X657404Y710754D01*
X657405Y684754D01*
X647405Y684754D01*
X647404Y710754D01*
G37*
G36*
X660104Y710754D02*
X670104Y710754D01*
X670105Y684754D01*
X660105Y684754D01*
X660104Y710754D01*
G37*
X677805Y697754D02*
G54D13*
D03*
G36*
X672805Y760754D02*
X682805Y760754D01*
X682805Y734754D01*
X672805Y734754D01*
X672805Y760754D01*
G37*
X665105Y747754D02*
G54D13*
D03*
X652405Y747754D02*
G54D13*
D03*
X639705Y747754D02*
G54D13*
D03*
X618233Y748029D02*
G54D14*
D03*
X611883Y748029D02*
G54D14*
D03*
X605533Y748029D02*
G54D14*
D03*
X599183Y748029D02*
G54D14*
D03*
X618233Y703182D02*
G54D14*
D03*
X611883Y703182D02*
G54D14*
D03*
X605533Y703182D02*
G54D14*
D03*
X599183Y703182D02*
G54D14*
D03*
X235197Y663507D02*
G54D15*
D03*
X260597Y663507D02*
G54D15*
D03*
X235197Y739707D02*
G54D15*
D03*
X285997Y663508D02*
G54D15*
D03*
X260597Y739707D02*
G54D15*
D03*
X285997Y739707D02*
G54D15*
D03*
X311397Y739707D02*
G54D15*
D03*
X311397Y663507D02*
G54D15*
D03*
X336797Y663507D02*
G54D15*
D03*
X336797Y739707D02*
G54D15*
D03*
X362197Y663507D02*
G54D15*
D03*
X362197Y739707D02*
G54D15*
D03*
X387597Y663507D02*
G54D15*
D03*
X387597Y739707D02*
G54D15*
D03*
X412997Y663507D02*
G54D15*
D03*
X412997Y739707D02*
G54D15*
D03*
X618234Y748025D02*
G54D14*
D03*
X677802Y697756D02*
G54D13*
D03*
X412995Y663504D02*
G54D15*
D03*
X698102Y696912D02*
G54D16*
D03*
G36*
X708602Y703912D02*
X721602Y703912D01*
X721602Y689912D01*
X708602Y689912D01*
X708602Y703912D01*
G37*
X586581Y627459D02*
G54D16*
D03*
X603581Y627459D02*
G54D16*
D03*
G36*
X691599Y703907D02*
X704599Y703908D01*
X704599Y689908D01*
X691599Y689907D01*
X691599Y703907D01*
G37*
X586584Y627455D02*
G54D16*
D03*
X696681Y738354D02*
G54D17*
D03*
X696681Y721354D02*
G54D17*
D03*
X696677Y738351D02*
G54D17*
D03*
X732056Y625741D02*
G54D18*
D03*
X706656Y625741D02*
G54D18*
D03*
X681256Y625741D02*
G54D18*
D03*
X655856Y625741D02*
G54D18*
D03*
X630456Y625741D02*
G54D18*
D03*
X584477Y603744D02*
G54D19*
D03*
X584474Y583502D02*
G54D19*
D03*
X543994Y603749D02*
G54D19*
D03*
X543993Y583502D02*
G54D19*
D03*
X446825Y622969D02*
G54D20*
D03*
X421425Y622969D02*
G54D20*
D03*
X396025Y622969D02*
G54D20*
D03*
X370625Y622969D02*
G54D20*
D03*
X446825Y775369D02*
G54D20*
D03*
X421425Y775369D02*
G54D20*
D03*
X396025Y775369D02*
G54D20*
D03*
X370625Y775369D02*
G54D20*
D03*
X345225Y622969D02*
G54D20*
D03*
X345225Y775369D02*
G54D20*
D03*
X319825Y622969D02*
G54D20*
D03*
X294425Y622969D02*
G54D20*
D03*
X319825Y775369D02*
G54D20*
D03*
X294425Y775369D02*
G54D20*
D03*
X269025Y622969D02*
G54D20*
D03*
X269025Y775369D02*
G54D20*
D03*
X243625Y622969D02*
G54D20*
D03*
X243625Y775369D02*
G54D20*
D03*
X218225Y622969D02*
G54D20*
D03*
X218225Y775369D02*
G54D20*
D03*
X192825Y775369D02*
G54D20*
D03*
X167425Y775369D02*
G54D20*
D03*
X192825Y622969D02*
G54D20*
D03*
X167425Y622969D02*
G54D20*
D03*
X446821Y622971D02*
G54D20*
D03*
X167420Y622968D02*
G54D20*
D03*
X319821Y775371D02*
G54D20*
D03*
X166853Y662946D02*
G54D17*
D03*
X166853Y645946D02*
G54D17*
D03*
X186696Y662946D02*
G54D17*
D03*
X186696Y645946D02*
G54D17*
D03*
X166851Y645951D02*
G54D17*
D03*
X186696Y645946D02*
G54D17*
D03*
X183291Y688974D02*
G54D16*
D03*
X166291Y688975D02*
G54D16*
D03*
X203762Y708653D02*
G54D17*
D03*
X203763Y725653D02*
G54D17*
D03*
X183125Y708653D02*
G54D17*
D03*
X183125Y725653D02*
G54D17*
D03*
G36*
X499118Y819007D02*
X512118Y819007D01*
X512119Y805007D01*
X499119Y805007D01*
X499118Y819007D01*
G37*
G36*
X516118Y819007D02*
X529118Y819007D01*
X529119Y805007D01*
X516119Y805007D01*
X516118Y819007D01*
G37*
X505621Y812002D02*
G54D16*
D03*
X99682Y671508D02*
G54D21*
D03*
X99693Y696913D02*
G54D21*
D03*
X99693Y747713D02*
G54D22*
D03*
X99688Y773111D02*
G54D21*
D03*
X99693Y747716D02*
G54D21*
D03*
X48883Y722321D02*
G54D21*
D03*
X350209Y818918D02*
G54D17*
D03*
X350209Y801918D02*
G54D17*
D03*
X329572Y818918D02*
G54D17*
D03*
X329572Y801918D02*
G54D17*
D03*
X329571Y818918D02*
G54D17*
D03*
X350209Y818918D02*
G54D17*
D03*
X306478Y818541D02*
G54D16*
D03*
X289478Y818541D02*
G54D16*
D03*
X306478Y798300D02*
G54D16*
D03*
X289478Y798300D02*
G54D16*
D03*
X269568Y818541D02*
G54D16*
D03*
X252568Y818541D02*
G54D16*
D03*
X269568Y798300D02*
G54D16*
D03*
X252568Y798300D02*
G54D16*
D03*
X630454Y601929D02*
G54D22*
D03*
X655856Y601928D02*
G54D22*
D03*
X681254Y601929D02*
G54D22*
D03*
X706656Y601928D02*
G54D22*
D03*
X732056Y601928D02*
G54D22*
D03*
X396644Y600638D02*
G54D17*
D03*
X396644Y583638D02*
G54D17*
D03*
X378387Y600638D02*
G54D17*
D03*
X378387Y583638D02*
G54D17*
D03*
X360131Y600638D02*
G54D17*
D03*
X360131Y583638D02*
G54D17*
D03*
X341875Y600638D02*
G54D17*
D03*
X341875Y583638D02*
G54D17*
D03*
X323619Y600638D02*
G54D17*
D03*
X323619Y583638D02*
G54D17*
D03*
X305362Y600638D02*
G54D17*
D03*
X305362Y583638D02*
G54D17*
D03*
X287106Y600638D02*
G54D17*
D03*
X287106Y583638D02*
G54D17*
D03*
X268850Y600638D02*
G54D17*
D03*
X268850Y583638D02*
G54D17*
D03*
X607781Y601034D02*
G54D17*
D03*
X607781Y584034D02*
G54D17*
D03*
X228766Y826460D02*
G54D17*
D03*
X228766Y809460D02*
G54D17*
D03*
X210509Y826460D02*
G54D17*
D03*
X210509Y809460D02*
G54D17*
D03*
X192253Y826460D02*
G54D17*
D03*
X192253Y809460D02*
G54D17*
D03*
X173997Y826460D02*
G54D17*
D03*
X173997Y809460D02*
G54D17*
D03*
X155741Y826460D02*
G54D17*
D03*
X155741Y809460D02*
G54D17*
D03*
X137484Y826460D02*
G54D17*
D03*
X137484Y809460D02*
G54D17*
D03*
X142874Y587769D02*
G54D22*
D03*
X66675Y587772D02*
G54D22*
D03*
X92075Y587772D02*
G54D22*
D03*
X117474Y587769D02*
G54D22*
D03*
X245662Y587769D02*
G54D22*
D03*
X169466Y587772D02*
G54D22*
D03*
X194866Y587772D02*
G54D22*
D03*
X220262Y587769D02*
G54D22*
D03*
X758100Y643725D02*
G54D22*
D03*
X758107Y669130D02*
G54D22*
D03*
X758107Y694530D02*
G54D22*
D03*
X758107Y719930D02*
G54D22*
D03*
X758103Y745329D02*
G54D22*
D03*
X758107Y719930D02*
G54D22*
D03*
X669732Y796085D02*
G54D23*
D03*
X663232Y796085D02*
G54D23*
D03*
G36*
X653731Y805585D02*
X659731Y805585D01*
X659732Y786585D01*
X653732Y786585D01*
X653731Y805585D01*
G37*
X650232Y796086D02*
G54D23*
D03*
X643732Y796085D02*
G54D23*
D03*
X637232Y796085D02*
G54D23*
D03*
G36*
X627731Y805585D02*
X633731Y805585D01*
X633732Y786585D01*
X627732Y786585D01*
X627731Y805585D01*
G37*
X624232Y796085D02*
G54D23*
D03*
G36*
X614731Y805585D02*
X620731Y805586D01*
X620732Y786586D01*
X614732Y786585D01*
X614731Y805585D01*
G37*
G36*
X608231Y805585D02*
X614231Y805585D01*
X614232Y786585D01*
X608232Y786585D01*
X608231Y805585D01*
G37*
X604732Y796085D02*
G54D23*
D03*
G36*
X595231Y805585D02*
X601231Y805586D01*
X601232Y786586D01*
X595232Y786585D01*
X595231Y805585D01*
G37*
X591732Y796085D02*
G54D23*
D03*
X585232Y796085D02*
G54D23*
D03*
X669732Y868085D02*
G54D23*
D03*
X663232Y868086D02*
G54D23*
D03*
G36*
X653731Y877585D02*
X659731Y877585D01*
X659732Y858585D01*
X653732Y858585D01*
X653731Y877585D01*
G37*
X650232Y868085D02*
G54D23*
D03*
G36*
X640731Y877585D02*
X646731Y877585D01*
X646732Y858585D01*
X640732Y858585D01*
X640731Y877585D01*
G37*
G36*
X634231Y877585D02*
X640231Y877585D01*
X640232Y858585D01*
X634232Y858585D01*
X634231Y877585D01*
G37*
G36*
X627731Y877585D02*
X633731Y877585D01*
X633732Y858585D01*
X627732Y858585D01*
X627731Y877585D01*
G37*
X624232Y868085D02*
G54D23*
D03*
X617732Y868085D02*
G54D23*
D03*
G36*
X608231Y877585D02*
X614231Y877585D01*
X614232Y858585D01*
X608232Y858585D01*
X608231Y877585D01*
G37*
G36*
X601731Y877585D02*
X607731Y877585D01*
X607732Y858585D01*
X601732Y858585D01*
X601731Y877585D01*
G37*
G36*
X595231Y877585D02*
X601231Y877586D01*
X601232Y858586D01*
X595232Y858585D01*
X595231Y877585D01*
G37*
X591732Y868085D02*
G54D23*
D03*
X585232Y868085D02*
G54D23*
D03*
X604731Y796088D02*
G54D23*
D03*
X630732Y868085D02*
G54D23*
D03*
X624237Y796077D02*
G54D23*
D03*
X671402Y967251D02*
G54D24*
D03*
X671402Y911688D02*
G54D24*
D03*
X582502Y911688D02*
G54D24*
D03*
X582502Y967251D02*
G54D24*
D03*
X642971Y905670D02*
G54D25*
D03*
X634971Y905670D02*
G54D25*
D03*
X626971Y905670D02*
G54D25*
D03*
X618971Y905670D02*
G54D25*
D03*
X610971Y905670D02*
G54D25*
D03*
G36*
X606971Y917670D02*
X614971Y917670D01*
X614971Y893670D01*
X606971Y893670D01*
X606971Y917670D01*
G37*
X650232Y796086D02*
G54D23*
D03*
X137486Y809457D02*
G54D17*
D03*
X155740Y809460D02*
G54D17*
D03*
X173997Y809460D02*
G54D17*
D03*
X192253Y809460D02*
G54D17*
D03*
X210509Y809460D02*
G54D17*
D03*
X228766Y809460D02*
G54D17*
D03*
X639762Y692150D02*
G54D26*
D03*
X652462Y692150D02*
G54D26*
D03*
X665162Y692150D02*
G54D26*
D03*
X677862Y692547D02*
G54D26*
D03*
X639762Y753269D02*
G54D26*
D03*
X652462Y753269D02*
G54D26*
D03*
X665162Y753269D02*
G54D26*
D03*
X677862Y753269D02*
G54D26*
D03*
X554829Y781051D02*
G54D27*
D03*
X503832Y781050D02*
G54D27*
D03*
M02*
