%FSLAX34Y34*%
%MOMM*%
%LNCOPPER_TOP*%
G71*
G01*
%ADD10R, 0.80X1.90*%
%ADD11R, 1.90X0.80*%
%ADD12C, 0.80*%
%ADD13R, 4.40X1.40*%
%ADD14R, 1.20X2.80*%
%ADD15R, 0.85X1.90*%
%ADD16C, 1.90*%
%ADD17R, 1.50X1.60*%
%ADD18C, 0.60*%
%ADD19C, 1.20*%
%ADD20R, 1.60X1.50*%
%ADD21R, 1.90X1.40*%
%ADD22C, 0.50*%
%ADD23C, 1.00*%
%ADD24C, 2.00*%
%ADD25C, 2.50*%
%ADD26C, 2.50*%
%ADD27C, 4.20*%
%ADD28C, 2.30*%
%ADD29C, 0.40*%
%ADD30R, 0.80X2.10*%
%ADD31R, 2.40X2.90*%
%ADD32C, 1.20*%
%ADD33R, 1.00X2.60*%
%ADD34R, 1.20X3.90*%
%ADD35C, 2.30*%
%ADD36C, 0.70*%
%ADD37C, 0.45*%
%ADD38C, 0.37*%
%ADD39C, 0.27*%
%ADD40C, 0.53*%
%ADD41C, 0.63*%
%ADD42R, 0.40X1.50*%
%ADD43R, 1.50X0.40*%
%ADD44R, 4.00X1.00*%
%ADD45R, 0.80X2.40*%
%ADD46R, 0.45X1.50*%
%ADD47C, 1.50*%
%ADD48R, 1.10X1.20*%
%ADD49C, 0.20*%
%ADD50C, 0.80*%
%ADD51R, 1.20X1.10*%
%ADD52R, 1.50X1.00*%
%ADD53C, 0.10*%
%ADD54C, 1.60*%
%ADD55C, 1.90*%
%ADD56C, 1.90*%
%ADD57C, 4.00*%
%ADD58R, 0.40X1.70*%
%ADD59R, 2.00X2.50*%
%ADD60R, 0.60X2.20*%
%ADD61R, 0.80X3.50*%
%ADD62C, 1.90*%
%ADD63C, 0.30*%
%LPD*%
G36*
X0Y1000000D02*
X795000Y1000000D01*
X795000Y556000D01*
X0Y556000D01*
X0Y1000000D01*
G37*
%LPC*%
G36*
X468062Y634612D02*
X476061Y634613D01*
X476062Y615613D01*
X468062Y615612D01*
X468062Y634612D01*
G37*
X472062Y745113D02*
G54D10*
D03*
G36*
X476062Y634612D02*
X484062Y634613D01*
X484062Y615613D01*
X476062Y615612D01*
X476062Y634612D01*
G37*
G36*
X476062Y754612D02*
X484062Y754613D01*
X484062Y735613D01*
X476062Y735612D01*
X476062Y754612D01*
G37*
X488062Y625113D02*
G54D10*
D03*
X488062Y745113D02*
G54D10*
D03*
X496062Y625113D02*
G54D10*
D03*
X496062Y745113D02*
G54D10*
D03*
X504062Y625113D02*
G54D10*
D03*
G36*
X500062Y754612D02*
X508062Y754613D01*
X508062Y735613D01*
X500062Y735612D01*
X500062Y754612D01*
G37*
G36*
X508061Y634612D02*
X516061Y634613D01*
X516062Y615613D01*
X508062Y615612D01*
X508061Y634612D01*
G37*
X512062Y745113D02*
G54D10*
D03*
G36*
X516062Y634612D02*
X524062Y634613D01*
X524062Y615613D01*
X516062Y615612D01*
X516062Y634612D01*
G37*
X520062Y745113D02*
G54D10*
D03*
G36*
X524062Y634612D02*
X532062Y634613D01*
X532062Y615613D01*
X524062Y615612D01*
X524062Y634612D01*
G37*
X528062Y745113D02*
G54D10*
D03*
G36*
X532061Y634612D02*
X540061Y634613D01*
X540063Y615613D01*
X532063Y615612D01*
X532061Y634612D01*
G37*
X536062Y745113D02*
G54D10*
D03*
G36*
X540061Y634612D02*
X548061Y634613D01*
X548062Y615613D01*
X540062Y615612D01*
X540061Y634612D01*
G37*
G36*
X540062Y754613D02*
X548062Y754613D01*
X548062Y735613D01*
X540062Y735613D01*
X540062Y754613D01*
G37*
X552062Y625113D02*
G54D10*
D03*
X552062Y745113D02*
G54D10*
D03*
X452062Y645113D02*
G54D11*
D03*
X572062Y645113D02*
G54D11*
D03*
X452062Y653113D02*
G54D11*
D03*
X572062Y653112D02*
G54D11*
D03*
X452062Y661113D02*
G54D11*
D03*
X572062Y661113D02*
G54D11*
D03*
X452062Y669112D02*
G54D11*
D03*
X572062Y669113D02*
G54D11*
D03*
X452062Y677113D02*
G54D11*
D03*
X572062Y677113D02*
G54D11*
D03*
X452062Y685113D02*
G54D11*
D03*
X572062Y685113D02*
G54D11*
D03*
X452062Y693112D02*
G54D11*
D03*
X572062Y693113D02*
G54D11*
D03*
X452062Y701113D02*
G54D11*
D03*
X572062Y701113D02*
G54D11*
D03*
X452062Y709113D02*
G54D11*
D03*
X572062Y709113D02*
G54D11*
D03*
X452062Y717112D02*
G54D11*
D03*
X572062Y717113D02*
G54D11*
D03*
X452062Y725113D02*
G54D11*
D03*
X572062Y725113D02*
G54D11*
D03*
G54D12*
X455131Y677169D02*
X519424Y677169D01*
X527362Y685106D01*
X568637Y685106D01*
X452066Y685115D02*
G54D11*
D03*
X572062Y693113D02*
G54D11*
D03*
X610225Y653785D02*
G54D13*
D03*
G36*
X697762Y660691D02*
X741762Y660692D01*
X741762Y646692D01*
X697762Y646691D01*
X697762Y660691D01*
G37*
X639705Y697754D02*
G54D14*
D03*
G36*
X646404Y711754D02*
X658404Y711754D01*
X658405Y683754D01*
X646405Y683754D01*
X646404Y711754D01*
G37*
G36*
X659104Y711754D02*
X671104Y711754D01*
X671105Y683754D01*
X659105Y683754D01*
X659104Y711754D01*
G37*
X677805Y697754D02*
G54D14*
D03*
G36*
X671805Y761754D02*
X683805Y761754D01*
X683805Y733754D01*
X671805Y733754D01*
X671805Y761754D01*
G37*
X665105Y747754D02*
G54D14*
D03*
X652405Y747754D02*
G54D14*
D03*
X639705Y747754D02*
G54D14*
D03*
X618233Y748029D02*
G54D15*
D03*
X611883Y748029D02*
G54D15*
D03*
X605533Y748029D02*
G54D15*
D03*
X599183Y748029D02*
G54D15*
D03*
X618233Y703182D02*
G54D15*
D03*
X611883Y703182D02*
G54D15*
D03*
X605533Y703182D02*
G54D15*
D03*
X599183Y703182D02*
G54D15*
D03*
X235197Y663507D02*
G54D16*
D03*
X260597Y663507D02*
G54D16*
D03*
X235197Y739707D02*
G54D16*
D03*
X285997Y663508D02*
G54D16*
D03*
X260597Y739707D02*
G54D16*
D03*
X285997Y739707D02*
G54D16*
D03*
X311397Y739707D02*
G54D16*
D03*
X311397Y663507D02*
G54D16*
D03*
X336797Y663507D02*
G54D16*
D03*
X336797Y739707D02*
G54D16*
D03*
X362197Y663507D02*
G54D16*
D03*
X362197Y739707D02*
G54D16*
D03*
X387597Y663507D02*
G54D16*
D03*
X387597Y739707D02*
G54D16*
D03*
X412997Y663507D02*
G54D16*
D03*
X412997Y739707D02*
G54D16*
D03*
X618234Y748025D02*
G54D15*
D03*
X677802Y697756D02*
G54D14*
D03*
X412995Y663504D02*
G54D16*
D03*
X698102Y696912D02*
G54D17*
D03*
G36*
X707602Y704912D02*
X722602Y704912D01*
X722602Y688912D01*
X707602Y688912D01*
X707602Y704912D01*
G37*
X586581Y627459D02*
G54D17*
D03*
X603581Y627459D02*
G54D17*
D03*
G36*
X690599Y704907D02*
X705599Y704908D01*
X705599Y688908D01*
X690599Y688907D01*
X690599Y704907D01*
G37*
X586584Y627455D02*
G54D17*
D03*
G54D18*
X496062Y745113D02*
X495999Y736506D01*
X494109Y734616D01*
X468312Y734616D01*
X442119Y760809D01*
X317500Y760809D01*
X311547Y754856D01*
X311547Y742636D01*
X311397Y742486D01*
G54D18*
X504062Y745113D02*
X503999Y736965D01*
X497681Y730647D01*
X466725Y730647D01*
X440531Y756841D01*
X342900Y756841D01*
X336947Y750888D01*
X336947Y742636D01*
X336797Y742486D01*
G54D18*
X512062Y745113D02*
X511999Y735440D01*
X503238Y726678D01*
X465138Y726678D01*
X438944Y752872D01*
X369094Y752872D01*
X362347Y746125D01*
X362347Y741048D01*
X362197Y740898D01*
G54D18*
X452062Y709113D02*
X263422Y709113D01*
X234950Y680641D01*
X234950Y663754D01*
X235197Y663507D01*
G54D18*
X260597Y739707D02*
X260597Y722860D01*
X270272Y713184D01*
X439738Y713184D01*
X443706Y717153D01*
X452021Y717153D01*
X452062Y717112D01*
G54D18*
X452062Y701113D02*
X443078Y701113D01*
X438944Y705247D01*
X279400Y705247D01*
X260747Y686594D01*
X260747Y663658D01*
X260597Y663507D01*
G54D18*
X452062Y693112D02*
X445522Y693112D01*
X437356Y701278D01*
X299244Y701278D01*
X285353Y687388D01*
X285353Y664151D01*
X285997Y663508D01*
X519906Y731441D02*
G54D19*
D03*
G54D18*
X520062Y745113D02*
X520062Y731596D01*
X519906Y731441D01*
G54D18*
X452062Y669112D02*
X443725Y669112D01*
X425450Y687388D01*
X347266Y687388D01*
X337344Y677466D01*
X337344Y664054D01*
X336797Y663507D01*
G54D18*
X452062Y661113D02*
X446169Y661113D01*
X423862Y683419D01*
X369491Y683419D01*
X362347Y676275D01*
X362347Y663658D01*
X362197Y663507D01*
X258762Y714772D02*
G54D19*
D03*
X273844Y719931D02*
G54D19*
D03*
X436959Y720328D02*
G54D19*
D03*
X484188Y677466D02*
G54D19*
D03*
G54D12*
X235197Y739707D02*
X235197Y738338D01*
X258762Y714772D01*
G54D12*
X273844Y719931D02*
X436562Y719931D01*
X436959Y720328D01*
G54D18*
X528062Y745113D02*
X528062Y756265D01*
X537766Y765969D01*
X600869Y765969D01*
X606028Y760809D01*
X606028Y752889D01*
X605533Y748029D01*
X521097Y758428D02*
G54D19*
D03*
G54D18*
X488062Y745113D02*
X488062Y754762D01*
X491728Y758428D01*
X521097Y758428D01*
G54D18*
X536062Y745113D02*
X536062Y757915D01*
X540147Y762000D01*
X595312Y762000D01*
X598884Y758428D01*
X598884Y748328D01*
X599183Y748029D01*
G54D12*
X639705Y747754D02*
X652405Y747754D01*
X652405Y731498D01*
X665162Y718741D01*
X665162Y697812D01*
X665105Y697754D01*
X605631Y737394D02*
G54D19*
D03*
X665162Y737394D02*
G54D19*
D03*
G54D18*
X652405Y697754D02*
X652405Y717608D01*
X639762Y730250D01*
X601266Y730250D01*
X577056Y754459D01*
X577056Y754459D02*
G54D19*
D03*
G54D18*
X544062Y745113D02*
X544062Y753612D01*
X548481Y758031D01*
X563562Y758031D01*
X574675Y746919D01*
X579041Y746919D01*
X599678Y726281D01*
X631428Y726281D01*
X639366Y718344D01*
X639366Y698093D01*
X639705Y697754D01*
G54D12*
X572062Y685113D02*
X612088Y685113D01*
X618331Y691356D01*
X618331Y703084D01*
X618233Y703182D01*
X605234Y713978D02*
G54D19*
D03*
X430212Y728266D02*
G54D19*
D03*
X465931Y707231D02*
G54D19*
D03*
G54D18*
X285997Y739707D02*
X285997Y734766D01*
X295672Y725091D01*
X427038Y725091D01*
X430212Y728266D01*
X585788Y707231D02*
G54D19*
D03*
X558403Y705247D02*
G54D19*
D03*
G54D18*
X572062Y701113D02*
X562537Y701113D01*
X558403Y705247D01*
G54D18*
X572062Y709113D02*
X583906Y709113D01*
X585788Y707231D01*
X719762Y653692D02*
G54D19*
D03*
X610225Y653785D02*
G54D19*
D03*
G54D18*
X603581Y627459D02*
X603581Y647142D01*
X610225Y653785D01*
X696681Y738354D02*
G54D20*
D03*
X696681Y721354D02*
G54D20*
D03*
X696677Y738351D02*
G54D20*
D03*
G54D12*
X665162Y718741D02*
X694069Y718741D01*
X696681Y721354D01*
X612088Y685113D02*
G54D19*
D03*
X463947Y749300D02*
G54D19*
D03*
X479822Y719534D02*
G54D19*
D03*
G54D18*
X479822Y719534D02*
X467122Y719534D01*
X461566Y725091D01*
X452084Y725091D01*
X452062Y725113D01*
G54D18*
X472062Y745113D02*
X468134Y745113D01*
X463947Y749300D01*
G54D18*
X715102Y696912D02*
X715102Y658351D01*
X719762Y653692D01*
X732056Y625741D02*
G54D19*
D03*
X706656Y625741D02*
G54D19*
D03*
X681256Y625741D02*
G54D19*
D03*
X655856Y625741D02*
G54D19*
D03*
X630456Y625741D02*
G54D19*
D03*
X533400Y653653D02*
G54D19*
D03*
G54D18*
X520062Y625113D02*
X520062Y640315D01*
X533400Y653653D01*
X550069Y646509D02*
G54D19*
D03*
G54D18*
X512062Y625112D02*
X512062Y643030D01*
X531019Y661988D01*
X544512Y661988D01*
X550069Y656431D01*
X550069Y646509D01*
X670256Y658416D02*
G54D19*
D03*
X653256Y658416D02*
G54D19*
D03*
G54D18*
X670256Y658416D02*
X670256Y649353D01*
X675878Y643731D01*
X694134Y643731D01*
X705247Y632619D01*
X725178Y632619D01*
X732056Y625741D01*
G54D12*
X706656Y625741D02*
X704584Y625741D01*
X691753Y638572D01*
X673100Y638572D01*
X653256Y658416D01*
X514747Y718344D02*
G54D19*
D03*
X584477Y603744D02*
G54D21*
D03*
X584474Y583502D02*
G54D21*
D03*
X543994Y603749D02*
G54D21*
D03*
X543993Y583502D02*
G54D21*
D03*
X465534Y653256D02*
G54D19*
D03*
G54D18*
X452062Y653113D02*
X465391Y653113D01*
X465534Y653256D01*
X281781Y698103D02*
G54D19*
D03*
X434580Y694140D02*
G54D19*
D03*
G54D18*
X281781Y698103D02*
X281781Y695722D01*
G54D22*
G75*
G01X17066Y839391D02*
G03X1588Y823913I0J-15478D01*
G01*
G54D22*
X17066Y839391D02*
X553894Y839371D01*
G54D22*
X1588Y823913D02*
X1444Y577433D01*
G54D22*
G75*
G01X1444Y577433D02*
G03X16922Y561955I15478J0D01*
G01*
G54D22*
G75*
G01X794544Y823913D02*
G03X779066Y839391I-15478J0D01*
G01*
G54D22*
X794544Y823913D02*
X794689Y577433D01*
G54D22*
G75*
G01X779211Y561955D02*
G03X794689Y577433I0J15478D01*
G01*
G54D22*
X16922Y561955D02*
X779211Y561955D01*
X677805Y747754D02*
G54D19*
D03*
X492919Y765572D02*
G54D19*
D03*
G54D18*
X480062Y745113D02*
X480062Y752715D01*
X492919Y765572D01*
X613114Y761645D02*
G54D19*
D03*
G54D23*
X611883Y748029D02*
X611883Y760414D01*
X613114Y761645D01*
G54D18*
X504062Y625113D02*
X504062Y640984D01*
X529431Y666353D01*
X546100Y666353D01*
X558403Y654050D01*
X558403Y642541D01*
X562372Y638572D01*
X592138Y638572D01*
X595312Y635397D01*
X595312Y618331D01*
X599281Y614362D01*
X619077Y614362D01*
X630456Y625741D01*
X446825Y622969D02*
G54D24*
D03*
X421425Y622969D02*
G54D24*
D03*
X396025Y622969D02*
G54D24*
D03*
X370625Y622969D02*
G54D24*
D03*
X446825Y775369D02*
G54D24*
D03*
X421425Y775369D02*
G54D24*
D03*
X396025Y775369D02*
G54D24*
D03*
X370625Y775369D02*
G54D24*
D03*
X345225Y622969D02*
G54D24*
D03*
X345225Y775369D02*
G54D24*
D03*
X319825Y622969D02*
G54D24*
D03*
X294425Y622969D02*
G54D24*
D03*
X319825Y775369D02*
G54D24*
D03*
X294425Y775369D02*
G54D24*
D03*
X269025Y622969D02*
G54D24*
D03*
X269025Y775369D02*
G54D24*
D03*
X243625Y622969D02*
G54D24*
D03*
X243625Y775369D02*
G54D24*
D03*
X218225Y622969D02*
G54D24*
D03*
X218225Y775369D02*
G54D24*
D03*
X192825Y775369D02*
G54D24*
D03*
X167425Y775369D02*
G54D24*
D03*
X192825Y622969D02*
G54D24*
D03*
X167425Y622969D02*
G54D24*
D03*
X446821Y622971D02*
G54D24*
D03*
X167420Y622968D02*
G54D24*
D03*
X281781Y698103D02*
G54D19*
D03*
X302022Y694134D02*
G54D19*
D03*
X311944Y694134D02*
G54D19*
D03*
X321866Y694134D02*
G54D19*
D03*
X331788Y694134D02*
G54D19*
D03*
G54D18*
X281781Y698103D02*
X281781Y695722D01*
X223838Y673894D02*
G54D19*
D03*
G54D18*
X331788Y694134D02*
X331788Y674291D01*
X326231Y668734D01*
X326231Y658416D01*
X334169Y650478D01*
X410369Y650478D01*
X421878Y638969D01*
X421878Y623422D01*
X421425Y622969D01*
G54D18*
X321866Y694134D02*
X321866Y657225D01*
X332581Y646509D01*
X388144Y646509D01*
X396081Y638572D01*
X396081Y623025D01*
X396025Y622969D01*
G54D18*
X311944Y694134D02*
X311944Y680244D01*
X300831Y669131D01*
X300831Y658416D01*
X316706Y642541D01*
X364728Y642541D01*
X370681Y636588D01*
X370681Y623026D01*
X370625Y622969D01*
G54D18*
X302022Y694134D02*
X302022Y676275D01*
X296862Y671116D01*
X296862Y656431D01*
X314722Y638572D01*
X342106Y638572D01*
X345281Y635397D01*
X345281Y623026D01*
X345225Y622969D01*
G54D18*
X281781Y698103D02*
X281781Y694928D01*
X275034Y688181D01*
X275034Y658812D01*
X282972Y650875D01*
X291919Y650875D01*
X319825Y622969D01*
G54D18*
X235197Y663507D02*
X245336Y663507D01*
X257572Y651272D01*
X277019Y651272D01*
X294481Y633809D01*
X294481Y623026D01*
X294425Y622969D01*
G54D18*
X223838Y673894D02*
X223838Y658416D01*
X230188Y652066D01*
X248047Y652066D01*
X256778Y643334D01*
X263128Y643334D01*
X269478Y636984D01*
X269478Y623422D01*
X269025Y622969D01*
X438944Y644922D02*
G54D19*
D03*
G54D18*
X440134Y644922D02*
X451871Y644922D01*
X452062Y645113D01*
X496094Y644525D02*
G54D19*
D03*
X488156Y637381D02*
G54D19*
D03*
G54D18*
X488156Y637381D02*
X488156Y625207D01*
X488062Y625113D01*
G54D18*
X496094Y644525D02*
X496094Y625144D01*
X496062Y625113D01*
G54D18*
X611883Y703182D02*
X618233Y703182D01*
X493712Y705247D02*
G54D19*
D03*
X436166Y745728D02*
G54D19*
D03*
G54D18*
X436166Y745728D02*
X435769Y745728D01*
X419100Y729059D01*
X303212Y729059D01*
X298847Y733425D01*
X298847Y745728D01*
X291703Y752872D01*
X204391Y752872D01*
X192484Y764778D01*
X192484Y775028D01*
X192825Y775369D01*
X421084Y650081D02*
G54D19*
D03*
G54D18*
X421084Y650081D02*
X421084Y645319D01*
X425847Y640556D01*
X425847Y634603D01*
X434181Y626269D01*
X434181Y614759D01*
X440531Y608409D01*
X524272Y608409D01*
X528241Y612378D01*
X528241Y624934D01*
X528062Y625112D01*
X319821Y775371D02*
G54D24*
D03*
X166853Y662946D02*
G54D20*
D03*
X166853Y645946D02*
G54D20*
D03*
X216297Y666750D02*
G54D19*
D03*
G54D18*
X243625Y622969D02*
X243625Y640613D01*
X236141Y648097D01*
X227806Y648097D01*
X216297Y659606D01*
X216297Y666750D01*
X186696Y662946D02*
G54D20*
D03*
X186696Y645946D02*
G54D20*
D03*
X166851Y645951D02*
G54D20*
D03*
X186696Y645946D02*
G54D20*
D03*
X186696Y662946D02*
G54D19*
D03*
G54D18*
X186696Y662946D02*
X166853Y662946D01*
X183291Y688974D02*
G54D17*
D03*
X166291Y688975D02*
G54D17*
D03*
G54D18*
X166853Y662946D02*
X166853Y688412D01*
X166291Y688974D01*
X203762Y708653D02*
G54D20*
D03*
X203763Y725653D02*
G54D20*
D03*
X183125Y708653D02*
G54D20*
D03*
X183125Y725653D02*
G54D20*
D03*
G54D18*
X183291Y688974D02*
X183291Y708487D01*
X183125Y708653D01*
X203762Y708653D01*
G36*
X498118Y820007D02*
X513118Y820007D01*
X513119Y804007D01*
X498119Y804007D01*
X498118Y820007D01*
G37*
G36*
X515118Y820007D02*
X530118Y820007D01*
X530119Y804007D01*
X515119Y804007D01*
X515118Y820007D01*
G37*
X505621Y812002D02*
G54D17*
D03*
X99682Y671508D02*
G54D25*
D03*
X99693Y696913D02*
G54D25*
D03*
X99693Y747713D02*
G54D26*
D03*
X99688Y773111D02*
G54D25*
D03*
X99693Y747716D02*
G54D25*
D03*
X48883Y722321D02*
G54D25*
D03*
X350209Y818918D02*
G54D20*
D03*
X350209Y801918D02*
G54D20*
D03*
X329572Y818918D02*
G54D20*
D03*
X329572Y801918D02*
G54D20*
D03*
G54D18*
X370625Y775369D02*
X370625Y781502D01*
X350209Y801918D01*
G54D18*
X329572Y801918D02*
X329572Y791022D01*
X345225Y775369D01*
X329571Y818918D02*
G54D20*
D03*
X350209Y818918D02*
G54D20*
D03*
X306478Y818541D02*
G54D17*
D03*
X289478Y818541D02*
G54D17*
D03*
X306478Y798300D02*
G54D17*
D03*
X289478Y798300D02*
G54D17*
D03*
G54D18*
X306478Y798300D02*
X325954Y798300D01*
X329572Y801918D01*
G54D18*
X306478Y818541D02*
X308584Y818541D01*
X316706Y810419D01*
X341709Y810419D01*
X350209Y801918D01*
X269568Y818541D02*
G54D17*
D03*
X252568Y818541D02*
G54D17*
D03*
X269568Y798300D02*
G54D17*
D03*
X252568Y798300D02*
G54D17*
D03*
G54D18*
X289478Y818541D02*
X269568Y818541D01*
G54D18*
X269568Y798300D02*
X289478Y798300D01*
X180181Y788591D02*
G54D19*
D03*
X203763Y725653D02*
G54D19*
D03*
X30956Y810022D02*
G54D27*
D03*
G54D18*
X605533Y703182D02*
X605533Y713679D01*
X605234Y713978D01*
X442912Y738188D02*
G54D19*
D03*
G54D18*
X436959Y720328D02*
X436959Y732234D01*
X442912Y738188D01*
X536972Y702072D02*
G54D19*
D03*
G54D18*
X572062Y717113D02*
X536931Y717113D01*
X525066Y705247D01*
X493712Y705247D01*
G54D18*
X465931Y707231D02*
X475059Y707231D01*
X484981Y697309D01*
X532209Y697309D01*
X536972Y702072D01*
X630454Y601929D02*
G54D28*
D03*
X655856Y601928D02*
G54D28*
D03*
X681254Y601929D02*
G54D28*
D03*
X706656Y601928D02*
G54D28*
D03*
X732056Y601928D02*
G54D28*
D03*
G54D18*
X630456Y625741D02*
X630454Y601929D01*
G54D18*
X655856Y625741D02*
X655856Y601928D01*
G54D18*
X706656Y625741D02*
X706656Y601928D01*
G54D18*
X732056Y625741D02*
X732056Y601928D01*
X558403Y677069D02*
G54D19*
D03*
G54D18*
X572062Y677113D02*
X558447Y677113D01*
X558403Y677069D01*
X584597Y669131D02*
G54D19*
D03*
G54D18*
X572062Y669113D02*
X584578Y669113D01*
X584597Y669131D01*
X396644Y600638D02*
G54D20*
D03*
X396644Y583638D02*
G54D20*
D03*
X378387Y600638D02*
G54D20*
D03*
X378387Y583638D02*
G54D20*
D03*
X360131Y600638D02*
G54D20*
D03*
X360131Y583638D02*
G54D20*
D03*
X341875Y600638D02*
G54D20*
D03*
X341875Y583638D02*
G54D20*
D03*
X323619Y600638D02*
G54D20*
D03*
X323619Y583638D02*
G54D20*
D03*
X305362Y600638D02*
G54D20*
D03*
X305362Y583638D02*
G54D20*
D03*
X287106Y600638D02*
G54D20*
D03*
X287106Y583638D02*
G54D20*
D03*
X268850Y600638D02*
G54D20*
D03*
X268850Y583638D02*
G54D20*
D03*
X396645Y583635D02*
G54D19*
D03*
X378389Y583635D02*
G54D19*
D03*
X360133Y583635D02*
G54D19*
D03*
X341877Y583635D02*
G54D19*
D03*
X323620Y583635D02*
G54D19*
D03*
X305364Y583635D02*
G54D19*
D03*
X287108Y583635D02*
G54D19*
D03*
X268852Y583635D02*
G54D19*
D03*
G54D18*
X305362Y600638D02*
X305362Y612031D01*
X294425Y622969D01*
G54D18*
X323619Y600638D02*
X323619Y619175D01*
X319825Y622969D01*
G54D18*
X341877Y600635D02*
X341877Y619621D01*
X345225Y622969D01*
G54D18*
X360133Y600635D02*
X360133Y612477D01*
X370625Y622969D01*
G54D18*
X287106Y600638D02*
X287106Y604888D01*
X269025Y622969D01*
G54D18*
X378387Y600638D02*
X378387Y605332D01*
X396025Y622969D01*
G54D18*
X536062Y625112D02*
X536062Y615669D01*
X538956Y612775D01*
X558403Y612775D01*
X564356Y606822D01*
X564356Y603619D01*
X584474Y583502D01*
X607781Y601034D02*
G54D20*
D03*
X607781Y584034D02*
G54D20*
D03*
X607781Y601034D02*
G54D19*
D03*
G54D18*
X607781Y584034D02*
X585006Y584034D01*
X584474Y583502D01*
X584477Y603744D02*
G54D19*
D03*
X228766Y826460D02*
G54D20*
D03*
X228766Y809460D02*
G54D20*
D03*
X210509Y826460D02*
G54D20*
D03*
X210509Y809460D02*
G54D20*
D03*
X192253Y826460D02*
G54D20*
D03*
X192253Y809460D02*
G54D20*
D03*
X173997Y826460D02*
G54D20*
D03*
X173997Y809460D02*
G54D20*
D03*
X155741Y826460D02*
G54D20*
D03*
X155741Y809460D02*
G54D20*
D03*
G54D18*
X183125Y725653D02*
X183125Y728100D01*
X180181Y731044D01*
X180181Y778669D01*
X187722Y786209D01*
X240477Y786209D01*
X252568Y798300D01*
G54D18*
X252568Y818541D02*
X252568Y815734D01*
X241300Y804466D01*
X241300Y792956D01*
X238522Y790178D01*
X181769Y790178D01*
X180181Y788591D01*
X137484Y826460D02*
G54D20*
D03*
X137484Y809460D02*
G54D20*
D03*
X214081Y676837D02*
G54D19*
D03*
G54D18*
X192825Y622969D02*
X195138Y622969D01*
X206375Y634206D01*
X206375Y669131D01*
X214081Y676837D01*
X142874Y587769D02*
G54D28*
D03*
X66675Y587772D02*
G54D28*
D03*
X92075Y587772D02*
G54D28*
D03*
X117474Y587769D02*
G54D28*
D03*
X30956Y591344D02*
G54D27*
D03*
X245662Y587769D02*
G54D28*
D03*
X169466Y587772D02*
G54D28*
D03*
X194866Y587772D02*
G54D28*
D03*
X220262Y587769D02*
G54D28*
D03*
X765175Y591344D02*
G54D27*
D03*
G54D29*
X243625Y622969D02*
X246519Y622969D01*
X268850Y600638D01*
G54D18*
X396644Y600638D02*
X399093Y600638D01*
X421425Y622969D01*
G54D18*
X183125Y725653D02*
X166059Y725653D01*
X124222Y683816D01*
X124222Y644128D01*
X92472Y612378D01*
X92472Y588168D01*
X92075Y587772D01*
G54D18*
X203762Y725653D02*
X201778Y725653D01*
X193278Y717153D01*
X163116Y717153D01*
X128191Y682228D01*
X128191Y636588D01*
X155575Y609203D01*
X173434Y609203D01*
X194866Y587772D01*
G54D18*
X66675Y587772D02*
X66675Y581422D01*
X74612Y573484D01*
X155178Y573484D01*
X169466Y587772D01*
X198206Y693903D02*
G54D19*
D03*
G54D18*
X198206Y693903D02*
X218843Y693903D01*
X239712Y714772D01*
X258762Y714772D01*
X142643Y712556D02*
G54D19*
D03*
G54D18*
X142643Y712556D02*
X142643Y708190D01*
X120253Y685800D01*
X120253Y646112D01*
X69056Y594916D01*
X69056Y590153D01*
X66675Y587772D01*
X765175Y810419D02*
G54D27*
D03*
X758100Y643725D02*
G54D28*
D03*
X758107Y669130D02*
G54D28*
D03*
X758107Y694530D02*
G54D28*
D03*
X758107Y719930D02*
G54D28*
D03*
X758103Y745329D02*
G54D28*
D03*
X758107Y719930D02*
G54D28*
D03*
X696681Y721354D02*
G54D19*
D03*
G54D18*
X99688Y773111D02*
X135666Y773111D01*
X183125Y725653D01*
G54D18*
X180181Y788591D02*
X80169Y788591D01*
X48419Y756841D01*
X48419Y722786D01*
X48883Y722321D01*
X230584Y722709D02*
G54D19*
D03*
X669732Y796085D02*
G54D30*
D03*
X663232Y796085D02*
G54D30*
D03*
G36*
X652731Y806585D02*
X660731Y806586D01*
X660732Y785586D01*
X652732Y785585D01*
X652731Y806585D01*
G37*
X650232Y796086D02*
G54D30*
D03*
X643732Y796085D02*
G54D30*
D03*
X637232Y796085D02*
G54D30*
D03*
G36*
X626731Y806585D02*
X634731Y806586D01*
X634732Y785586D01*
X626732Y785585D01*
X626731Y806585D01*
G37*
X624232Y796085D02*
G54D30*
D03*
G36*
X613731Y806585D02*
X621731Y806586D01*
X621732Y785586D01*
X613732Y785585D01*
X613731Y806585D01*
G37*
G36*
X607231Y806585D02*
X615231Y806586D01*
X615232Y785586D01*
X607232Y785585D01*
X607231Y806585D01*
G37*
X604732Y796085D02*
G54D30*
D03*
G36*
X594231Y806585D02*
X602231Y806586D01*
X602232Y785586D01*
X594232Y785585D01*
X594231Y806585D01*
G37*
X591732Y796085D02*
G54D30*
D03*
X585232Y796085D02*
G54D30*
D03*
X669732Y868085D02*
G54D30*
D03*
X663232Y868086D02*
G54D30*
D03*
G36*
X652731Y878585D02*
X660731Y878586D01*
X660732Y857586D01*
X652732Y857585D01*
X652731Y878585D01*
G37*
X650232Y868085D02*
G54D30*
D03*
G36*
X639731Y878585D02*
X647731Y878585D01*
X647732Y857585D01*
X639732Y857585D01*
X639731Y878585D01*
G37*
G36*
X633231Y878585D02*
X641231Y878586D01*
X641232Y857586D01*
X633232Y857585D01*
X633231Y878585D01*
G37*
G36*
X626731Y878585D02*
X634731Y878586D01*
X634732Y857586D01*
X626732Y857585D01*
X626731Y878585D01*
G37*
X624232Y868085D02*
G54D30*
D03*
X617732Y868085D02*
G54D30*
D03*
G36*
X607231Y878585D02*
X615231Y878586D01*
X615232Y857586D01*
X607232Y857585D01*
X607231Y878585D01*
G37*
G36*
X600731Y878585D02*
X608731Y878586D01*
X608732Y857586D01*
X600732Y857585D01*
X600731Y878585D01*
G37*
G36*
X594231Y878585D02*
X602231Y878586D01*
X602232Y857586D01*
X594232Y857585D01*
X594231Y878585D01*
G37*
X591732Y868085D02*
G54D30*
D03*
X585232Y868085D02*
G54D30*
D03*
X604731Y796088D02*
G54D30*
D03*
X630732Y868085D02*
G54D30*
D03*
X624237Y796077D02*
G54D30*
D03*
X671402Y967251D02*
G54D31*
D03*
X671402Y911688D02*
G54D31*
D03*
X582502Y911688D02*
G54D31*
D03*
X582502Y967251D02*
G54D31*
D03*
X649177Y936295D02*
G54D32*
D03*
X605521Y936295D02*
G54D32*
D03*
X642971Y905670D02*
G54D33*
D03*
X634971Y905670D02*
G54D33*
D03*
X626971Y905670D02*
G54D33*
D03*
X618971Y905670D02*
G54D33*
D03*
X610971Y905670D02*
G54D33*
D03*
G36*
X605971Y918670D02*
X615971Y918670D01*
X615971Y892670D01*
X605971Y892670D01*
X605971Y918670D01*
G37*
X627062Y920750D02*
G54D19*
D03*
G54D18*
X626971Y905670D02*
X626971Y920658D01*
X627062Y920750D01*
X635000Y890191D02*
G54D19*
D03*
G54D18*
X635000Y890191D02*
X635000Y905640D01*
X634971Y905670D01*
X584994Y812006D02*
G54D19*
D03*
X591741Y821134D02*
G54D19*
D03*
G54D18*
X591732Y796085D02*
X591732Y821126D01*
X591741Y821134D01*
G54D18*
X585232Y796085D02*
X585232Y811768D01*
X584994Y812006D01*
X598488Y828675D02*
G54D19*
D03*
G54D18*
X598628Y796085D02*
X598628Y828419D01*
X598884Y828675D01*
G54D18*
X650232Y868085D02*
X650232Y857004D01*
X617538Y824309D01*
X617538Y796280D01*
X617732Y796086D01*
X617538Y824309D02*
G54D19*
D03*
X650232Y796086D02*
G54D30*
D03*
X642938Y920750D02*
G54D19*
D03*
G54D18*
X642971Y905670D02*
X642971Y920717D01*
X642938Y920750D01*
X650081Y883047D02*
G54D19*
D03*
G54D18*
X650232Y868085D02*
X650232Y882896D01*
X650081Y883047D01*
G54D22*
G75*
G01X684466Y854849D02*
G03X699944Y839371I15478J0D01*
G01*
G54D22*
G75*
G01X553894Y839371D02*
G03X569372Y854849I0J15478D01*
G01*
X677805Y868007D02*
G54D19*
D03*
G54D18*
X669732Y868085D02*
X677727Y868085D01*
X677805Y868007D01*
X636927Y853720D02*
G54D19*
D03*
G54D18*
X636927Y853720D02*
X639804Y853720D01*
X643731Y857647D01*
X643732Y868085D01*
G54D22*
G75*
G01X584850Y993755D02*
G03X569372Y978277I0J-15478D01*
G01*
G54D22*
G75*
G01X684524Y978238D02*
G03X669046Y993716I-15478J0D01*
G01*
G54D22*
X779066Y839391D02*
X699944Y839371D01*
G54D22*
X584850Y993755D02*
X669006Y993755D01*
G54D22*
X569372Y978277D02*
X569372Y854849D01*
G54D22*
X684466Y854849D02*
X684466Y978180D01*
X684524Y978238D01*
X607219Y975122D02*
G54D19*
D03*
X463947Y826294D02*
G54D19*
D03*
X734616Y829866D02*
G54D19*
D03*
X483394Y659209D02*
G54D19*
D03*
X474266Y589359D02*
G54D19*
D03*
X77391Y722312D02*
G54D19*
D03*
X75009Y814388D02*
G54D19*
D03*
X122238Y613569D02*
G54D19*
D03*
X688578Y667147D02*
G54D19*
D03*
X137486Y826457D02*
G54D19*
D03*
X155742Y826457D02*
G54D19*
D03*
X173997Y826460D02*
G54D19*
D03*
X192255Y826457D02*
G54D19*
D03*
X210511Y826457D02*
G54D19*
D03*
X228767Y826457D02*
G54D19*
D03*
X137486Y809457D02*
G54D20*
D03*
X155740Y809460D02*
G54D20*
D03*
X173997Y809460D02*
G54D20*
D03*
X192253Y809460D02*
G54D20*
D03*
X210509Y809460D02*
G54D20*
D03*
X228766Y809460D02*
G54D20*
D03*
X565547Y738981D02*
G54D19*
D03*
X551656Y803672D02*
G54D19*
D03*
X551656Y827881D02*
G54D19*
D03*
G54D18*
X551656Y827881D02*
X565944Y827881D01*
X578644Y840581D01*
X633809Y840581D01*
X650232Y857004D01*
X758182Y776307D02*
G54D19*
D03*
G54D18*
X758103Y745329D02*
X758103Y776227D01*
X758182Y776307D01*
G54D12*
X665105Y697754D02*
X665105Y670264D01*
X653256Y658416D01*
G54D12*
X653256Y658416D02*
X638784Y658416D01*
X612088Y685113D01*
X639762Y692150D02*
G54D34*
D03*
X652462Y692150D02*
G54D34*
D03*
X665162Y692150D02*
G54D34*
D03*
X677862Y692547D02*
G54D34*
D03*
X639762Y753269D02*
G54D34*
D03*
X652462Y753269D02*
G54D34*
D03*
X665162Y753269D02*
G54D34*
D03*
X677862Y753269D02*
G54D34*
D03*
X554829Y781051D02*
G54D35*
D03*
X503832Y781050D02*
G54D35*
D03*
G54D36*
X522618Y812007D02*
X522618Y799838D01*
X503832Y781050D01*
G54D36*
X639762Y753269D02*
X639762Y761603D01*
X626666Y774700D01*
X586184Y774700D01*
X563166Y797719D01*
X563166Y799306D01*
X558800Y803672D01*
X551656Y803672D01*
G54D36*
X551656Y803672D02*
X530953Y803672D01*
X522618Y812007D01*
%LPD*%
G54D29*
G36*
X452066Y687115D02*
X462066Y687115D01*
X462066Y683115D01*
X452066Y683115D01*
X452066Y687115D01*
G37*
G36*
X452066Y683115D02*
X442066Y683115D01*
X442066Y687115D01*
X452066Y687115D01*
X452066Y683115D01*
G37*
G54D29*
G36*
X572062Y695113D02*
X582062Y695112D01*
X582062Y691112D01*
X572062Y691113D01*
X572062Y695113D01*
G37*
G36*
X572062Y691113D02*
X562062Y691113D01*
X562062Y695113D01*
X572062Y695113D01*
X572062Y691113D01*
G37*
G54D37*
G36*
X620484Y748025D02*
X620484Y738025D01*
X615984Y738025D01*
X615984Y748025D01*
X620484Y748025D01*
G37*
G36*
X616180Y748944D02*
X620634Y758900D01*
X624742Y757063D01*
X620288Y747106D01*
X616180Y748944D01*
G37*
G36*
X618234Y750275D02*
X622984Y750275D01*
X622984Y745775D01*
X618234Y745775D01*
X618234Y750275D01*
G37*
G54D12*
G36*
X673802Y697756D02*
X673802Y712256D01*
X681802Y712256D01*
X681802Y697756D01*
X673802Y697756D01*
G37*
G36*
X677802Y701756D02*
X684302Y701756D01*
X684302Y693756D01*
X677802Y693756D01*
X677802Y701756D01*
G37*
G36*
X681802Y697756D02*
X681802Y683256D01*
X673802Y683256D01*
X673802Y697756D01*
X681802Y697756D01*
G37*
G54D22*
G36*
X412995Y661004D02*
X402995Y661004D01*
X402995Y666004D01*
X412995Y666004D01*
X412995Y661004D01*
G37*
G36*
X410495Y663504D02*
X410495Y673504D01*
X415495Y673504D01*
X415495Y663504D01*
X410495Y663504D01*
G37*
G36*
X412995Y666004D02*
X422995Y666004D01*
X422995Y661004D01*
X412995Y661004D01*
X412995Y666004D01*
G37*
G36*
X415495Y663504D02*
X415495Y653504D01*
X410495Y653504D01*
X410495Y663504D01*
X415495Y663504D01*
G37*
G54D38*
G36*
X696265Y696908D02*
X696265Y705408D01*
X699932Y705408D01*
X699932Y696908D01*
X696265Y696908D01*
G37*
G36*
X699932Y696908D02*
X699932Y688408D01*
X696265Y688408D01*
X696265Y696908D01*
X699932Y696908D01*
G37*
G36*
X698099Y695074D02*
X690099Y695074D01*
X690099Y698741D01*
X698099Y698741D01*
X698099Y695074D01*
G37*
G54D38*
G36*
X584750Y627455D02*
X584750Y635955D01*
X588417Y635955D01*
X588417Y627455D01*
X584750Y627455D01*
G37*
G36*
X588417Y627455D02*
X588417Y618955D01*
X584750Y618955D01*
X584750Y627455D01*
X588417Y627455D01*
G37*
G36*
X586584Y625622D02*
X578584Y625622D01*
X578584Y629288D01*
X586584Y629288D01*
X586584Y625622D01*
G37*
G54D38*
G36*
X696677Y740184D02*
X705177Y740184D01*
X705177Y736518D01*
X696677Y736518D01*
X696677Y740184D01*
G37*
G36*
X696677Y736518D02*
X688177Y736518D01*
X688177Y740184D01*
X696677Y740184D01*
X696677Y736518D01*
G37*
G36*
X694844Y738351D02*
X694844Y746351D01*
X698510Y746351D01*
X698510Y738351D01*
X694844Y738351D01*
G37*
G54D39*
G36*
X682199Y626684D02*
X686795Y622088D01*
X684909Y620202D01*
X680313Y624798D01*
X682199Y626684D01*
G37*
G36*
X682199Y624798D02*
X677602Y620202D01*
X675717Y622088D01*
X680313Y626684D01*
X682199Y624798D01*
G37*
G36*
X680313Y624798D02*
X675717Y629394D01*
X677602Y631280D01*
X682199Y626684D01*
X680313Y624798D01*
G37*
G36*
X680313Y626684D02*
X684909Y631280D01*
X686795Y629394D01*
X682199Y624798D01*
X680313Y626684D01*
G37*
G54D39*
G36*
X513414Y718344D02*
X513414Y724844D01*
X516080Y724844D01*
X516080Y718344D01*
X513414Y718344D01*
G37*
G36*
X514747Y719677D02*
X521247Y719677D01*
X521247Y717010D01*
X514747Y717010D01*
X514747Y719677D01*
G37*
G36*
X516080Y718344D02*
X516080Y711844D01*
X513414Y711844D01*
X513414Y718344D01*
X516080Y718344D01*
G37*
G36*
X514747Y717010D02*
X508247Y717010D01*
X508247Y719677D01*
X514747Y719677D01*
X514747Y717010D01*
G37*
G54D23*
G36*
X584477Y608744D02*
X594477Y608744D01*
X594477Y598744D01*
X584477Y598744D01*
X584477Y608744D01*
G37*
G36*
X589477Y603744D02*
X589477Y596244D01*
X579477Y596244D01*
X579477Y603744D01*
X589477Y603744D01*
G37*
G36*
X584477Y598744D02*
X574477Y598744D01*
X574477Y608744D01*
X584477Y608744D01*
X584477Y598744D01*
G37*
G36*
X579477Y603744D02*
X579477Y611244D01*
X589477Y611244D01*
X589477Y603744D01*
X579477Y603744D01*
G37*
G54D23*
G36*
X543994Y608749D02*
X553994Y608750D01*
X553994Y598750D01*
X543994Y598749D01*
X543994Y608749D01*
G37*
G36*
X548994Y603749D02*
X548994Y596249D01*
X538994Y596249D01*
X538994Y603749D01*
X548994Y603749D01*
G37*
G36*
X543994Y598749D02*
X533994Y598749D01*
X533994Y608749D01*
X543994Y608749D01*
X543994Y598749D01*
G37*
G54D39*
G36*
X435523Y695083D02*
X440119Y690487D01*
X438233Y688601D01*
X433637Y693197D01*
X435523Y695083D01*
G37*
G36*
X435913Y694140D02*
X435913Y687640D01*
X433247Y687640D01*
X433247Y694140D01*
X435913Y694140D01*
G37*
G36*
X435523Y693197D02*
X430927Y688601D01*
X429041Y690487D01*
X433637Y695083D01*
X435523Y693197D01*
G37*
G36*
X434580Y692807D02*
X428080Y692807D01*
X428080Y695473D01*
X434580Y695473D01*
X434580Y692807D01*
G37*
G54D40*
G36*
X446821Y625638D02*
X457321Y625638D01*
X457321Y620305D01*
X446821Y620305D01*
X446821Y625638D01*
G37*
G36*
X449488Y622971D02*
X449488Y612471D01*
X444155Y612471D01*
X444155Y622971D01*
X449488Y622971D01*
G37*
G36*
X444155Y622971D02*
X444155Y633471D01*
X449488Y633471D01*
X449488Y622971D01*
X444155Y622971D01*
G37*
G54D40*
G36*
X167420Y625635D02*
X177920Y625635D01*
X177920Y620302D01*
X167420Y620302D01*
X167420Y625635D01*
G37*
G36*
X170087Y622968D02*
X170087Y612468D01*
X164753Y612468D01*
X164753Y622968D01*
X170087Y622968D01*
G37*
G36*
X167420Y620302D02*
X156920Y620302D01*
X156920Y625635D01*
X167420Y625635D01*
X167420Y620302D01*
G37*
G36*
X164753Y622968D02*
X164753Y633468D01*
X170087Y633468D01*
X170087Y622968D01*
X164753Y622968D01*
G37*
G54D40*
G36*
X317155Y775371D02*
X317155Y785871D01*
X322488Y785871D01*
X322488Y775371D01*
X317155Y775371D01*
G37*
G36*
X319821Y778038D02*
X330321Y778038D01*
X330321Y772705D01*
X319821Y772705D01*
X319821Y778038D01*
G37*
G36*
X322488Y775371D02*
X322488Y764871D01*
X317155Y764871D01*
X317155Y775371D01*
X322488Y775371D01*
G37*
G36*
X319821Y772705D02*
X309321Y772705D01*
X309321Y778038D01*
X319821Y778038D01*
X319821Y772705D01*
G37*
G54D38*
G36*
X166851Y647785D02*
X175351Y647785D01*
X175351Y644118D01*
X166851Y644118D01*
X166851Y647785D01*
G37*
G36*
X168685Y645951D02*
X168685Y637951D01*
X165018Y637951D01*
X165018Y645951D01*
X168685Y645951D01*
G37*
G36*
X166851Y644118D02*
X158351Y644118D01*
X158351Y647785D01*
X166851Y647785D01*
X166851Y644118D01*
G37*
G36*
X165018Y645951D02*
X165018Y653951D01*
X168685Y653951D01*
X168685Y645951D01*
X165018Y645951D01*
G37*
G54D38*
G36*
X186696Y647780D02*
X195196Y647780D01*
X195196Y644113D01*
X186696Y644113D01*
X186696Y647780D01*
G37*
G36*
X188530Y645946D02*
X188530Y637946D01*
X184863Y637946D01*
X184863Y645946D01*
X188530Y645946D01*
G37*
G36*
X186696Y644113D02*
X178196Y644113D01*
X178196Y647780D01*
X186696Y647780D01*
X186696Y644113D01*
G37*
G36*
X184863Y645946D02*
X184863Y653946D01*
X188530Y653946D01*
X188530Y645946D01*
X184863Y645946D01*
G37*
G54D38*
G36*
X503788Y812002D02*
X503788Y820502D01*
X507454Y820502D01*
X507454Y812002D01*
X503788Y812002D01*
G37*
G36*
X507454Y812002D02*
X507454Y803502D01*
X503788Y803502D01*
X503788Y812002D01*
X507454Y812002D01*
G37*
G36*
X505621Y810169D02*
X497621Y810169D01*
X497621Y813836D01*
X505621Y813836D01*
X505621Y810169D01*
G37*
G54D41*
G36*
X99682Y668341D02*
X86682Y668341D01*
X86682Y674674D01*
X99682Y674674D01*
X99682Y668341D01*
G37*
G36*
X96515Y671508D02*
X96515Y684508D01*
X102848Y684508D01*
X102848Y671508D01*
X96515Y671508D01*
G37*
G36*
X99682Y674674D02*
X112682Y674674D01*
X112682Y668341D01*
X99682Y668341D01*
X99682Y674674D01*
G37*
G36*
X102848Y671508D02*
X102848Y658508D01*
X96515Y658508D01*
X96515Y671508D01*
X102848Y671508D01*
G37*
G54D41*
G54D38*
G36*
X329571Y820751D02*
X338071Y820751D01*
X338071Y817084D01*
X329571Y817084D01*
X329571Y820751D01*
G37*
G36*
X329571Y817084D02*
X321071Y817084D01*
X321071Y820751D01*
X329571Y820751D01*
X329571Y817084D01*
G37*
G36*
X327738Y818918D02*
X327738Y826918D01*
X331405Y826918D01*
X331405Y818918D01*
X327738Y818918D01*
G37*
G54D38*
G36*
X350209Y820752D02*
X358709Y820752D01*
X358709Y817085D01*
X350209Y817085D01*
X350209Y820752D01*
G37*
G36*
X350209Y817085D02*
X341709Y817085D01*
X341709Y820752D01*
X350209Y820752D01*
X350209Y817085D01*
G37*
G36*
X348376Y818918D02*
X348376Y826918D01*
X352043Y826918D01*
X352043Y818918D01*
X348376Y818918D01*
G37*
G54D41*
G36*
X684420Y601929D02*
X684420Y589929D01*
X678087Y589929D01*
X678087Y601929D01*
X684420Y601929D01*
G37*
G36*
X681254Y598763D02*
X669254Y598763D01*
X669254Y605096D01*
X681254Y605096D01*
X681254Y598763D01*
G37*
G36*
X678087Y601929D02*
X678087Y613929D01*
X684420Y613929D01*
X684420Y601929D01*
X678087Y601929D01*
G37*
G36*
X681254Y605096D02*
X693254Y605096D01*
X693254Y598763D01*
X681254Y598763D01*
X681254Y605096D01*
G37*
G54D39*
G36*
X583144Y603744D02*
X583144Y610244D01*
X585810Y610244D01*
X585810Y603744D01*
X583144Y603744D01*
G37*
G36*
X584477Y605078D02*
X590977Y605078D01*
X590977Y602411D01*
X584477Y602411D01*
X584477Y605078D01*
G37*
G36*
X585810Y603744D02*
X585810Y597244D01*
X583144Y597244D01*
X583144Y603744D01*
X585810Y603744D01*
G37*
G36*
X584477Y602411D02*
X577977Y602411D01*
X577977Y605078D01*
X584477Y605078D01*
X584477Y602411D01*
G37*
G54D41*
G36*
X142874Y590936D02*
X154874Y590936D01*
X154874Y584603D01*
X142874Y584603D01*
X142874Y590936D01*
G37*
G36*
X142874Y584603D02*
X130874Y584603D01*
X130874Y590936D01*
X142874Y590936D01*
X142874Y584603D01*
G37*
G54D41*
G36*
X117474Y590936D02*
X129474Y590936D01*
X129474Y584603D01*
X117474Y584603D01*
X117474Y590936D01*
G37*
G36*
X117474Y584603D02*
X105474Y584603D01*
X105474Y590936D01*
X117474Y590936D01*
X117474Y584603D01*
G37*
G54D41*
G36*
X245662Y590935D02*
X257662Y590935D01*
X257662Y584602D01*
X245662Y584602D01*
X245662Y590935D01*
G37*
G36*
X248829Y587769D02*
X248829Y575769D01*
X242495Y575769D01*
X242495Y587769D01*
X248829Y587769D01*
G37*
G36*
X245662Y584602D02*
X233662Y584602D01*
X233662Y590935D01*
X245662Y590935D01*
X245662Y584602D01*
G37*
G54D41*
G36*
X220262Y590935D02*
X232262Y590935D01*
X232262Y584602D01*
X220262Y584602D01*
X220262Y590935D01*
G37*
G36*
X223429Y587769D02*
X223429Y575769D01*
X217095Y575769D01*
X217095Y587769D01*
X223429Y587769D01*
G37*
G36*
X220262Y584602D02*
X208262Y584602D01*
X208262Y590935D01*
X220262Y590935D01*
X220262Y584602D01*
G37*
G54D41*
G54D41*
G36*
X758107Y716764D02*
X746107Y716764D01*
X746107Y723097D01*
X758107Y723097D01*
X758107Y716764D01*
G37*
G36*
X754940Y719930D02*
X754940Y731930D01*
X761274Y731930D01*
X761274Y719930D01*
X754940Y719930D01*
G37*
G36*
X758107Y723097D02*
X770107Y723097D01*
X770107Y716764D01*
X758107Y716764D01*
X758107Y723097D01*
G37*
G36*
X761274Y719930D02*
X761274Y707930D01*
X754940Y707930D01*
X754940Y719930D01*
X761274Y719930D01*
G37*
G54D39*
G36*
X229251Y722709D02*
X229251Y729209D01*
X231918Y729209D01*
X231918Y722709D01*
X229251Y722709D01*
G37*
G36*
X230584Y724043D02*
X237084Y724043D01*
X237084Y721376D01*
X230584Y721376D01*
X230584Y724043D01*
G37*
G36*
X231918Y722709D02*
X231918Y716209D01*
X229251Y716209D01*
X229251Y722709D01*
X231918Y722709D01*
G37*
G36*
X230584Y721376D02*
X224084Y721376D01*
X224084Y724043D01*
X230584Y724043D01*
X230584Y721376D01*
G37*
G54D29*
G36*
X606731Y796088D02*
X606731Y785088D01*
X602731Y785088D01*
X602731Y796088D01*
X606731Y796088D01*
G37*
G36*
X602731Y796088D02*
X602731Y807088D01*
X606731Y807088D01*
X606731Y796088D01*
X602731Y796088D01*
G37*
G54D29*
G36*
X632732Y868085D02*
X632732Y857085D01*
X628732Y857085D01*
X628732Y868085D01*
X632732Y868085D01*
G37*
G36*
X628732Y868085D02*
X628732Y879085D01*
X632732Y879085D01*
X632732Y868085D01*
X628732Y868085D01*
G37*
G54D29*
G36*
X626237Y796077D02*
X626237Y785077D01*
X622237Y785077D01*
X622237Y796077D01*
X626237Y796077D01*
G37*
G36*
X622237Y796077D02*
X622237Y807077D01*
X626237Y807077D01*
X626237Y796077D01*
X622237Y796077D01*
G37*
G54D18*
G36*
X607971Y905670D02*
X607971Y919170D01*
X613971Y919170D01*
X613971Y905670D01*
X607971Y905670D01*
G37*
G36*
X613971Y905670D02*
X613971Y892170D01*
X607971Y892170D01*
X607971Y905670D01*
X613971Y905670D01*
G37*
G36*
X610971Y902670D02*
X605471Y902670D01*
X605471Y908670D01*
X610971Y908670D01*
X610971Y902670D01*
G37*
G54D29*
G36*
X652232Y796086D02*
X652232Y785086D01*
X648232Y785086D01*
X648232Y796086D01*
X652232Y796086D01*
G37*
G36*
X648232Y796086D02*
X648232Y807086D01*
X652232Y807086D01*
X652232Y796086D01*
X648232Y796086D01*
G37*
G54D39*
G36*
X605885Y975122D02*
X605885Y981622D01*
X608552Y981622D01*
X608552Y975122D01*
X605885Y975122D01*
G37*
G36*
X607219Y976455D02*
X613719Y976455D01*
X613719Y973789D01*
X607219Y973789D01*
X607219Y976455D01*
G37*
G36*
X608552Y975122D02*
X608552Y968622D01*
X605885Y968622D01*
X605885Y975122D01*
X608552Y975122D01*
G37*
G36*
X607219Y973789D02*
X600719Y973789D01*
X600719Y976455D01*
X607219Y976455D01*
X607219Y973789D01*
G37*
G54D39*
G36*
X462614Y826294D02*
X462614Y832794D01*
X465280Y832794D01*
X465280Y826294D01*
X462614Y826294D01*
G37*
G36*
X463947Y827627D02*
X470447Y827627D01*
X470447Y824960D01*
X463947Y824960D01*
X463947Y827627D01*
G37*
G36*
X465280Y826294D02*
X465280Y819794D01*
X462614Y819794D01*
X462614Y826294D01*
X465280Y826294D01*
G37*
G36*
X463947Y824960D02*
X457447Y824960D01*
X457447Y827627D01*
X463947Y827627D01*
X463947Y824960D01*
G37*
G54D39*
G36*
X733282Y829866D02*
X733282Y836366D01*
X735949Y836366D01*
X735949Y829866D01*
X733282Y829866D01*
G37*
G36*
X734616Y831199D02*
X741116Y831199D01*
X741116Y828532D01*
X734616Y828532D01*
X734616Y831199D01*
G37*
G36*
X735949Y829866D02*
X735949Y823366D01*
X733282Y823366D01*
X733282Y829866D01*
X735949Y829866D01*
G37*
G36*
X734616Y828532D02*
X728116Y828532D01*
X728116Y831199D01*
X734616Y831199D01*
X734616Y828532D01*
G37*
G54D39*
G36*
X482060Y659209D02*
X482060Y665709D01*
X484727Y665709D01*
X484727Y659209D01*
X482060Y659209D01*
G37*
G36*
X483394Y660543D02*
X489894Y660543D01*
X489894Y657876D01*
X483394Y657876D01*
X483394Y660543D01*
G37*
G36*
X484727Y659209D02*
X484727Y652709D01*
X482060Y652709D01*
X482060Y659209D01*
X484727Y659209D01*
G37*
G36*
X483394Y657876D02*
X476894Y657876D01*
X476894Y660543D01*
X483394Y660543D01*
X483394Y657876D01*
G37*
G54D39*
G36*
X472932Y589359D02*
X472932Y595859D01*
X475599Y595859D01*
X475599Y589359D01*
X472932Y589359D01*
G37*
G36*
X474266Y590693D02*
X480766Y590693D01*
X480766Y588026D01*
X474266Y588026D01*
X474266Y590693D01*
G37*
G36*
X475599Y589359D02*
X475599Y582859D01*
X472932Y582859D01*
X472932Y589359D01*
X475599Y589359D01*
G37*
G36*
X474266Y588026D02*
X467766Y588026D01*
X467766Y590693D01*
X474266Y590693D01*
X474266Y588026D01*
G37*
G54D39*
G36*
X76057Y722312D02*
X76057Y728812D01*
X78724Y728812D01*
X78724Y722312D01*
X76057Y722312D01*
G37*
G36*
X77391Y723646D02*
X83891Y723646D01*
X83891Y720979D01*
X77391Y720979D01*
X77391Y723646D01*
G37*
G36*
X78724Y722312D02*
X78724Y715812D01*
X76057Y715812D01*
X76057Y722312D01*
X78724Y722312D01*
G37*
G36*
X77391Y720979D02*
X70891Y720979D01*
X70891Y723646D01*
X77391Y723646D01*
X77391Y720979D01*
G37*
G54D39*
G36*
X73676Y814388D02*
X73676Y820888D01*
X76343Y820888D01*
X76343Y814388D01*
X73676Y814388D01*
G37*
G36*
X75009Y815721D02*
X81509Y815721D01*
X81509Y813054D01*
X75009Y813054D01*
X75009Y815721D01*
G37*
G36*
X76343Y814388D02*
X76343Y807888D01*
X73676Y807888D01*
X73676Y814388D01*
X76343Y814388D01*
G37*
G36*
X75009Y813054D02*
X68509Y813054D01*
X68509Y815721D01*
X75009Y815721D01*
X75009Y813054D01*
G37*
G54D39*
G36*
X120904Y613569D02*
X120904Y620069D01*
X123571Y620069D01*
X123571Y613569D01*
X120904Y613569D01*
G37*
G36*
X122238Y614902D02*
X128738Y614902D01*
X128738Y612235D01*
X122238Y612235D01*
X122238Y614902D01*
G37*
G36*
X123571Y613569D02*
X123571Y607069D01*
X120904Y607069D01*
X120904Y613569D01*
X123571Y613569D01*
G37*
G36*
X122238Y612235D02*
X115738Y612235D01*
X115738Y614902D01*
X122238Y614902D01*
X122238Y612235D01*
G37*
G54D39*
G36*
X687245Y667147D02*
X687245Y673647D01*
X689911Y673647D01*
X689911Y667147D01*
X687245Y667147D01*
G37*
G36*
X688578Y668480D02*
X695078Y668480D01*
X695078Y665814D01*
X688578Y665814D01*
X688578Y668480D01*
G37*
G36*
X689911Y667147D02*
X689911Y660647D01*
X687245Y660647D01*
X687245Y667147D01*
X689911Y667147D01*
G37*
G36*
X688578Y665814D02*
X682078Y665814D01*
X682078Y668480D01*
X688578Y668480D01*
X688578Y665814D01*
G37*
G54D38*
G36*
X137486Y811291D02*
X145986Y811291D01*
X145986Y807624D01*
X137486Y807624D01*
X137486Y811291D01*
G37*
G36*
X139320Y809457D02*
X139320Y801457D01*
X135652Y801457D01*
X135652Y809457D01*
X139320Y809457D01*
G37*
G36*
X137486Y807624D02*
X128986Y807624D01*
X128986Y811291D01*
X137486Y811291D01*
X137486Y807624D01*
G37*
G36*
X135652Y809457D02*
X135652Y817457D01*
X139320Y817457D01*
X139320Y809457D01*
X135652Y809457D01*
G37*
G54D38*
G36*
X155740Y811293D02*
X164240Y811293D01*
X164240Y807626D01*
X155740Y807626D01*
X155740Y811293D01*
G37*
G36*
X157574Y809460D02*
X157574Y801460D01*
X153907Y801460D01*
X153907Y809460D01*
X157574Y809460D01*
G37*
G36*
X155740Y807626D02*
X147240Y807626D01*
X147240Y811293D01*
X155740Y811293D01*
X155740Y807626D01*
G37*
G36*
X153907Y809460D02*
X153907Y817460D01*
X157574Y817460D01*
X157574Y809460D01*
X153907Y809460D01*
G37*
G54D38*
G36*
X173997Y811293D02*
X182497Y811293D01*
X182497Y807626D01*
X173997Y807626D01*
X173997Y811293D01*
G37*
G36*
X175830Y809460D02*
X175830Y801460D01*
X172163Y801460D01*
X172163Y809460D01*
X175830Y809460D01*
G37*
G36*
X173997Y807626D02*
X165497Y807626D01*
X165497Y811293D01*
X173997Y811293D01*
X173997Y807626D01*
G37*
G36*
X172163Y809460D02*
X172163Y817460D01*
X175830Y817460D01*
X175830Y809460D01*
X172163Y809460D01*
G37*
G54D38*
G36*
X192253Y811293D02*
X200753Y811293D01*
X200753Y807626D01*
X192253Y807626D01*
X192253Y811293D01*
G37*
G36*
X194086Y809460D02*
X194086Y801460D01*
X190420Y801460D01*
X190420Y809460D01*
X194086Y809460D01*
G37*
G36*
X192253Y807626D02*
X183753Y807626D01*
X183753Y811293D01*
X192253Y811293D01*
X192253Y807626D01*
G37*
G36*
X190420Y809460D02*
X190420Y817460D01*
X194086Y817460D01*
X194086Y809460D01*
X190420Y809460D01*
G37*
G54D38*
G36*
X210509Y811293D02*
X219009Y811293D01*
X219009Y807626D01*
X210509Y807626D01*
X210509Y811293D01*
G37*
G36*
X212343Y809460D02*
X212343Y801460D01*
X208676Y801460D01*
X208676Y809460D01*
X212343Y809460D01*
G37*
G36*
X210509Y807626D02*
X202009Y807626D01*
X202009Y811293D01*
X210509Y811293D01*
X210509Y807626D01*
G37*
G36*
X208676Y809460D02*
X208676Y817460D01*
X212343Y817460D01*
X212343Y809460D01*
X208676Y809460D01*
G37*
G54D38*
G36*
X228766Y811293D02*
X237266Y811293D01*
X237266Y807626D01*
X228766Y807626D01*
X228766Y811293D01*
G37*
G36*
X230599Y809460D02*
X230599Y801460D01*
X226932Y801460D01*
X226932Y809460D01*
X230599Y809460D01*
G37*
G36*
X228766Y807626D02*
X220266Y807626D01*
X220266Y811293D01*
X228766Y811293D01*
X228766Y807626D01*
G37*
G36*
X226932Y809460D02*
X226932Y817460D01*
X230599Y817460D01*
X230599Y809460D01*
X226932Y809460D01*
G37*
G54D39*
G36*
X564214Y738981D02*
X564214Y745481D01*
X566880Y745481D01*
X566880Y738981D01*
X564214Y738981D01*
G37*
G36*
X565547Y740315D02*
X572047Y740315D01*
X572047Y737648D01*
X565547Y737648D01*
X565547Y740315D01*
G37*
G36*
X566880Y738981D02*
X566880Y732481D01*
X564214Y732481D01*
X564214Y738981D01*
X566880Y738981D01*
G37*
G36*
X565547Y737648D02*
X559047Y737648D01*
X559047Y740315D01*
X565547Y740315D01*
X565547Y737648D01*
G37*
G54D41*
G36*
X557996Y781051D02*
X557996Y769051D01*
X551663Y769051D01*
X551663Y781051D01*
X557996Y781051D01*
G37*
G36*
X554829Y777885D02*
X542829Y777885D01*
X542829Y784218D01*
X554829Y784218D01*
X554829Y777885D01*
G37*
G36*
X551663Y781051D02*
X551663Y793051D01*
X557996Y793051D01*
X557996Y781051D01*
X551663Y781051D01*
G37*
G36*
X554829Y784218D02*
X566829Y784218D01*
X566829Y777885D01*
X554829Y777885D01*
X554829Y784218D01*
G37*
G36*
X470062Y632612D02*
X474062Y632613D01*
X474062Y617613D01*
X470062Y617612D01*
X470062Y632612D01*
G37*
X472062Y745113D02*
G54D42*
D03*
G36*
X478062Y632612D02*
X482062Y632613D01*
X482062Y617613D01*
X478062Y617612D01*
X478062Y632612D01*
G37*
G36*
X478062Y752612D02*
X482062Y752613D01*
X482062Y737613D01*
X478062Y737612D01*
X478062Y752612D01*
G37*
X488062Y625113D02*
G54D42*
D03*
X488062Y745113D02*
G54D42*
D03*
X496062Y625113D02*
G54D42*
D03*
X496062Y745113D02*
G54D42*
D03*
X504062Y625113D02*
G54D42*
D03*
G36*
X502062Y752612D02*
X506062Y752613D01*
X506062Y737613D01*
X502062Y737612D01*
X502062Y752612D01*
G37*
G36*
X510062Y632612D02*
X514062Y632612D01*
X514062Y617612D01*
X510062Y617612D01*
X510062Y632612D01*
G37*
X512062Y745113D02*
G54D42*
D03*
G36*
X518062Y632612D02*
X522062Y632613D01*
X522062Y617613D01*
X518062Y617612D01*
X518062Y632612D01*
G37*
X520062Y745113D02*
G54D42*
D03*
G36*
X526062Y632612D02*
X530062Y632613D01*
X530062Y617613D01*
X526062Y617612D01*
X526062Y632612D01*
G37*
X528062Y745113D02*
G54D42*
D03*
G36*
X534061Y632612D02*
X538061Y632613D01*
X538063Y617613D01*
X534063Y617612D01*
X534061Y632612D01*
G37*
X536062Y745113D02*
G54D42*
D03*
G36*
X542061Y632612D02*
X546061Y632613D01*
X546062Y617613D01*
X542062Y617612D01*
X542061Y632612D01*
G37*
G36*
X542062Y752613D02*
X546062Y752613D01*
X546062Y737613D01*
X542062Y737613D01*
X542062Y752613D01*
G37*
X552062Y625113D02*
G54D42*
D03*
X552062Y745113D02*
G54D42*
D03*
X452062Y645113D02*
G54D43*
D03*
X572062Y645113D02*
G54D43*
D03*
X452062Y653113D02*
G54D43*
D03*
X572062Y653112D02*
G54D43*
D03*
X452062Y661113D02*
G54D43*
D03*
X572062Y661113D02*
G54D43*
D03*
X452062Y669112D02*
G54D43*
D03*
X572062Y669113D02*
G54D43*
D03*
X452062Y677113D02*
G54D43*
D03*
X572062Y677113D02*
G54D43*
D03*
X452062Y685113D02*
G54D43*
D03*
X572062Y685113D02*
G54D43*
D03*
X452062Y693112D02*
G54D43*
D03*
X572062Y693113D02*
G54D43*
D03*
X452062Y701113D02*
G54D43*
D03*
X572062Y701113D02*
G54D43*
D03*
X452062Y709113D02*
G54D43*
D03*
X572062Y709113D02*
G54D43*
D03*
X452062Y717112D02*
G54D43*
D03*
X572062Y717113D02*
G54D43*
D03*
X452062Y725113D02*
G54D43*
D03*
X572062Y725113D02*
G54D43*
D03*
G54D29*
X455131Y677169D02*
X519424Y677169D01*
X527362Y685106D01*
X568637Y685106D01*
X452066Y685115D02*
G54D43*
D03*
X572062Y693113D02*
G54D43*
D03*
X610225Y653785D02*
G54D44*
D03*
G36*
X699762Y658691D02*
X739762Y658692D01*
X739762Y648692D01*
X699762Y648691D01*
X699762Y658691D01*
G37*
X639705Y697754D02*
G54D45*
D03*
G36*
X648404Y709754D02*
X656404Y709754D01*
X656405Y685754D01*
X648405Y685754D01*
X648404Y709754D01*
G37*
G36*
X661104Y709754D02*
X669104Y709754D01*
X669105Y685754D01*
X661105Y685754D01*
X661104Y709754D01*
G37*
X677805Y697754D02*
G54D45*
D03*
G36*
X673805Y759754D02*
X681805Y759754D01*
X681805Y735754D01*
X673805Y735754D01*
X673805Y759754D01*
G37*
X665105Y747754D02*
G54D45*
D03*
X652405Y747754D02*
G54D45*
D03*
X639705Y747754D02*
G54D45*
D03*
X618233Y748029D02*
G54D46*
D03*
X611883Y748029D02*
G54D46*
D03*
X605533Y748029D02*
G54D46*
D03*
X599183Y748029D02*
G54D46*
D03*
X618233Y703182D02*
G54D46*
D03*
X611883Y703182D02*
G54D46*
D03*
X605533Y703182D02*
G54D46*
D03*
X599183Y703182D02*
G54D46*
D03*
X235197Y663507D02*
G54D47*
D03*
X260597Y663507D02*
G54D47*
D03*
X235197Y739707D02*
G54D47*
D03*
X285997Y663508D02*
G54D47*
D03*
X260597Y739707D02*
G54D47*
D03*
X285997Y739707D02*
G54D47*
D03*
X311397Y739707D02*
G54D47*
D03*
X311397Y663507D02*
G54D47*
D03*
X336797Y663507D02*
G54D47*
D03*
X336797Y739707D02*
G54D47*
D03*
X362197Y663507D02*
G54D47*
D03*
X362197Y739707D02*
G54D47*
D03*
X387597Y663507D02*
G54D47*
D03*
X387597Y739707D02*
G54D47*
D03*
X412997Y663507D02*
G54D47*
D03*
X412997Y739707D02*
G54D47*
D03*
X618234Y748025D02*
G54D46*
D03*
X677802Y697756D02*
G54D45*
D03*
X412995Y663504D02*
G54D47*
D03*
X698102Y696912D02*
G54D48*
D03*
G36*
X709602Y702912D02*
X720602Y702912D01*
X720602Y690912D01*
X709602Y690912D01*
X709602Y702912D01*
G37*
X586581Y627459D02*
G54D48*
D03*
X603581Y627459D02*
G54D48*
D03*
G36*
X692599Y702908D02*
X703599Y702908D01*
X703599Y690908D01*
X692599Y690908D01*
X692599Y702908D01*
G37*
X586584Y627455D02*
G54D48*
D03*
G54D49*
X496062Y745113D02*
X495999Y736506D01*
X494109Y734616D01*
X468312Y734616D01*
X442119Y760809D01*
X317500Y760809D01*
X311547Y754856D01*
X311547Y742636D01*
X311397Y742486D01*
G54D49*
X504062Y745113D02*
X503999Y736965D01*
X497681Y730647D01*
X466725Y730647D01*
X440531Y756841D01*
X342900Y756841D01*
X336947Y750888D01*
X336947Y742636D01*
X336797Y742486D01*
G54D49*
X512062Y745113D02*
X511999Y735440D01*
X503238Y726678D01*
X465138Y726678D01*
X438944Y752872D01*
X369094Y752872D01*
X362347Y746125D01*
X362347Y741048D01*
X362197Y740898D01*
G54D49*
X452062Y709113D02*
X263422Y709113D01*
X234950Y680641D01*
X234950Y663754D01*
X235197Y663507D01*
G54D49*
X260597Y739707D02*
X260597Y722860D01*
X270272Y713184D01*
X439738Y713184D01*
X443706Y717153D01*
X452021Y717153D01*
X452062Y717112D01*
G54D49*
X452062Y701113D02*
X443078Y701113D01*
X438944Y705247D01*
X279400Y705247D01*
X260747Y686594D01*
X260747Y663658D01*
X260597Y663507D01*
G54D49*
X452062Y693112D02*
X445522Y693112D01*
X437356Y701278D01*
X299244Y701278D01*
X285353Y687388D01*
X285353Y664151D01*
X285997Y663508D01*
X519906Y731441D02*
G54D50*
D03*
G54D49*
X520062Y745113D02*
X520062Y731596D01*
X519906Y731441D01*
G54D49*
X452062Y669112D02*
X443725Y669112D01*
X425450Y687388D01*
X347266Y687388D01*
X337344Y677466D01*
X337344Y664054D01*
X336797Y663507D01*
G54D49*
X452062Y661113D02*
X446169Y661113D01*
X423862Y683419D01*
X369491Y683419D01*
X362347Y676275D01*
X362347Y663658D01*
X362197Y663507D01*
X258762Y714772D02*
G54D50*
D03*
X273844Y719931D02*
G54D50*
D03*
X436959Y720328D02*
G54D50*
D03*
X484188Y677466D02*
G54D50*
D03*
G54D29*
X235197Y739707D02*
X235197Y738338D01*
X258762Y714772D01*
G54D29*
X273844Y719931D02*
X436562Y719931D01*
X436959Y720328D01*
G54D49*
X528062Y745113D02*
X528062Y756265D01*
X537766Y765969D01*
X600869Y765969D01*
X606028Y760809D01*
X606028Y752889D01*
X605533Y748029D01*
X521097Y758428D02*
G54D50*
D03*
G54D49*
X488062Y745113D02*
X488062Y754762D01*
X491728Y758428D01*
X521097Y758428D01*
G54D49*
X536062Y745113D02*
X536062Y757915D01*
X540147Y762000D01*
X595312Y762000D01*
X598884Y758428D01*
X598884Y748328D01*
X599183Y748029D01*
G54D29*
X639705Y747754D02*
X652405Y747754D01*
X652405Y731498D01*
X665162Y718741D01*
X665162Y697812D01*
X665105Y697754D01*
X605631Y737394D02*
G54D50*
D03*
X665162Y737394D02*
G54D50*
D03*
G54D49*
X652405Y697754D02*
X652405Y717608D01*
X639762Y730250D01*
X601266Y730250D01*
X577056Y754459D01*
X577056Y754459D02*
G54D50*
D03*
G54D49*
X544062Y745113D02*
X544062Y753612D01*
X548481Y758031D01*
X563562Y758031D01*
X574675Y746919D01*
X579041Y746919D01*
X599678Y726281D01*
X631428Y726281D01*
X639366Y718344D01*
X639366Y698093D01*
X639705Y697754D01*
G54D29*
X572062Y685113D02*
X612088Y685113D01*
X618331Y691356D01*
X618331Y703084D01*
X618233Y703182D01*
X605234Y713978D02*
G54D50*
D03*
X430212Y728266D02*
G54D50*
D03*
X465931Y707231D02*
G54D50*
D03*
G54D49*
X285997Y739707D02*
X285997Y734766D01*
X295672Y725091D01*
X427038Y725091D01*
X430212Y728266D01*
X585788Y707231D02*
G54D50*
D03*
X558403Y705247D02*
G54D50*
D03*
G54D49*
X572062Y701113D02*
X562537Y701113D01*
X558403Y705247D01*
G54D49*
X572062Y709113D02*
X583906Y709113D01*
X585788Y707231D01*
X719762Y653692D02*
G54D50*
D03*
X610225Y653785D02*
G54D50*
D03*
G54D49*
X603581Y627459D02*
X603581Y647142D01*
X610225Y653785D01*
X696681Y738354D02*
G54D51*
D03*
X696681Y721354D02*
G54D51*
D03*
X696677Y738351D02*
G54D51*
D03*
G54D29*
X665162Y718741D02*
X694069Y718741D01*
X696681Y721354D01*
X612088Y685113D02*
G54D50*
D03*
X463947Y749300D02*
G54D50*
D03*
X479822Y719534D02*
G54D50*
D03*
G54D49*
X479822Y719534D02*
X467122Y719534D01*
X461566Y725091D01*
X452084Y725091D01*
X452062Y725113D01*
G54D49*
X472062Y745113D02*
X468134Y745113D01*
X463947Y749300D01*
G54D49*
X715102Y696912D02*
X715102Y658351D01*
X719762Y653692D01*
X732056Y625741D02*
G54D50*
D03*
X706656Y625741D02*
G54D50*
D03*
X681256Y625741D02*
G54D50*
D03*
X655856Y625741D02*
G54D50*
D03*
X630456Y625741D02*
G54D50*
D03*
X533400Y653653D02*
G54D50*
D03*
G54D49*
X520062Y625113D02*
X520062Y640315D01*
X533400Y653653D01*
X550069Y646509D02*
G54D50*
D03*
G54D49*
X512062Y625112D02*
X512062Y643030D01*
X531019Y661988D01*
X544512Y661988D01*
X550069Y656431D01*
X550069Y646509D01*
X670256Y658416D02*
G54D50*
D03*
X653256Y658416D02*
G54D50*
D03*
G54D49*
X670256Y658416D02*
X670256Y649353D01*
X675878Y643731D01*
X694134Y643731D01*
X705247Y632619D01*
X725178Y632619D01*
X732056Y625741D01*
G54D29*
X706656Y625741D02*
X704584Y625741D01*
X691753Y638572D01*
X673100Y638572D01*
X653256Y658416D01*
X514747Y718344D02*
G54D50*
D03*
X584477Y603744D02*
G54D52*
D03*
X584474Y583502D02*
G54D52*
D03*
X543994Y603749D02*
G54D52*
D03*
X543993Y583502D02*
G54D52*
D03*
X465534Y653256D02*
G54D50*
D03*
G54D49*
X452062Y653113D02*
X465391Y653113D01*
X465534Y653256D01*
X281781Y698103D02*
G54D50*
D03*
X434580Y694140D02*
G54D50*
D03*
G54D49*
X281781Y698103D02*
X281781Y695722D01*
G54D53*
G75*
G01X17066Y839391D02*
G03X1588Y823913I0J-15478D01*
G01*
G54D53*
X17066Y839391D02*
X553894Y839371D01*
G54D53*
X1588Y823913D02*
X1444Y577433D01*
G54D53*
G75*
G01X1444Y577433D02*
G03X16922Y561955I15478J0D01*
G01*
G54D53*
G75*
G01X794544Y823913D02*
G03X779066Y839391I-15478J0D01*
G01*
G54D53*
X794544Y823913D02*
X794689Y577433D01*
G54D53*
G75*
G01X779211Y561955D02*
G03X794689Y577433I0J15478D01*
G01*
G54D53*
X16922Y561955D02*
X779211Y561955D01*
X677805Y747754D02*
G54D50*
D03*
X492919Y765572D02*
G54D50*
D03*
G54D49*
X480062Y745113D02*
X480062Y752715D01*
X492919Y765572D01*
X613114Y761645D02*
G54D50*
D03*
G54D49*
X611883Y748029D02*
X611883Y760414D01*
X613114Y761645D01*
G54D49*
X504062Y625113D02*
X504062Y640984D01*
X529431Y666353D01*
X546100Y666353D01*
X558403Y654050D01*
X558403Y642541D01*
X562372Y638572D01*
X592138Y638572D01*
X595312Y635397D01*
X595312Y618331D01*
X599281Y614362D01*
X619077Y614362D01*
X630456Y625741D01*
X446825Y622969D02*
G54D54*
D03*
X421425Y622969D02*
G54D54*
D03*
X396025Y622969D02*
G54D54*
D03*
X370625Y622969D02*
G54D54*
D03*
X446825Y775369D02*
G54D54*
D03*
X421425Y775369D02*
G54D54*
D03*
X396025Y775369D02*
G54D54*
D03*
X370625Y775369D02*
G54D54*
D03*
X345225Y622969D02*
G54D54*
D03*
X345225Y775369D02*
G54D54*
D03*
X319825Y622969D02*
G54D54*
D03*
X294425Y622969D02*
G54D54*
D03*
X319825Y775369D02*
G54D54*
D03*
X294425Y775369D02*
G54D54*
D03*
X269025Y622969D02*
G54D54*
D03*
X269025Y775369D02*
G54D54*
D03*
X243625Y622969D02*
G54D54*
D03*
X243625Y775369D02*
G54D54*
D03*
X218225Y622969D02*
G54D54*
D03*
X218225Y775369D02*
G54D54*
D03*
X192825Y775369D02*
G54D54*
D03*
X167425Y775369D02*
G54D54*
D03*
X192825Y622969D02*
G54D54*
D03*
X167425Y622969D02*
G54D54*
D03*
X446821Y622971D02*
G54D54*
D03*
X167420Y622968D02*
G54D54*
D03*
X281781Y698103D02*
G54D50*
D03*
X302022Y694134D02*
G54D50*
D03*
X311944Y694134D02*
G54D50*
D03*
X321866Y694134D02*
G54D50*
D03*
X331788Y694134D02*
G54D50*
D03*
G54D49*
X281781Y698103D02*
X281781Y695722D01*
X223838Y673894D02*
G54D50*
D03*
G54D49*
X331788Y694134D02*
X331788Y674291D01*
X326231Y668734D01*
X326231Y658416D01*
X334169Y650478D01*
X410369Y650478D01*
X421878Y638969D01*
X421878Y623422D01*
X421425Y622969D01*
G54D49*
X321866Y694134D02*
X321866Y657225D01*
X332581Y646509D01*
X388144Y646509D01*
X396081Y638572D01*
X396081Y623025D01*
X396025Y622969D01*
G54D49*
X311944Y694134D02*
X311944Y680244D01*
X300831Y669131D01*
X300831Y658416D01*
X316706Y642541D01*
X364728Y642541D01*
X370681Y636588D01*
X370681Y623026D01*
X370625Y622969D01*
G54D49*
X302022Y694134D02*
X302022Y676275D01*
X296862Y671116D01*
X296862Y656431D01*
X314722Y638572D01*
X342106Y638572D01*
X345281Y635397D01*
X345281Y623026D01*
X345225Y622969D01*
G54D49*
X281781Y698103D02*
X281781Y694928D01*
X275034Y688181D01*
X275034Y658812D01*
X282972Y650875D01*
X291919Y650875D01*
X319825Y622969D01*
G54D49*
X235197Y663507D02*
X245336Y663507D01*
X257572Y651272D01*
X277019Y651272D01*
X294481Y633809D01*
X294481Y623026D01*
X294425Y622969D01*
G54D49*
X223838Y673894D02*
X223838Y658416D01*
X230188Y652066D01*
X248047Y652066D01*
X256778Y643334D01*
X263128Y643334D01*
X269478Y636984D01*
X269478Y623422D01*
X269025Y622969D01*
X438944Y644922D02*
G54D50*
D03*
G54D49*
X440134Y644922D02*
X451871Y644922D01*
X452062Y645113D01*
X496094Y644525D02*
G54D50*
D03*
X488156Y637381D02*
G54D50*
D03*
G54D49*
X488156Y637381D02*
X488156Y625207D01*
X488062Y625113D01*
G54D49*
X496094Y644525D02*
X496094Y625144D01*
X496062Y625113D01*
G54D49*
X611883Y703182D02*
X618233Y703182D01*
X493712Y705247D02*
G54D50*
D03*
X436166Y745728D02*
G54D50*
D03*
G54D49*
X436166Y745728D02*
X435769Y745728D01*
X419100Y729059D01*
X303212Y729059D01*
X298847Y733425D01*
X298847Y745728D01*
X291703Y752872D01*
X204391Y752872D01*
X192484Y764778D01*
X192484Y775028D01*
X192825Y775369D01*
X421084Y650081D02*
G54D50*
D03*
G54D49*
X421084Y650081D02*
X421084Y645319D01*
X425847Y640556D01*
X425847Y634603D01*
X434181Y626269D01*
X434181Y614759D01*
X440531Y608409D01*
X524272Y608409D01*
X528241Y612378D01*
X528241Y624934D01*
X528062Y625112D01*
X319821Y775371D02*
G54D54*
D03*
X166853Y662946D02*
G54D51*
D03*
X166853Y645946D02*
G54D51*
D03*
X216297Y666750D02*
G54D50*
D03*
G54D49*
X243625Y622969D02*
X243625Y640613D01*
X236141Y648097D01*
X227806Y648097D01*
X216297Y659606D01*
X216297Y666750D01*
X186696Y662946D02*
G54D51*
D03*
X186696Y645946D02*
G54D51*
D03*
X166851Y645951D02*
G54D51*
D03*
X186696Y645946D02*
G54D51*
D03*
X186696Y662946D02*
G54D50*
D03*
G54D49*
X186696Y662946D02*
X166853Y662946D01*
X183291Y688974D02*
G54D48*
D03*
X166291Y688975D02*
G54D48*
D03*
G54D49*
X166853Y662946D02*
X166853Y688412D01*
X166291Y688974D01*
X203762Y708653D02*
G54D51*
D03*
X203763Y725653D02*
G54D51*
D03*
X183125Y708653D02*
G54D51*
D03*
X183125Y725653D02*
G54D51*
D03*
G54D49*
X183291Y688974D02*
X183291Y708487D01*
X183125Y708653D01*
X203762Y708653D01*
G36*
X500118Y818007D02*
X511118Y818007D01*
X511119Y806007D01*
X500119Y806007D01*
X500118Y818007D01*
G37*
G36*
X517118Y818007D02*
X528118Y818007D01*
X528119Y806007D01*
X517119Y806007D01*
X517118Y818007D01*
G37*
X505621Y812002D02*
G54D48*
D03*
X99682Y671508D02*
G54D55*
D03*
X99693Y696913D02*
G54D55*
D03*
X99693Y747713D02*
G54D56*
D03*
X99688Y773111D02*
G54D55*
D03*
X99693Y747716D02*
G54D55*
D03*
X48883Y722321D02*
G54D55*
D03*
X350209Y818918D02*
G54D51*
D03*
X350209Y801918D02*
G54D51*
D03*
X329572Y818918D02*
G54D51*
D03*
X329572Y801918D02*
G54D51*
D03*
G54D49*
X370625Y775369D02*
X370625Y781502D01*
X350209Y801918D01*
G54D49*
X329572Y801918D02*
X329572Y791022D01*
X345225Y775369D01*
X329571Y818918D02*
G54D51*
D03*
X350209Y818918D02*
G54D51*
D03*
X306478Y818541D02*
G54D48*
D03*
X289478Y818541D02*
G54D48*
D03*
X306478Y798300D02*
G54D48*
D03*
X289478Y798300D02*
G54D48*
D03*
G54D49*
X306478Y798300D02*
X325954Y798300D01*
X329572Y801918D01*
G54D49*
X306478Y818541D02*
X308584Y818541D01*
X316706Y810419D01*
X341709Y810419D01*
X350209Y801918D01*
X269568Y818541D02*
G54D48*
D03*
X252568Y818541D02*
G54D48*
D03*
X269568Y798300D02*
G54D48*
D03*
X252568Y798300D02*
G54D48*
D03*
G54D49*
X289478Y818541D02*
X269568Y818541D01*
G54D49*
X269568Y798300D02*
X289478Y798300D01*
X180181Y788591D02*
G54D50*
D03*
X203763Y725653D02*
G54D50*
D03*
X30956Y810022D02*
G54D57*
D03*
G54D49*
X605533Y703182D02*
X605533Y713679D01*
X605234Y713978D01*
X442912Y738188D02*
G54D50*
D03*
G54D49*
X436959Y720328D02*
X436959Y732234D01*
X442912Y738188D01*
X536972Y702072D02*
G54D50*
D03*
G54D49*
X572062Y717113D02*
X536931Y717113D01*
X525066Y705247D01*
X493712Y705247D01*
G54D49*
X465931Y707231D02*
X475059Y707231D01*
X484981Y697309D01*
X532209Y697309D01*
X536972Y702072D01*
X630454Y601929D02*
G54D56*
D03*
X655856Y601928D02*
G54D56*
D03*
X681254Y601929D02*
G54D56*
D03*
X706656Y601928D02*
G54D56*
D03*
X732056Y601928D02*
G54D56*
D03*
G54D49*
X630456Y625741D02*
X630454Y601929D01*
G54D49*
X655856Y625741D02*
X655856Y601928D01*
G54D49*
X706656Y625741D02*
X706656Y601928D01*
G54D49*
X732056Y625741D02*
X732056Y601928D01*
X558403Y677069D02*
G54D50*
D03*
G54D49*
X572062Y677113D02*
X558447Y677113D01*
X558403Y677069D01*
X584597Y669131D02*
G54D50*
D03*
G54D49*
X572062Y669113D02*
X584578Y669113D01*
X584597Y669131D01*
X396644Y600638D02*
G54D51*
D03*
X396644Y583638D02*
G54D51*
D03*
X378387Y600638D02*
G54D51*
D03*
X378387Y583638D02*
G54D51*
D03*
X360131Y600638D02*
G54D51*
D03*
X360131Y583638D02*
G54D51*
D03*
X341875Y600638D02*
G54D51*
D03*
X341875Y583638D02*
G54D51*
D03*
X323619Y600638D02*
G54D51*
D03*
X323619Y583638D02*
G54D51*
D03*
X305362Y600638D02*
G54D51*
D03*
X305362Y583638D02*
G54D51*
D03*
X287106Y600638D02*
G54D51*
D03*
X287106Y583638D02*
G54D51*
D03*
X268850Y600638D02*
G54D51*
D03*
X268850Y583638D02*
G54D51*
D03*
X396645Y583635D02*
G54D50*
D03*
X378389Y583635D02*
G54D50*
D03*
X360133Y583635D02*
G54D50*
D03*
X341877Y583635D02*
G54D50*
D03*
X323620Y583635D02*
G54D50*
D03*
X305364Y583635D02*
G54D50*
D03*
X287108Y583635D02*
G54D50*
D03*
X268852Y583635D02*
G54D50*
D03*
G54D49*
X305362Y600638D02*
X305362Y612031D01*
X294425Y622969D01*
G54D49*
X323619Y600638D02*
X323619Y619175D01*
X319825Y622969D01*
G54D49*
X341877Y600635D02*
X341877Y619621D01*
X345225Y622969D01*
G54D49*
X360133Y600635D02*
X360133Y612477D01*
X370625Y622969D01*
G54D49*
X287106Y600638D02*
X287106Y604888D01*
X269025Y622969D01*
G54D49*
X378387Y600638D02*
X378387Y605332D01*
X396025Y622969D01*
G54D49*
X536062Y625112D02*
X536062Y615669D01*
X538956Y612775D01*
X558403Y612775D01*
X564356Y606822D01*
X564356Y603619D01*
X584474Y583502D01*
X607781Y601034D02*
G54D51*
D03*
X607781Y584034D02*
G54D51*
D03*
X607781Y601034D02*
G54D50*
D03*
G54D49*
X607781Y584034D02*
X585006Y584034D01*
X584474Y583502D01*
X584477Y603744D02*
G54D50*
D03*
X228766Y826460D02*
G54D51*
D03*
X228766Y809460D02*
G54D51*
D03*
X210509Y826460D02*
G54D51*
D03*
X210509Y809460D02*
G54D51*
D03*
X192253Y826460D02*
G54D51*
D03*
X192253Y809460D02*
G54D51*
D03*
X173997Y826460D02*
G54D51*
D03*
X173997Y809460D02*
G54D51*
D03*
X155741Y826460D02*
G54D51*
D03*
X155741Y809460D02*
G54D51*
D03*
G54D49*
X183125Y725653D02*
X183125Y728100D01*
X180181Y731044D01*
X180181Y778669D01*
X187722Y786209D01*
X240477Y786209D01*
X252568Y798300D01*
G54D49*
X252568Y818541D02*
X252568Y815734D01*
X241300Y804466D01*
X241300Y792956D01*
X238522Y790178D01*
X181769Y790178D01*
X180181Y788591D01*
X137484Y826460D02*
G54D51*
D03*
X137484Y809460D02*
G54D51*
D03*
X214081Y676837D02*
G54D50*
D03*
G54D49*
X192825Y622969D02*
X195138Y622969D01*
X206375Y634206D01*
X206375Y669131D01*
X214081Y676837D01*
X142874Y587769D02*
G54D56*
D03*
X66675Y587772D02*
G54D56*
D03*
X92075Y587772D02*
G54D56*
D03*
X117474Y587769D02*
G54D56*
D03*
X30956Y591344D02*
G54D57*
D03*
X245662Y587769D02*
G54D56*
D03*
X169466Y587772D02*
G54D56*
D03*
X194866Y587772D02*
G54D56*
D03*
X220262Y587769D02*
G54D56*
D03*
X765175Y591344D02*
G54D57*
D03*
G54D49*
X243625Y622969D02*
X246519Y622969D01*
X268850Y600638D01*
G54D49*
X396644Y600638D02*
X399093Y600638D01*
X421425Y622969D01*
G54D49*
X183125Y725653D02*
X166059Y725653D01*
X124222Y683816D01*
X124222Y644128D01*
X92472Y612378D01*
X92472Y588168D01*
X92075Y587772D01*
G54D49*
X203762Y725653D02*
X201778Y725653D01*
X193278Y717153D01*
X163116Y717153D01*
X128191Y682228D01*
X128191Y636588D01*
X155575Y609203D01*
X173434Y609203D01*
X194866Y587772D01*
G54D49*
X66675Y587772D02*
X66675Y581422D01*
X74612Y573484D01*
X155178Y573484D01*
X169466Y587772D01*
X198206Y693903D02*
G54D50*
D03*
G54D49*
X198206Y693903D02*
X218843Y693903D01*
X239712Y714772D01*
X258762Y714772D01*
X142643Y712556D02*
G54D50*
D03*
G54D49*
X142643Y712556D02*
X142643Y708190D01*
X120253Y685800D01*
X120253Y646112D01*
X69056Y594916D01*
X69056Y590153D01*
X66675Y587772D01*
X765175Y810419D02*
G54D57*
D03*
X758100Y643725D02*
G54D56*
D03*
X758107Y669130D02*
G54D56*
D03*
X758107Y694530D02*
G54D56*
D03*
X758107Y719930D02*
G54D56*
D03*
X758103Y745329D02*
G54D56*
D03*
X758107Y719930D02*
G54D56*
D03*
X696681Y721354D02*
G54D50*
D03*
G54D49*
X99688Y773111D02*
X135666Y773111D01*
X183125Y725653D01*
G54D49*
X180181Y788591D02*
X80169Y788591D01*
X48419Y756841D01*
X48419Y722786D01*
X48883Y722321D01*
X230584Y722709D02*
G54D50*
D03*
X669732Y796085D02*
G54D58*
D03*
X663232Y796085D02*
G54D58*
D03*
G36*
X654731Y804585D02*
X658731Y804585D01*
X658732Y787585D01*
X654732Y787585D01*
X654731Y804585D01*
G37*
X650232Y796086D02*
G54D58*
D03*
X643732Y796085D02*
G54D58*
D03*
X637232Y796085D02*
G54D58*
D03*
G36*
X628731Y804585D02*
X632731Y804585D01*
X632732Y787585D01*
X628732Y787585D01*
X628731Y804585D01*
G37*
X624232Y796085D02*
G54D58*
D03*
G36*
X615731Y804585D02*
X619731Y804586D01*
X619732Y787586D01*
X615732Y787585D01*
X615731Y804585D01*
G37*
G36*
X609231Y804585D02*
X613231Y804585D01*
X613232Y787585D01*
X609232Y787585D01*
X609231Y804585D01*
G37*
X604732Y796085D02*
G54D58*
D03*
G36*
X596231Y804585D02*
X600231Y804586D01*
X600232Y787586D01*
X596232Y787585D01*
X596231Y804585D01*
G37*
X591732Y796085D02*
G54D58*
D03*
X585232Y796085D02*
G54D58*
D03*
X669732Y868085D02*
G54D58*
D03*
X663232Y868086D02*
G54D58*
D03*
G36*
X654731Y876585D02*
X658731Y876585D01*
X658732Y859585D01*
X654732Y859585D01*
X654731Y876585D01*
G37*
X650232Y868085D02*
G54D58*
D03*
G36*
X641731Y876585D02*
X645731Y876585D01*
X645732Y859585D01*
X641732Y859585D01*
X641731Y876585D01*
G37*
G36*
X635231Y876585D02*
X639231Y876585D01*
X639232Y859585D01*
X635232Y859585D01*
X635231Y876585D01*
G37*
G36*
X628732Y876585D02*
X632732Y876585D01*
X632732Y859585D01*
X628732Y859585D01*
X628732Y876585D01*
G37*
X624232Y868085D02*
G54D58*
D03*
X617732Y868085D02*
G54D58*
D03*
G36*
X609231Y876585D02*
X613231Y876585D01*
X613232Y859585D01*
X609232Y859585D01*
X609231Y876585D01*
G37*
G36*
X602732Y876585D02*
X606732Y876585D01*
X606732Y859585D01*
X602732Y859585D01*
X602732Y876585D01*
G37*
G36*
X596231Y876585D02*
X600231Y876586D01*
X600232Y859586D01*
X596232Y859585D01*
X596231Y876585D01*
G37*
X591732Y868085D02*
G54D58*
D03*
X585232Y868085D02*
G54D58*
D03*
X604731Y796088D02*
G54D58*
D03*
X630732Y868085D02*
G54D58*
D03*
X624237Y796077D02*
G54D58*
D03*
X671402Y967251D02*
G54D59*
D03*
X671402Y911688D02*
G54D59*
D03*
X582502Y911688D02*
G54D59*
D03*
X582502Y967251D02*
G54D59*
D03*
X642971Y905670D02*
G54D60*
D03*
X634971Y905670D02*
G54D60*
D03*
X626971Y905670D02*
G54D60*
D03*
X618971Y905670D02*
G54D60*
D03*
X610971Y905670D02*
G54D60*
D03*
G36*
X607971Y916670D02*
X613971Y916670D01*
X613971Y894670D01*
X607971Y894670D01*
X607971Y916670D01*
G37*
X627062Y920750D02*
G54D50*
D03*
G54D49*
X626971Y905670D02*
X626971Y920658D01*
X627062Y920750D01*
X635000Y890191D02*
G54D50*
D03*
G54D49*
X635000Y890191D02*
X635000Y905640D01*
X634971Y905670D01*
X584994Y812006D02*
G54D50*
D03*
X591741Y821134D02*
G54D50*
D03*
G54D49*
X591732Y796085D02*
X591732Y821126D01*
X591741Y821134D01*
G54D49*
X585232Y796085D02*
X585232Y811768D01*
X584994Y812006D01*
X598488Y828675D02*
G54D50*
D03*
G54D49*
X598628Y796085D02*
X598628Y828419D01*
X598884Y828675D01*
G54D49*
X650232Y868085D02*
X650232Y857004D01*
X617538Y824309D01*
X617538Y796280D01*
X617732Y796086D01*
X617538Y824309D02*
G54D50*
D03*
X650232Y796086D02*
G54D58*
D03*
X642938Y920750D02*
G54D50*
D03*
G54D49*
X642971Y905670D02*
X642971Y920717D01*
X642938Y920750D01*
X650081Y883047D02*
G54D50*
D03*
G54D49*
X650232Y868085D02*
X650232Y882896D01*
X650081Y883047D01*
G54D53*
G75*
G01X684466Y854849D02*
G03X699944Y839371I15478J0D01*
G01*
G54D53*
G75*
G01X553894Y839371D02*
G03X569372Y854849I0J15478D01*
G01*
X677805Y868007D02*
G54D50*
D03*
G54D49*
X669732Y868085D02*
X677727Y868085D01*
X677805Y868007D01*
X636927Y853720D02*
G54D50*
D03*
G54D49*
X636927Y853720D02*
X639804Y853720D01*
X643731Y857647D01*
X643732Y868085D01*
G54D53*
G75*
G01X584850Y993755D02*
G03X569372Y978277I0J-15478D01*
G01*
G54D53*
G75*
G01X684524Y978238D02*
G03X669046Y993716I-15478J0D01*
G01*
G54D53*
X779066Y839391D02*
X699944Y839371D01*
G54D53*
X584850Y993755D02*
X669006Y993755D01*
G54D53*
X569372Y978277D02*
X569372Y854849D01*
G54D53*
X684466Y854849D02*
X684466Y978180D01*
X684524Y978238D01*
X607219Y975122D02*
G54D50*
D03*
X463947Y826294D02*
G54D50*
D03*
X734616Y829866D02*
G54D50*
D03*
X483394Y659209D02*
G54D50*
D03*
X474266Y589359D02*
G54D50*
D03*
X77391Y722312D02*
G54D50*
D03*
X75009Y814388D02*
G54D50*
D03*
X122238Y613569D02*
G54D50*
D03*
X688578Y667147D02*
G54D50*
D03*
X137486Y826457D02*
G54D50*
D03*
X155742Y826457D02*
G54D50*
D03*
X173997Y826460D02*
G54D50*
D03*
X192255Y826457D02*
G54D50*
D03*
X210511Y826457D02*
G54D50*
D03*
X228767Y826457D02*
G54D50*
D03*
X137486Y809457D02*
G54D51*
D03*
X155740Y809460D02*
G54D51*
D03*
X173997Y809460D02*
G54D51*
D03*
X192253Y809460D02*
G54D51*
D03*
X210509Y809460D02*
G54D51*
D03*
X228766Y809460D02*
G54D51*
D03*
X565547Y738981D02*
G54D50*
D03*
X551656Y803672D02*
G54D50*
D03*
X551656Y827881D02*
G54D50*
D03*
G54D49*
X551656Y827881D02*
X565944Y827881D01*
X578644Y840581D01*
X633809Y840581D01*
X650232Y857004D01*
X758182Y776307D02*
G54D50*
D03*
G54D49*
X758103Y745329D02*
X758103Y776227D01*
X758182Y776307D01*
G54D29*
X665105Y697754D02*
X665105Y670264D01*
X653256Y658416D01*
G54D29*
X653256Y658416D02*
X638784Y658416D01*
X612088Y685113D01*
X639762Y692150D02*
G54D61*
D03*
X652462Y692150D02*
G54D61*
D03*
X665162Y692150D02*
G54D61*
D03*
X677862Y692547D02*
G54D61*
D03*
X639762Y753269D02*
G54D61*
D03*
X652462Y753269D02*
G54D61*
D03*
X665162Y753269D02*
G54D61*
D03*
X677862Y753269D02*
G54D61*
D03*
X554829Y781051D02*
G54D62*
D03*
X503832Y781050D02*
G54D62*
D03*
G54D63*
X522618Y812007D02*
X522618Y799838D01*
X503832Y781050D01*
G54D63*
X639762Y753269D02*
X639762Y761603D01*
X626666Y774700D01*
X586184Y774700D01*
X563166Y797719D01*
X563166Y799306D01*
X558800Y803672D01*
X551656Y803672D01*
G54D63*
X551656Y803672D02*
X530953Y803672D01*
X522618Y812007D01*
M02*
