%FSLAX34Y34*%
%MOMM*%
%LNCOPPER_BOTTOM*%
G71*
G01*
%ADD10C, 0.10*%
%ADD11C, 0.10*%
%ADD12C, 0.04*%
%ADD13C, 0.07*%
%ADD14C, 0.06*%
%ADD15C, 0.16*%
%ADD16C, 0.08*%
%ADD17C, 0.15*%
%ADD18C, 0.13*%
%ADD19C, 0.31*%
%ADD20C, 0.30*%
%ADD21C, 0.00*%
%ADD22C, 0.03*%
%ADD23C, 0.24*%
%LPD*%
G54D10*
X730816Y622689D02*
X734588Y618918D01*
X731288Y620332D01*
X732702Y617032D01*
X728931Y620804D01*
G54D10*
X726809Y617268D02*
X726526Y617928D01*
X726667Y618540D01*
X727045Y618918D01*
X727657Y619059D01*
X728317Y618776D01*
X730674Y616419D01*
X730957Y615759D01*
X730816Y615146D01*
X730439Y614769D01*
X729826Y614628D01*
X729166Y614911D01*
G54D10*
X728553Y612884D02*
X724782Y616655D01*
X723462Y615335D01*
G54D10*
X723273Y611375D02*
X722236Y611280D01*
X721576Y611563D01*
X720633Y612506D01*
G54D10*
X722142Y614014D02*
X725913Y610243D01*
X724970Y609300D01*
X724357Y609159D01*
X723697Y609442D01*
X723226Y609913D01*
X722943Y610573D01*
X723084Y611186D01*
X724027Y612129D01*
G54D10*
X709050Y618637D02*
X704336Y621466D01*
X707164Y616752D01*
G54D10*
X701271Y616987D02*
X700988Y617647D01*
X701130Y618260D01*
X701507Y618637D01*
X702120Y618778D01*
X702780Y618496D01*
X705137Y616139D01*
X705420Y615479D01*
X705278Y614866D01*
X704901Y614489D01*
X704288Y614347D01*
X703628Y614630D01*
G54D10*
X698443Y614159D02*
X698160Y614819D01*
X698301Y615431D01*
X698679Y615808D01*
X699291Y615950D01*
X699951Y615667D01*
X702308Y613310D01*
X702591Y612650D01*
X702450Y612037D01*
X702073Y611660D01*
X701460Y611519D01*
X700800Y611802D01*
G54D10*
X681153Y619769D02*
X680399Y619015D01*
X679220Y620193D01*
X678938Y620853D01*
X679079Y621466D01*
X679456Y621843D01*
X680069Y621984D01*
X680729Y621702D01*
X683086Y619344D01*
X683369Y618685D01*
X683227Y618072D01*
X682850Y617695D01*
X682237Y617553D01*
X681577Y617836D01*
G54D10*
X677193Y619580D02*
X680964Y615809D01*
X675685Y618072D01*
X679456Y614300D01*
G54D10*
X674365Y616752D02*
X678136Y612981D01*
X677193Y612038D01*
X676580Y611896D01*
X675921Y612179D01*
X673564Y614536D01*
X673281Y615196D01*
X673422Y615809D01*
X674365Y616752D01*
G54D10*
X655045Y621567D02*
X658817Y617796D01*
X657874Y616853D01*
X657261Y616711D01*
X656601Y616994D01*
X656130Y617466D01*
X655847Y618126D01*
X655988Y618738D01*
X656931Y619681D01*
G54D10*
X653348Y616099D02*
X652594Y615344D01*
X651416Y616523D01*
X651133Y617183D01*
X651274Y617796D01*
X651651Y618173D01*
X652264Y618314D01*
X652924Y618031D01*
X655281Y615674D01*
X655564Y615014D01*
X655422Y614401D01*
X655045Y614024D01*
X654432Y613883D01*
X653773Y614166D01*
G54D10*
X649389Y615910D02*
X653160Y612139D01*
X652217Y611196D01*
X651604Y611054D01*
X650944Y611337D01*
X648587Y613694D01*
X648304Y614354D01*
X648446Y614967D01*
X649389Y615910D01*
G54D10*
X628666Y621567D02*
X632437Y617796D01*
X631494Y616853D01*
X630882Y616711D01*
X630221Y616994D01*
X629750Y617466D01*
X629467Y618126D01*
X629609Y618738D01*
X630552Y619681D01*
G54D10*
X626969Y616099D02*
X626215Y615344D01*
X625036Y616523D01*
X624753Y617183D01*
X624895Y617796D01*
X625272Y618173D01*
X625885Y618314D01*
X626545Y618031D01*
X628902Y615674D01*
X629184Y615014D01*
X629043Y614401D01*
X628666Y614024D01*
X628053Y613883D01*
X627393Y614166D01*
G54D10*
X622208Y613694D02*
X621925Y614354D01*
X622066Y614967D01*
X622443Y615344D01*
X623056Y615486D01*
X623716Y615203D01*
X626073Y612846D01*
X626356Y612186D01*
X626215Y611573D01*
X625837Y611196D01*
X625225Y611054D01*
X624565Y611337D01*
G54D11*
X470187Y738487D02*
X458280Y728169D01*
X458280Y632125D01*
X564643Y632125D01*
X564643Y738488D01*
X470187Y738487D01*
G54D12*
X463663Y725270D02*
X464463Y724825D01*
X464730Y724381D01*
X464730Y723492D01*
G54D12*
X462596Y723492D02*
X462596Y727048D01*
X463929Y727047D01*
X464463Y726825D01*
X464730Y726381D01*
X464730Y725936D01*
X464463Y725492D01*
X463930Y725270D01*
X462596Y725270D01*
G54D12*
X467830Y724158D02*
X467563Y723714D01*
X467030Y723492D01*
X466496Y723492D01*
X465963Y723714D01*
X465696Y724159D01*
X465696Y726381D01*
X465963Y726825D01*
X466496Y727048D01*
X467030Y727047D01*
X467563Y726825D01*
X467830Y726381D01*
G54D12*
X468796Y727047D02*
X470930Y727048D01*
X470663Y726603D01*
X470130Y725936D01*
X469596Y725048D01*
X469330Y724381D01*
X469330Y723492D01*
G54D12*
X463700Y717114D02*
X464500Y716669D01*
X464767Y716224D01*
X464767Y715336D01*
G54D12*
X462634Y715336D02*
X462634Y718891D01*
X463967Y718891D01*
X464500Y718669D01*
X464767Y718225D01*
X464767Y717780D01*
X464500Y717336D01*
X463967Y717114D01*
X462634Y717114D01*
G54D12*
X465734Y715336D02*
X465734Y718891D01*
X467067Y718891D01*
X467600Y718669D01*
X467867Y718225D01*
X467867Y716002D01*
X467600Y715558D01*
X467067Y715336D01*
X465734Y715336D01*
G54D12*
X470434Y715336D02*
X470434Y718891D01*
X468834Y716669D01*
X468834Y716225D01*
X470967Y716224D01*
G54D12*
X463904Y709296D02*
X464704Y708852D01*
X464970Y708408D01*
X464970Y707519D01*
G54D12*
X462837Y707519D02*
X462837Y711074D01*
X464170Y711074D01*
X464704Y710852D01*
X464970Y710408D01*
X464970Y709963D01*
X464704Y709519D01*
X464170Y709297D01*
X462837Y709297D01*
G54D12*
X465937Y707519D02*
X465937Y711074D01*
X467270Y711074D01*
X467804Y710852D01*
X468070Y710408D01*
X468070Y708186D01*
X467804Y707741D01*
X467270Y707519D01*
X465937Y707519D01*
G54D12*
X471170Y711074D02*
X469037Y711074D01*
X469037Y709519D01*
X469304Y709519D01*
X469837Y709741D01*
X470370Y709741D01*
X470904Y709519D01*
X471170Y709074D01*
X471170Y708186D01*
X470904Y707741D01*
X470370Y707519D01*
X469837Y707519D01*
X469304Y707741D01*
X469037Y708185D01*
G54D12*
X463904Y701359D02*
X464704Y700915D01*
X464970Y700470D01*
X464970Y699581D01*
G54D12*
X462837Y699581D02*
X462837Y703137D01*
X464170Y703137D01*
X464704Y702915D01*
X464970Y702470D01*
X464970Y702026D01*
X464704Y701581D01*
X464170Y701359D01*
X462837Y701359D01*
G54D12*
X465937Y699581D02*
X465937Y703137D01*
X467270Y703137D01*
X467804Y702915D01*
X468070Y702470D01*
X468070Y700248D01*
X467804Y699804D01*
X467270Y699581D01*
X465937Y699581D01*
G54D12*
X471170Y702470D02*
X470904Y702915D01*
X470370Y703137D01*
X469837Y703137D01*
X469304Y702914D01*
X469037Y702470D01*
X469037Y701359D01*
X469037Y701137D01*
X469837Y701581D01*
X470370Y701581D01*
X470904Y701359D01*
X471170Y700915D01*
X471170Y700248D01*
X470904Y699804D01*
X470370Y699581D01*
X469837Y699581D01*
X469304Y699804D01*
X469037Y700248D01*
X469037Y701359D01*
G54D12*
X463904Y693422D02*
X464704Y692977D01*
X464970Y692533D01*
X464970Y691644D01*
G54D12*
X462837Y691644D02*
X462837Y695199D01*
X464170Y695199D01*
X464704Y694977D01*
X464970Y694533D01*
X464970Y694088D01*
X464704Y693644D01*
X464170Y693422D01*
X462837Y693422D01*
G54D12*
X465937Y691644D02*
X465937Y695199D01*
X467270Y695199D01*
X467804Y694977D01*
X468070Y694533D01*
X468070Y692311D01*
X467804Y691866D01*
X467270Y691644D01*
X465937Y691644D01*
G54D12*
X469037Y695199D02*
X471170Y695199D01*
X470904Y694755D01*
X470370Y694088D01*
X469837Y693199D01*
X469570Y692533D01*
X469570Y691644D01*
G54D12*
X462681Y687506D02*
X464014Y683950D01*
X465347Y687506D01*
G54D12*
X466381Y684172D02*
X466914Y683950D01*
X467447Y683950D01*
X467981Y684172D01*
X467981Y684617D01*
X467714Y684839D01*
X466647Y685061D01*
X466381Y685283D01*
X466380Y685728D01*
X466914Y685950D01*
X467447Y685950D01*
X467980Y685728D01*
G54D12*
X468981Y684172D02*
X469514Y683950D01*
X470047Y683950D01*
X470581Y684172D01*
X470581Y684617D01*
X470314Y684839D01*
X469247Y685061D01*
X468981Y685283D01*
X468981Y685728D01*
X469514Y685950D01*
X470047Y685950D01*
X470581Y685728D01*
G54D12*
X462481Y679568D02*
X463814Y676012D01*
X465147Y679568D01*
G54D12*
X467781Y676012D02*
X467780Y679568D01*
G54D12*
X467781Y677435D02*
X467514Y677879D01*
X466980Y678013D01*
X466447Y677879D01*
X466181Y677435D01*
X466181Y676546D01*
X466447Y676102D01*
X466981Y676012D01*
X467514Y676102D01*
X467781Y676546D01*
G54D12*
X470381Y676012D02*
X470381Y679568D01*
G54D12*
X470381Y677435D02*
X470114Y677879D01*
X469581Y678012D01*
X469047Y677879D01*
X468781Y677435D01*
X468781Y676546D01*
X469047Y676102D01*
X469581Y676012D01*
X470114Y676101D01*
X470381Y676546D01*
G54D12*
X463548Y669853D02*
X464347Y669408D01*
X464614Y668964D01*
X464614Y668075D01*
G54D12*
X462480Y668075D02*
X462481Y671631D01*
X463814Y671631D01*
X464347Y671408D01*
X464614Y670964D01*
X464614Y670519D01*
X464347Y670075D01*
X463814Y669853D01*
X462481Y669853D01*
G54D12*
X465580Y668075D02*
X465581Y671631D01*
X466914Y671631D01*
X467447Y671408D01*
X467714Y670964D01*
X467714Y670520D01*
X467447Y670075D01*
X466914Y669853D01*
X467447Y669631D01*
X467714Y669186D01*
X467714Y668742D01*
X467447Y668297D01*
X466914Y668075D01*
X465580Y668075D01*
G54D12*
X465580Y669853D02*
X466914Y669853D01*
G54D12*
X470814Y670964D02*
X470814Y668742D01*
X470547Y668297D01*
X470014Y668075D01*
X469480Y668075D01*
X468947Y668297D01*
X468680Y668742D01*
X468681Y670964D01*
X468947Y671408D01*
X469481Y671631D01*
X470014Y671630D01*
X470547Y671408D01*
X470814Y670964D01*
G54D12*
X463547Y661915D02*
X464347Y661471D01*
X464614Y661026D01*
X464614Y660138D01*
G54D12*
X462481Y660138D02*
X462481Y663693D01*
X463814Y663693D01*
X464347Y663471D01*
X464614Y663026D01*
X464614Y662582D01*
X464347Y662138D01*
X463814Y661915D01*
X462480Y661915D01*
G54D12*
X465580Y660138D02*
X465580Y663693D01*
X466914Y663693D01*
X467447Y663471D01*
X467714Y663026D01*
X467714Y662582D01*
X467447Y662138D01*
X466914Y661915D01*
X467447Y661693D01*
X467714Y661249D01*
X467714Y660804D01*
X467447Y660360D01*
X466914Y660138D01*
X465580Y660138D01*
G54D12*
X465580Y661915D02*
X466914Y661915D01*
G54D12*
X468681Y662360D02*
X470014Y663693D01*
X470014Y660138D01*
G54D12*
X463547Y653978D02*
X464347Y653533D01*
X464614Y653089D01*
X464614Y652200D01*
G54D12*
X462481Y652200D02*
X462480Y655756D01*
X463814Y655756D01*
X464347Y655533D01*
X464614Y655089D01*
X464614Y654644D01*
X464347Y654200D01*
X463814Y653978D01*
X462480Y653978D01*
G54D12*
X465580Y652200D02*
X465580Y655756D01*
X466914Y655756D01*
X467447Y655533D01*
X467714Y655089D01*
X467714Y654644D01*
X467447Y654200D01*
X466914Y653978D01*
X467447Y653756D01*
X467714Y653311D01*
X467714Y652867D01*
X467447Y652422D01*
X466914Y652200D01*
X465580Y652200D01*
G54D12*
X465580Y653978D02*
X466914Y653978D01*
G54D12*
X470814Y652200D02*
X468681Y652200D01*
X468681Y652422D01*
X468947Y652867D01*
X470547Y654200D01*
X470814Y654644D01*
X470814Y655089D01*
X470547Y655533D01*
X470014Y655756D01*
X469480Y655756D01*
X468947Y655533D01*
X468681Y655089D01*
G54D12*
X463547Y645246D02*
X464347Y644802D01*
X464614Y644358D01*
X464614Y643469D01*
G54D12*
X462481Y643469D02*
X462481Y647024D01*
X463814Y647024D01*
X464347Y646802D01*
X464614Y646358D01*
X464614Y645913D01*
X464347Y645469D01*
X463814Y645246D01*
X462481Y645246D01*
G54D12*
X465580Y643469D02*
X465580Y647024D01*
X466914Y647024D01*
X467447Y646802D01*
X467714Y646358D01*
X467714Y645913D01*
X467447Y645469D01*
X466914Y645247D01*
X467447Y645024D01*
X467714Y644580D01*
X467714Y644136D01*
X467447Y643691D01*
X466914Y643469D01*
X465580Y643469D01*
G54D12*
X465580Y645246D02*
X466914Y645247D01*
G54D12*
X468681Y646358D02*
X468947Y646802D01*
X469481Y647024D01*
X470014Y647024D01*
X470547Y646802D01*
X470814Y646358D01*
X470814Y645913D01*
X470547Y645469D01*
X470014Y645246D01*
X470547Y645024D01*
X470814Y644580D01*
X470814Y644136D01*
X470547Y643691D01*
X470014Y643469D01*
X469480Y643469D01*
X468947Y643691D01*
X468681Y644136D01*
G54D12*
X469624Y642319D02*
X473180Y642319D01*
X469624Y640186D01*
X473180Y640186D01*
G54D12*
X470291Y637086D02*
X469846Y637352D01*
X469624Y637886D01*
X469624Y638419D01*
X469846Y638952D01*
X470291Y639219D01*
X472513Y639219D01*
X472958Y638952D01*
X473180Y638419D01*
X473180Y637886D01*
X472958Y637352D01*
X472513Y637085D01*
G54D12*
X477562Y642319D02*
X481117Y642319D01*
X477562Y640186D01*
X481117Y640186D01*
G54D12*
X478228Y637085D02*
X477784Y637352D01*
X477562Y637886D01*
X477562Y638419D01*
X477784Y638952D01*
X478228Y639219D01*
X480451Y639219D01*
X480895Y638952D01*
X481117Y638419D01*
X481117Y637886D01*
X480895Y637352D01*
X480451Y637086D01*
G54D12*
X487277Y643558D02*
X486833Y642758D01*
X486388Y642492D01*
X485499Y642492D01*
G54D12*
X485499Y644625D02*
X489055Y644625D01*
X489055Y643292D01*
X488833Y642758D01*
X488388Y642492D01*
X487944Y642492D01*
X487499Y642758D01*
X487277Y643292D01*
X487277Y644625D01*
G54D12*
X485499Y641525D02*
X489055Y641525D01*
X489055Y640192D01*
X488833Y639658D01*
X488388Y639392D01*
X487944Y639392D01*
X487499Y639658D01*
X487277Y640192D01*
X487055Y639658D01*
X486610Y639392D01*
X486166Y639392D01*
X485722Y639658D01*
X485499Y640192D01*
X485499Y641525D01*
G54D12*
X487277Y641525D02*
X487277Y640192D01*
G54D12*
X485499Y636825D02*
X489055Y636825D01*
X486833Y638425D01*
X486388Y638425D01*
X486388Y636292D01*
G54D12*
X495215Y643558D02*
X494770Y642758D01*
X494326Y642492D01*
X493437Y642492D01*
G54D12*
X493437Y644625D02*
X496992Y644625D01*
X496992Y643292D01*
X496770Y642758D01*
X496326Y642492D01*
X495881Y642492D01*
X495437Y642758D01*
X495214Y643292D01*
X495214Y644625D01*
G54D12*
X493437Y641525D02*
X496992Y641525D01*
X496992Y640192D01*
X496770Y639658D01*
X496326Y639392D01*
X495881Y639392D01*
X495437Y639658D01*
X495215Y640192D01*
X494992Y639658D01*
X494548Y639392D01*
X494104Y639392D01*
X493659Y639658D01*
X493437Y640192D01*
X493437Y641525D01*
G54D12*
X495215Y641525D02*
X495215Y640192D01*
G54D12*
X496992Y636292D02*
X496992Y638425D01*
X495437Y638425D01*
X495437Y638158D01*
X495659Y637625D01*
X495659Y637092D01*
X495437Y636558D01*
X494992Y636292D01*
X494104Y636292D01*
X493659Y636558D01*
X493437Y637092D01*
X493437Y637625D01*
X493659Y638158D01*
X494104Y638425D01*
G54D12*
X503152Y643558D02*
X502708Y642758D01*
X502263Y642492D01*
X501374Y642492D01*
G54D12*
X501374Y644625D02*
X504930Y644625D01*
X504930Y643292D01*
X504708Y642758D01*
X504263Y642492D01*
X503819Y642492D01*
X503374Y642758D01*
X503152Y643292D01*
X503152Y644625D01*
G54D12*
X501374Y641525D02*
X504930Y641525D01*
X504930Y640192D01*
X504708Y639658D01*
X504263Y639392D01*
X503819Y639392D01*
X503374Y639658D01*
X503152Y640192D01*
X502930Y639658D01*
X502486Y639392D01*
X502041Y639392D01*
X501597Y639658D01*
X501374Y640192D01*
X501374Y641525D01*
G54D12*
X503152Y641525D02*
X503152Y640192D01*
G54D12*
X504263Y636292D02*
X504708Y636558D01*
X504930Y637092D01*
X504930Y637625D01*
X504708Y638158D01*
X504263Y638425D01*
X503152Y638425D01*
X502930Y638425D01*
X503374Y637625D01*
X503374Y637092D01*
X503152Y636558D01*
X502708Y636292D01*
X502041Y636292D01*
X501596Y636558D01*
X501374Y637092D01*
X501374Y637625D01*
X501596Y638158D01*
X502041Y638425D01*
X503152Y638425D01*
G54D12*
X511090Y643558D02*
X510645Y642758D01*
X510201Y642492D01*
X509312Y642492D01*
G54D12*
X509312Y644625D02*
X512868Y644625D01*
X512867Y643292D01*
X512645Y642758D01*
X512201Y642492D01*
X511756Y642492D01*
X511312Y642758D01*
X511090Y643292D01*
X511090Y644625D01*
G54D12*
X509312Y641525D02*
X512867Y641525D01*
X512867Y640192D01*
X512645Y639658D01*
X512201Y639392D01*
X511756Y639392D01*
X511312Y639658D01*
X511090Y640192D01*
X510867Y639658D01*
X510423Y639392D01*
X509979Y639392D01*
X509534Y639658D01*
X509312Y640192D01*
X509312Y641525D01*
G54D12*
X511090Y641525D02*
X511090Y640192D01*
G54D12*
X512868Y638425D02*
X512867Y636292D01*
X512423Y636558D01*
X511756Y637092D01*
X510867Y637625D01*
X510201Y637892D01*
X509312Y637892D01*
G54D12*
X518043Y648125D02*
X521599Y648125D01*
X519376Y646792D01*
X521599Y645458D01*
X518043Y645458D01*
G54D12*
X518710Y642292D02*
X518265Y642558D01*
X518043Y643092D01*
X518043Y643625D01*
X518265Y644158D01*
X518710Y644425D01*
X520932Y644425D01*
X521376Y644158D01*
X521599Y643625D01*
X521599Y643092D01*
X521376Y642558D01*
X520932Y642292D01*
G54D12*
X521599Y641325D02*
X518043Y641325D01*
X518043Y639458D01*
G54D12*
X519821Y637358D02*
X519376Y636558D01*
X518932Y636292D01*
X518043Y636292D01*
G54D12*
X518043Y638425D02*
X521599Y638425D01*
X521599Y637092D01*
X521376Y636558D01*
X520932Y636292D01*
X520488Y636292D01*
X520043Y636558D01*
X519821Y637092D01*
X519821Y638425D01*
G54D12*
X527758Y644952D02*
X527314Y644152D01*
X526869Y643886D01*
X525981Y643886D01*
G54D12*
X525981Y646019D02*
X529536Y646019D01*
X529536Y644686D01*
X529314Y644152D01*
X528870Y643886D01*
X528425Y643886D01*
X527980Y644152D01*
X527758Y644686D01*
X527758Y646019D01*
G54D12*
X525981Y642919D02*
X529536Y641586D01*
X525981Y640252D01*
G54D12*
X527314Y642385D02*
X527314Y640786D01*
G54D12*
X528870Y637086D02*
X526647Y637086D01*
X526203Y637352D01*
X525981Y637886D01*
X525981Y638419D01*
X526203Y638952D01*
X526647Y639219D01*
X528870Y639219D01*
X529314Y638952D01*
X529536Y638419D01*
X529536Y637886D01*
X529314Y637352D01*
X528870Y637086D01*
G54D12*
X534902Y644152D02*
X534458Y643352D01*
X534013Y643086D01*
X533124Y643086D01*
G54D12*
X533124Y645219D02*
X536680Y645219D01*
X536680Y643886D01*
X536458Y643352D01*
X536013Y643086D01*
X535569Y643086D01*
X535124Y643352D01*
X534902Y643886D01*
X534902Y645219D01*
G54D12*
X533124Y642119D02*
X536680Y640786D01*
X533124Y639452D01*
G54D12*
X534458Y641586D02*
X534458Y639986D01*
G54D12*
X535347Y638419D02*
X536680Y637086D01*
X533124Y637086D01*
G54D12*
X542840Y644158D02*
X542395Y643358D01*
X541951Y643092D01*
X541062Y643092D01*
G54D12*
X541062Y645225D02*
X544618Y645225D01*
X544617Y643892D01*
X544395Y643358D01*
X543951Y643092D01*
X543506Y643092D01*
X543062Y643358D01*
X542840Y643892D01*
X542840Y645225D01*
G54D12*
X541062Y642125D02*
X544617Y640792D01*
X541062Y639458D01*
G54D12*
X542395Y641592D02*
X542395Y639992D01*
G54D12*
X541062Y636292D02*
X541062Y638425D01*
X541284Y638425D01*
X541729Y638158D01*
X543062Y636558D01*
X543506Y636292D01*
X543951Y636292D01*
X544395Y636558D01*
X544617Y637092D01*
X544617Y637625D01*
X544395Y638158D01*
X543951Y638425D01*
G54D12*
X551571Y644158D02*
X551126Y643358D01*
X550682Y643092D01*
X549793Y643092D01*
G54D12*
X549793Y645225D02*
X553349Y645225D01*
X553349Y643892D01*
X553126Y643358D01*
X552682Y643092D01*
X552238Y643092D01*
X551793Y643358D01*
X551571Y643892D01*
X551571Y645225D01*
G54D12*
X549793Y642125D02*
X553349Y640792D01*
X549793Y639458D01*
G54D12*
X551126Y641592D02*
X551126Y639992D01*
G54D12*
X552682Y638425D02*
X553126Y638158D01*
X553349Y637625D01*
X553349Y637092D01*
X553126Y636558D01*
X552682Y636292D01*
X552237Y636292D01*
X551793Y636558D01*
X551571Y637092D01*
X551349Y636558D01*
X550904Y636292D01*
X550460Y636292D01*
X550015Y636558D01*
X549793Y637092D01*
X549793Y637625D01*
X550015Y638158D01*
X550460Y638425D01*
G54D12*
X554035Y645247D02*
X554835Y644802D01*
X555101Y644358D01*
X555101Y643469D01*
G54D12*
X552968Y643469D02*
X552968Y647024D01*
X554301Y647024D01*
X554835Y646802D01*
X555101Y646358D01*
X555101Y645913D01*
X554835Y645469D01*
X554301Y645246D01*
X552968Y645246D01*
G54D12*
X556068Y643469D02*
X557401Y647024D01*
X558735Y643469D01*
G54D12*
X556601Y644802D02*
X558201Y644802D01*
G54D12*
X561368Y643469D02*
X561368Y647024D01*
X559768Y644802D01*
X559768Y644358D01*
X561901Y644358D01*
G54D12*
X553241Y652390D02*
X554041Y651946D01*
X554308Y651501D01*
X554308Y650612D01*
G54D12*
X552174Y650613D02*
X552174Y654168D01*
X553508Y654168D01*
X554041Y653946D01*
X554308Y653501D01*
X554308Y653057D01*
X554041Y652612D01*
X553508Y652390D01*
X552174Y652390D01*
G54D12*
X555274Y650612D02*
X556608Y654168D01*
X557941Y650612D01*
G54D12*
X555808Y651946D02*
X557408Y651946D01*
G54D12*
X561108Y654168D02*
X558974Y654168D01*
X558974Y652612D01*
X559241Y652612D01*
X559774Y652835D01*
X560308Y652835D01*
X560841Y652612D01*
X561107Y652168D01*
X561108Y651279D01*
X560841Y650835D01*
X560308Y650612D01*
X559774Y650612D01*
X559241Y650835D01*
X558974Y651279D01*
G54D12*
X554035Y660328D02*
X554835Y659883D01*
X555101Y659439D01*
X555101Y658550D01*
G54D12*
X552968Y658550D02*
X552968Y662106D01*
X554301Y662106D01*
X554835Y661883D01*
X555101Y661439D01*
X555101Y660994D01*
X554835Y660550D01*
X554301Y660328D01*
X552968Y660328D01*
G54D12*
X557935Y658550D02*
X556068Y658550D01*
X556068Y662106D01*
X557935Y662106D01*
G54D12*
X556068Y660328D02*
X557935Y660328D01*
G54D12*
X561101Y661439D02*
X561101Y659217D01*
X560835Y658772D01*
X560301Y658550D01*
X559768Y658550D01*
X559235Y658772D01*
X558968Y659217D01*
X558968Y661439D01*
X559235Y661883D01*
X559768Y662106D01*
X560301Y662106D01*
X560835Y661883D01*
X561101Y661439D01*
G54D12*
X554828Y668265D02*
X555628Y667821D01*
X555895Y667376D01*
X555895Y666488D01*
G54D12*
X553762Y666488D02*
X553762Y670043D01*
X555095Y670043D01*
X555628Y669821D01*
X555895Y669376D01*
X555895Y668932D01*
X555629Y668488D01*
X555095Y668265D01*
X553762Y668265D01*
G54D12*
X558728Y666488D02*
X556862Y666488D01*
X556862Y670043D01*
X558728Y670043D01*
G54D12*
X556862Y668265D02*
X558728Y668265D01*
G54D12*
X559762Y668710D02*
X561095Y670043D01*
X561095Y666488D01*
G54D12*
X554035Y676203D02*
X554835Y675758D01*
X555101Y675314D01*
X555101Y674425D01*
G54D12*
X552968Y674425D02*
X552968Y677981D01*
X554301Y677981D01*
X554835Y677758D01*
X555101Y677314D01*
X555101Y676870D01*
X554835Y676425D01*
X554301Y676203D01*
X552968Y676203D01*
G54D12*
X557935Y674425D02*
X556068Y674425D01*
X556068Y677981D01*
X557935Y677981D01*
G54D12*
X556068Y676203D02*
X557935Y676203D01*
G54D12*
X561101Y674425D02*
X558968Y674425D01*
X558968Y674647D01*
X559235Y675092D01*
X560835Y676425D01*
X561101Y676870D01*
X561101Y677314D01*
X560835Y677758D01*
X560301Y677981D01*
X559768Y677980D01*
X559235Y677758D01*
X558968Y677314D01*
G54D12*
X552968Y687506D02*
X554301Y683950D01*
X555635Y687506D01*
G54D12*
X558268Y683950D02*
X558268Y687506D01*
G54D12*
X558268Y685372D02*
X558001Y685817D01*
X557468Y685950D01*
X556935Y685817D01*
X556668Y685372D01*
X556668Y684483D01*
X556935Y684039D01*
X557468Y683950D01*
X558001Y684039D01*
X558268Y684483D01*
G54D12*
X560868Y683950D02*
X560868Y687506D01*
G54D12*
X560868Y685372D02*
X560601Y685817D01*
X560068Y685950D01*
X559535Y685817D01*
X559268Y685372D01*
X559268Y684483D01*
X559535Y684039D01*
X560068Y683950D01*
X560601Y684039D01*
X560868Y684483D01*
G54D12*
X552968Y694649D02*
X554301Y691094D01*
X555635Y694649D01*
G54D12*
X556668Y691316D02*
X557201Y691094D01*
X557735Y691094D01*
X558268Y691316D01*
X558268Y691760D01*
X558001Y691983D01*
X556935Y692205D01*
X556668Y692427D01*
X556668Y692872D01*
X557201Y693094D01*
X557735Y693094D01*
X558268Y692872D01*
G54D12*
X559268Y691316D02*
X559801Y691094D01*
X560335Y691094D01*
X560868Y691316D01*
X560868Y691760D01*
X560601Y691983D01*
X559535Y692205D01*
X559268Y692427D01*
X559268Y692872D01*
X559801Y693094D01*
X560335Y693094D01*
X560868Y692872D01*
G54D12*
X551926Y702714D02*
X551926Y700492D01*
X551660Y700047D01*
X551126Y699825D01*
X550593Y699825D01*
X550060Y700047D01*
X549793Y700492D01*
X549793Y702714D01*
X550060Y703158D01*
X550593Y703381D01*
X551126Y703381D01*
X551660Y703158D01*
X551926Y702714D01*
G54D12*
X552893Y700492D02*
X553160Y700047D01*
X553693Y699825D01*
X554226Y699825D01*
X554760Y700047D01*
X555026Y700492D01*
X555026Y700936D01*
X554760Y701381D01*
X554226Y701603D01*
X553693Y701603D01*
X553160Y701825D01*
X552893Y702269D01*
X552893Y702714D01*
X553160Y703158D01*
X553693Y703381D01*
X554226Y703381D01*
X554760Y703158D01*
X555026Y702714D01*
G54D12*
X558126Y700492D02*
X557860Y700047D01*
X557326Y699825D01*
X556793Y699825D01*
X556260Y700047D01*
X555993Y700492D01*
X555993Y702714D01*
X556260Y703158D01*
X556793Y703381D01*
X557326Y703381D01*
X557860Y703158D01*
X558126Y702714D01*
G54D12*
X559093Y702047D02*
X560426Y703381D01*
X560426Y699825D01*
G54D12*
X551926Y709858D02*
X551926Y707636D01*
X551660Y707191D01*
X551126Y706969D01*
X550593Y706969D01*
X550060Y707191D01*
X549793Y707636D01*
X549793Y709858D01*
X550060Y710302D01*
X550593Y710524D01*
X551126Y710524D01*
X551660Y710302D01*
X551926Y709858D01*
G54D12*
X552893Y707636D02*
X553160Y707191D01*
X553693Y706969D01*
X554226Y706969D01*
X554760Y707191D01*
X555026Y707636D01*
X555026Y708080D01*
X554760Y708524D01*
X554226Y708747D01*
X553693Y708747D01*
X553160Y708969D01*
X552893Y709413D01*
X552893Y709858D01*
X553160Y710302D01*
X553693Y710524D01*
X554226Y710524D01*
X554760Y710302D01*
X555026Y709858D01*
G54D12*
X558126Y707636D02*
X557860Y707191D01*
X557326Y706969D01*
X556793Y706969D01*
X556260Y707191D01*
X555993Y707636D01*
X555993Y709858D01*
X556260Y710302D01*
X556793Y710524D01*
X557326Y710524D01*
X557860Y710302D01*
X558126Y709858D01*
G54D12*
X561226Y706969D02*
X559093Y706969D01*
X559093Y707191D01*
X559360Y707636D01*
X560960Y708969D01*
X561226Y709413D01*
X561226Y709858D01*
X560960Y710302D01*
X560426Y710524D01*
X559893Y710524D01*
X559360Y710302D01*
X559093Y709858D01*
G54D12*
X553241Y717478D02*
X554041Y717033D01*
X554308Y716589D01*
X554308Y715700D01*
G54D12*
X552174Y715700D02*
X552174Y719256D01*
X553508Y719256D01*
X554041Y719033D01*
X554308Y718589D01*
X554308Y718144D01*
X554041Y717700D01*
X553508Y717478D01*
X552174Y717478D01*
G54D12*
X557408Y716367D02*
X557141Y715922D01*
X556608Y715700D01*
X556074Y715700D01*
X555541Y715922D01*
X555274Y716367D01*
X555274Y718589D01*
X555541Y719033D01*
X556074Y719256D01*
X556608Y719256D01*
X557141Y719033D01*
X557408Y718589D01*
G54D12*
X560508Y718589D02*
X560508Y716367D01*
X560241Y715922D01*
X559708Y715700D01*
X559174Y715700D01*
X558641Y715922D01*
X558374Y716367D01*
X558374Y718589D01*
X558641Y719033D01*
X559174Y719256D01*
X559708Y719256D01*
X560241Y719033D01*
X560508Y718589D01*
G54D12*
X555349Y723638D02*
X555349Y727193D01*
X557483Y723638D01*
X557483Y727193D01*
G54D12*
X560583Y724304D02*
X560316Y723860D01*
X559783Y723638D01*
X559249Y723638D01*
X558716Y723860D01*
X558449Y724304D01*
X558449Y726526D01*
X558716Y726971D01*
X559249Y727193D01*
X559783Y727193D01*
X560316Y726971D01*
X560583Y726526D01*
G54D12*
X554187Y729194D02*
X550631Y729194D01*
X554187Y731327D01*
X550631Y731327D01*
G54D12*
X553520Y734427D02*
X553964Y734161D01*
X554187Y733627D01*
X554187Y733094D01*
X553964Y732561D01*
X553520Y732294D01*
X551298Y732294D01*
X550854Y732561D01*
X550631Y733094D01*
X550631Y733627D01*
X550854Y734161D01*
X551298Y734427D01*
G54D12*
X543678Y728673D02*
X544122Y729473D01*
X544567Y729740D01*
X545455Y729740D01*
G54D12*
X545456Y727606D02*
X541900Y727606D01*
X541900Y728940D01*
X542122Y729473D01*
X542567Y729740D01*
X543011Y729740D01*
X543456Y729473D01*
X543678Y728940D01*
X543678Y727606D01*
G54D12*
X544789Y732840D02*
X545233Y732573D01*
X545455Y732040D01*
X545455Y731506D01*
X545233Y730973D01*
X544789Y730706D01*
X542567Y730706D01*
X542122Y730973D01*
X541900Y731506D01*
X541900Y732040D01*
X542122Y732573D01*
X542567Y732840D01*
G54D12*
X543233Y733806D02*
X541900Y735140D01*
X545456Y735140D01*
G54D12*
X535740Y727879D02*
X536185Y728679D01*
X536629Y728946D01*
X537518Y728946D01*
G54D12*
X537518Y726812D02*
X533962Y726813D01*
X533963Y728146D01*
X534185Y728679D01*
X534629Y728946D01*
X535074Y728946D01*
X535518Y728679D01*
X535740Y728146D01*
X535740Y726812D01*
G54D12*
X536851Y732046D02*
X537296Y731779D01*
X537518Y731246D01*
X537518Y730713D01*
X537296Y730179D01*
X536851Y729913D01*
X534629Y729912D01*
X534185Y730179D01*
X533962Y730713D01*
X533963Y731246D01*
X534185Y731779D01*
X534629Y732046D01*
G54D12*
X537518Y735146D02*
X537518Y733013D01*
X537296Y733013D01*
X536851Y733279D01*
X535518Y734879D01*
X535074Y735146D01*
X534629Y735146D01*
X534185Y734879D01*
X533962Y734346D01*
X533963Y733813D01*
X534185Y733279D01*
X534629Y733013D01*
G54D12*
X528597Y727879D02*
X529041Y728679D01*
X529486Y728946D01*
X530374Y728946D01*
G54D12*
X530374Y726813D02*
X526819Y726813D01*
X526819Y728146D01*
X527041Y728679D01*
X527486Y728946D01*
X527930Y728946D01*
X528374Y728679D01*
X528597Y728146D01*
X528597Y726812D01*
G54D12*
X529708Y732046D02*
X530152Y731779D01*
X530374Y731246D01*
X530374Y730713D01*
X530152Y730179D01*
X529708Y729913D01*
X527486Y729913D01*
X527041Y730179D01*
X526819Y730713D01*
X526819Y731246D01*
X527041Y731779D01*
X527486Y732046D01*
G54D12*
X527486Y733013D02*
X527041Y733279D01*
X526819Y733813D01*
X526819Y734346D01*
X527041Y734879D01*
X527485Y735146D01*
X527930Y735146D01*
X528374Y734879D01*
X528597Y734346D01*
X528819Y734879D01*
X529263Y735146D01*
X529708Y735146D01*
X530152Y734879D01*
X530374Y734346D01*
X530374Y733813D01*
X530152Y733279D01*
X529708Y733013D01*
G54D12*
X511928Y727879D02*
X512372Y728679D01*
X512817Y728946D01*
X513706Y728946D01*
G54D12*
X513706Y726812D02*
X510150Y726813D01*
X510150Y728146D01*
X510372Y728679D01*
X510817Y728946D01*
X511261Y728946D01*
X511706Y728679D01*
X511928Y728146D01*
X511928Y726813D01*
G54D12*
X513706Y729913D02*
X510150Y729913D01*
X510150Y731246D01*
X510372Y731779D01*
X510817Y732046D01*
X513039Y732046D01*
X513483Y731779D01*
X513706Y731246D01*
X513706Y729913D01*
G54D12*
X511483Y733013D02*
X510150Y734346D01*
X513706Y734346D01*
G54D12*
X503990Y727879D02*
X504435Y728679D01*
X504879Y728946D01*
X505768Y728946D01*
G54D12*
X505768Y726813D02*
X502212Y726813D01*
X502212Y728146D01*
X502435Y728679D01*
X502879Y728946D01*
X503324Y728946D01*
X503768Y728679D01*
X503990Y728146D01*
X503990Y726813D01*
G54D12*
X505768Y729912D02*
X502212Y729913D01*
X502212Y731246D01*
X502435Y731779D01*
X502879Y732046D01*
X505101Y732046D01*
X505546Y731779D01*
X505768Y731246D01*
X505768Y729912D01*
G54D12*
X505768Y735146D02*
X505768Y733013D01*
X505546Y733013D01*
X505102Y733279D01*
X503768Y734879D01*
X503324Y735146D01*
X502879Y735146D01*
X502435Y734879D01*
X502212Y734346D01*
X502212Y733813D01*
X502435Y733279D01*
X502879Y733013D01*
G54D12*
X496053Y727879D02*
X496497Y728679D01*
X496942Y728946D01*
X497831Y728946D01*
G54D12*
X497831Y726813D02*
X494275Y726813D01*
X494275Y728146D01*
X494497Y728679D01*
X494942Y728946D01*
X495386Y728946D01*
X495831Y728679D01*
X496053Y728146D01*
X496053Y726813D01*
G54D12*
X497830Y729913D02*
X494275Y729913D01*
X494275Y731246D01*
X494497Y731779D01*
X494942Y732046D01*
X497164Y732046D01*
X497608Y731779D01*
X497831Y731246D01*
X497830Y729913D01*
G54D12*
X494942Y733013D02*
X494497Y733279D01*
X494275Y733813D01*
X494275Y734346D01*
X494497Y734879D01*
X494942Y735146D01*
X495386Y735146D01*
X495831Y734879D01*
X496053Y734346D01*
X496275Y734879D01*
X496720Y735146D01*
X497164Y735146D01*
X497608Y734879D01*
X497831Y734346D01*
X497831Y733813D01*
X497608Y733279D01*
X497164Y733012D01*
G54D12*
X487322Y727879D02*
X487766Y728679D01*
X488210Y728946D01*
X489099Y728946D01*
G54D12*
X489099Y726812D02*
X485544Y726813D01*
X485544Y728146D01*
X485766Y728679D01*
X486210Y728946D01*
X486655Y728946D01*
X487099Y728679D01*
X487322Y728146D01*
X487322Y726813D01*
G54D12*
X488433Y732046D02*
X488877Y731779D01*
X489099Y731246D01*
X489099Y730713D01*
X488877Y730179D01*
X488433Y729913D01*
X486210Y729913D01*
X485766Y730179D01*
X485544Y730713D01*
X485544Y731246D01*
X485766Y731779D01*
X486210Y732046D01*
G54D12*
X489099Y734613D02*
X485544Y734613D01*
X487766Y733013D01*
X488210Y733013D01*
X488210Y735146D01*
G54D12*
X480002Y727231D02*
X480446Y728031D01*
X480890Y728297D01*
X481779Y728297D01*
G54D12*
X481779Y726164D02*
X478224Y726164D01*
X478224Y727497D01*
X478446Y728031D01*
X478890Y728297D01*
X479335Y728297D01*
X479779Y728031D01*
X480002Y727497D01*
X480001Y726164D01*
G54D12*
X481112Y731397D02*
X481557Y731131D01*
X481779Y730597D01*
X481779Y730064D01*
X481557Y729531D01*
X481112Y729264D01*
X478890Y729264D01*
X478446Y729531D01*
X478224Y730064D01*
X478224Y730597D01*
X478446Y731131D01*
X478890Y731397D01*
G54D12*
X478224Y734497D02*
X478224Y732364D01*
X479779Y732364D01*
X479779Y732631D01*
X479557Y733164D01*
X479557Y733697D01*
X479779Y734231D01*
X480224Y734497D01*
X481112Y734497D01*
X481557Y734230D01*
X481779Y733697D01*
X481779Y733164D01*
X481557Y732630D01*
X481112Y732364D01*
G54D12*
X474028Y726950D02*
X474473Y727750D01*
X474917Y728017D01*
X475806Y728017D01*
G54D12*
X475806Y725883D02*
X472250Y725883D01*
X472250Y727217D01*
X472473Y727750D01*
X472917Y728016D01*
X473362Y728016D01*
X473806Y727750D01*
X474028Y727217D01*
X474028Y725883D01*
G54D12*
X475139Y731117D02*
X475584Y730850D01*
X475806Y730317D01*
X475806Y729783D01*
X475584Y729250D01*
X475140Y728983D01*
X472917Y728983D01*
X472473Y729250D01*
X472251Y729783D01*
X472250Y730317D01*
X472473Y730850D01*
X472917Y731117D01*
G54D12*
X472917Y734217D02*
X472473Y733950D01*
X472250Y733417D01*
X472250Y732883D01*
X472473Y732350D01*
X472917Y732083D01*
X474028Y732083D01*
X474250Y732083D01*
X473806Y732883D01*
X473806Y733417D01*
X474028Y733950D01*
X474473Y734217D01*
X475139Y734216D01*
X475584Y733950D01*
X475806Y733417D01*
X475806Y732883D01*
X475584Y732350D01*
X475139Y732083D01*
X474028Y732083D01*
G54D12*
X520659Y727879D02*
X521104Y728679D01*
X521548Y728946D01*
X522437Y728946D01*
G54D12*
X522437Y726813D02*
X518881Y726812D01*
X518881Y728146D01*
X519104Y728679D01*
X519548Y728946D01*
X519992Y728946D01*
X520437Y728679D01*
X520659Y728146D01*
X520659Y726813D01*
G54D12*
X522437Y729913D02*
X518881Y729913D01*
X518881Y731246D01*
X519104Y731779D01*
X519548Y732046D01*
X521770Y732046D01*
X522215Y731779D01*
X522437Y731246D01*
X522437Y729913D01*
G54D12*
X519548Y735146D02*
X521770Y735146D01*
X522215Y734879D01*
X522437Y734346D01*
X522437Y733813D01*
X522215Y733279D01*
X521770Y733013D01*
X519548Y733013D01*
X519104Y733279D01*
X518881Y733813D01*
X518881Y734346D01*
X519104Y734879D01*
X519548Y735146D01*
G54D13*
X484781Y689350D02*
X484781Y694683D01*
X486781Y694683D01*
X487580Y694350D01*
X487981Y693683D01*
X487981Y693017D01*
X487581Y692350D01*
X486781Y692017D01*
X484780Y692017D01*
G54D13*
X489480Y689350D02*
X489481Y694683D01*
G54D13*
X494181Y690350D02*
X493781Y689683D01*
X492981Y689350D01*
X492181Y689350D01*
X491381Y689683D01*
X490981Y690350D01*
X490981Y693683D01*
X491380Y694350D01*
X492181Y694683D01*
X492981Y694683D01*
X493781Y694350D01*
X494181Y693683D01*
G54D13*
X495681Y692683D02*
X497681Y694683D01*
X497680Y689350D01*
G54D13*
X501180Y692017D02*
X500380Y692017D01*
X499581Y692350D01*
X499180Y693017D01*
X499180Y693683D01*
X499581Y694350D01*
X500380Y694683D01*
X501181Y694683D01*
X501981Y694350D01*
X502381Y693683D01*
X502381Y693017D01*
X501980Y692350D01*
X501180Y692017D01*
X501981Y691683D01*
X502381Y691017D01*
X502381Y690350D01*
X501981Y689683D01*
X501181Y689350D01*
X500381Y689350D01*
X499580Y689683D01*
X499181Y690350D01*
X499180Y691017D01*
X499581Y691683D01*
X500380Y692017D01*
G54D13*
X503880Y689350D02*
X503880Y694683D01*
X506681Y694683D01*
G54D13*
X503880Y692017D02*
X506681Y692017D01*
G54D13*
X510581Y689350D02*
X510581Y694683D01*
X508181Y691350D01*
X508181Y690683D01*
X511380Y690683D01*
G54D13*
X515281Y689350D02*
X515281Y694683D01*
X512881Y691350D01*
X512880Y690683D01*
X516080Y690683D01*
G54D13*
X520781Y689350D02*
X517581Y689350D01*
X517581Y689683D01*
X517981Y690350D01*
X520380Y692350D01*
X520781Y693017D01*
X520781Y693683D01*
X520380Y694350D01*
X519581Y694683D01*
X518781Y694683D01*
X517981Y694350D01*
X517580Y693683D01*
G54D13*
X522281Y689350D02*
X526281Y689350D01*
G54D13*
X530181Y689350D02*
X530181Y694683D01*
X527781Y691350D01*
X527780Y690683D01*
X530981Y690683D01*
G54D13*
X535681Y694683D02*
X532481Y694683D01*
X532481Y692350D01*
X532881Y692350D01*
X533681Y692683D01*
X534481Y692683D01*
X535281Y692350D01*
X535681Y691683D01*
X535681Y690350D01*
X535281Y689683D01*
X534481Y689350D01*
X533681Y689350D01*
X532881Y689683D01*
X532480Y690350D01*
G54D13*
X540381Y689350D02*
X537181Y689350D01*
X537180Y689683D01*
X537581Y690350D01*
X539981Y692350D01*
X540381Y693017D01*
X540381Y693683D01*
X539981Y694350D01*
X539181Y694683D01*
X538381Y694683D01*
X537581Y694350D01*
X537181Y693683D01*
G54D14*
X501352Y653477D02*
X504908Y653477D01*
X504908Y652588D01*
X504686Y652233D01*
X504241Y652055D01*
X503797Y652055D01*
X503352Y652233D01*
X503130Y652588D01*
X503130Y653477D01*
G54D14*
X503130Y650100D02*
X503130Y649389D01*
X502019Y649389D01*
X501575Y649567D01*
X501352Y649922D01*
X501352Y650278D01*
X501575Y650633D01*
X502019Y650811D01*
X504241Y650811D01*
X504686Y650633D01*
X504908Y650278D01*
X504908Y649922D01*
X504686Y649567D01*
X504241Y649389D01*
G54D14*
X502019Y646723D02*
X501575Y646901D01*
X501352Y647256D01*
X501352Y647612D01*
X501575Y647967D01*
X502019Y648145D01*
X504241Y648145D01*
X504686Y647967D01*
X504908Y647612D01*
X504908Y647256D01*
X504686Y646901D01*
X504241Y646723D01*
G54D14*
X509365Y653452D02*
X512920Y653452D01*
X512920Y652564D01*
X512698Y652208D01*
X512254Y652030D01*
X511810Y652030D01*
X511365Y652208D01*
X511143Y652564D01*
X511143Y653452D01*
G54D14*
X511143Y650075D02*
X511143Y649364D01*
X510032Y649364D01*
X509587Y649542D01*
X509365Y649898D01*
X509365Y650253D01*
X509587Y650609D01*
X510032Y650786D01*
X512254Y650786D01*
X512698Y650609D01*
X512920Y650253D01*
X512920Y649898D01*
X512698Y649542D01*
X512254Y649364D01*
G54D14*
X509365Y648120D02*
X512920Y648120D01*
X512920Y647232D01*
X512698Y646876D01*
X512254Y646698D01*
X510032Y646698D01*
X509587Y646876D01*
X509365Y647232D01*
X509365Y648120D01*
G54D14*
X493282Y653407D02*
X496837Y653407D01*
X496837Y652518D01*
X496615Y652163D01*
X496171Y651985D01*
X495726Y651985D01*
X495282Y652163D01*
X495060Y652518D01*
X495060Y653407D01*
G54D14*
X495060Y650030D02*
X495060Y649319D01*
X493948Y649319D01*
X493504Y649497D01*
X493282Y649852D01*
X493282Y650208D01*
X493504Y650564D01*
X493948Y650741D01*
X496171Y650741D01*
X496615Y650564D01*
X496837Y650208D01*
X496837Y649852D01*
X496615Y649497D01*
X496171Y649319D01*
G54D14*
X493282Y648075D02*
X496837Y648075D01*
X494615Y647186D01*
X496837Y646298D01*
X493282Y646298D01*
G54D11*
X695553Y630618D02*
X635253Y630618D01*
G54D11*
X695453Y675483D02*
X635153Y675482D01*
G54D11*
G75*
G01X695353Y631082D02*
G03X695353Y675482I0J22200D01*
G01*
G54D11*
G75*
G01X635253Y675483D02*
G03X635253Y631083I0J-22200D01*
G01*
G54D15*
X642323Y654594D02*
X646767Y657928D01*
X646767Y649039D01*
G54D15*
X656989Y656261D02*
X656989Y650706D01*
X656100Y649594D01*
X654322Y649039D01*
X652545Y649039D01*
X650767Y649594D01*
X649878Y650706D01*
X649878Y656261D01*
X650767Y657372D01*
X652545Y657928D01*
X654322Y657928D01*
X656100Y657372D01*
X656989Y656261D01*
G54D15*
X660100Y649039D02*
X660100Y657928D01*
X664544Y652372D01*
X668989Y657928D01*
X668989Y649039D01*
G54D15*
X672100Y649039D02*
X672100Y657928D01*
G54D15*
X679211Y649039D02*
X679211Y657928D01*
G54D15*
X672100Y653483D02*
X679211Y653483D01*
G54D15*
X682322Y654039D02*
X687655Y654039D01*
X682322Y649039D01*
X687655Y649039D01*
G54D10*
X648960Y721233D02*
X650293Y720233D01*
G54D10*
X650026Y724566D02*
X650026Y721233D01*
X649760Y720566D01*
X649226Y720233D01*
X648693Y720233D01*
X648160Y720566D01*
X647893Y721233D01*
X647893Y724566D01*
X648160Y725233D01*
X648693Y725566D01*
X649226Y725566D01*
X649760Y725233D01*
X650026Y724566D01*
G54D10*
X654293Y720233D02*
X652160Y720233D01*
X652160Y720566D01*
X652427Y721233D01*
X654027Y723233D01*
X654293Y723900D01*
X654293Y724566D01*
X654027Y725233D01*
X653493Y725566D01*
X652960Y725566D01*
X652427Y725233D01*
X652160Y724566D01*
G54D10*
X658293Y725566D02*
X656160Y725566D01*
X656160Y723233D01*
X656427Y723233D01*
X656960Y723566D01*
X657493Y723566D01*
X658027Y723233D01*
X658293Y722566D01*
X658293Y721233D01*
X658027Y720566D01*
X657493Y720233D01*
X656960Y720233D01*
X656427Y720566D01*
X656160Y721233D01*
G54D10*
X660160Y725566D02*
X660160Y720233D01*
X661493Y723566D01*
X662827Y720233D01*
X662827Y725566D01*
G54D10*
X666827Y724566D02*
X666561Y725233D01*
X666027Y725566D01*
X665494Y725566D01*
X664961Y725233D01*
X664694Y724566D01*
X664694Y722900D01*
X664694Y722566D01*
X665494Y723233D01*
X666027Y723233D01*
X666561Y722900D01*
X666827Y722233D01*
X666827Y721233D01*
X666561Y720566D01*
X666027Y720233D01*
X665494Y720233D01*
X664961Y720566D01*
X664694Y721233D01*
X664694Y722900D01*
G54D10*
X670294Y720233D02*
X670294Y725566D01*
X668694Y722233D01*
X668694Y721566D01*
X670827Y721566D01*
G54D10*
X672694Y720233D02*
X672694Y725566D01*
X674561Y725566D01*
G54D10*
X672694Y722900D02*
X674561Y722900D01*
G54D10*
X676428Y720233D02*
X676428Y725566D01*
X678561Y720233D01*
X678561Y725566D01*
G54D16*
X638939Y668446D02*
X638717Y667891D01*
X638273Y667613D01*
X637828Y667613D01*
X637384Y667891D01*
X637162Y668446D01*
X637162Y671224D01*
X637384Y671780D01*
X637828Y672058D01*
X638273Y672058D01*
X638717Y671780D01*
X638939Y671224D01*
G54D16*
X640496Y668446D02*
X640718Y667891D01*
X641162Y667613D01*
X641607Y667613D01*
X642051Y667891D01*
X642273Y668446D01*
X642273Y669002D01*
X642051Y669558D01*
X641607Y669835D01*
X641162Y669835D01*
X640718Y670113D01*
X640496Y670669D01*
X640496Y671224D01*
X640718Y671780D01*
X641162Y672058D01*
X641607Y672058D01*
X642051Y671780D01*
X642273Y671224D01*
G54D16*
X649860Y668446D02*
X650083Y667890D01*
X650527Y667613D01*
X650972Y667613D01*
X651416Y667890D01*
X651638Y668446D01*
X651638Y669002D01*
X651416Y669557D01*
X650972Y669835D01*
X650527Y669835D01*
X650083Y670113D01*
X649860Y670668D01*
X649860Y671224D01*
X650083Y671779D01*
X650527Y672057D01*
X650972Y672057D01*
X651416Y671779D01*
X651638Y671224D01*
G54D16*
X654972Y671224D02*
X654972Y668446D01*
X654750Y667890D01*
X654306Y667613D01*
X653861Y667613D01*
X653417Y667890D01*
X653194Y668446D01*
X653194Y671224D01*
X653417Y671779D01*
X653861Y672057D01*
X654306Y672057D01*
X654750Y671779D01*
X654972Y671224D01*
G54D16*
X662509Y672386D02*
X662509Y667942D01*
X663620Y670720D01*
X664731Y667942D01*
X664731Y672386D01*
G54D16*
X666287Y667942D02*
X666287Y672386D01*
X667398Y672386D01*
X667842Y672108D01*
X668065Y671553D01*
X668065Y670998D01*
X667843Y670442D01*
X667398Y670164D01*
X666287Y670164D01*
G54D16*
X673346Y671928D02*
X674457Y667484D01*
X675569Y671928D01*
G54D16*
X677124Y668317D02*
X677347Y667761D01*
X677791Y667484D01*
X678235Y667484D01*
X678680Y667761D01*
X678902Y668317D01*
X678902Y668872D01*
X678680Y669428D01*
X678235Y669706D01*
X677791Y669706D01*
X677347Y669984D01*
X677124Y670539D01*
X677124Y671095D01*
X677347Y671650D01*
X677791Y671928D01*
X678235Y671928D01*
X678680Y671650D01*
X678902Y671095D01*
G54D16*
X680458Y668317D02*
X680681Y667761D01*
X681125Y667484D01*
X681569Y667484D01*
X682014Y667761D01*
X682236Y668317D01*
X682236Y668872D01*
X682014Y669428D01*
X681569Y669706D01*
X681125Y669706D01*
X680681Y669984D01*
X680458Y670539D01*
X680458Y671095D01*
X680681Y671650D01*
X681125Y671928D01*
X681569Y671928D01*
X682014Y671650D01*
X682236Y671095D01*
G54D16*
X635468Y777992D02*
X636579Y773548D01*
X637690Y777992D01*
G54D16*
X641024Y774381D02*
X640801Y773825D01*
X640357Y773548D01*
X639912Y773548D01*
X639468Y773825D01*
X639246Y774381D01*
X639246Y777159D01*
X639468Y777714D01*
X639912Y777992D01*
X640357Y777992D01*
X640801Y777714D01*
X641024Y777159D01*
G54D16*
X644358Y774381D02*
X644135Y773825D01*
X643691Y773548D01*
X643246Y773548D01*
X642802Y773825D01*
X642580Y774381D01*
X642580Y777159D01*
X642802Y777714D01*
X643246Y777992D01*
X643691Y777992D01*
X644135Y777714D01*
X644358Y777159D01*
G54D16*
X646310Y773450D02*
X646310Y777894D01*
G54D16*
X648088Y773450D02*
X648088Y777894D01*
G54D16*
X646310Y775672D02*
X648088Y775672D01*
G54D16*
X651421Y777061D02*
X651422Y774283D01*
X651199Y773728D01*
X650755Y773450D01*
X650310Y773450D01*
X649866Y773728D01*
X649644Y774283D01*
X649644Y777061D01*
X649866Y777616D01*
X650310Y777894D01*
X650755Y777894D01*
X651199Y777617D01*
X651421Y777061D01*
G54D16*
X652978Y777894D02*
X652978Y773450D01*
X654533Y773450D01*
G54D16*
X656090Y773450D02*
X656090Y777894D01*
X657201Y777894D01*
X657645Y777617D01*
X657868Y777061D01*
X657868Y774283D01*
X657645Y773728D01*
X657201Y773450D01*
X656090Y773450D01*
G54D16*
X660684Y774212D02*
X660906Y773656D01*
X661351Y773378D01*
X661795Y773378D01*
X662240Y773656D01*
X662462Y774212D01*
X662462Y774767D01*
X662240Y775323D01*
X661795Y775601D01*
X661351Y775601D01*
X660906Y775878D01*
X660684Y776434D01*
X660684Y776990D01*
X660906Y777545D01*
X661351Y777823D01*
X661795Y777823D01*
X662240Y777545D01*
X662462Y776990D01*
G54D16*
X665796Y774212D02*
X665574Y773656D01*
X665129Y773378D01*
X664685Y773378D01*
X664240Y773656D01*
X664018Y774212D01*
X664018Y776990D01*
X664240Y777545D01*
X664685Y777823D01*
X665129Y777823D01*
X665574Y777545D01*
X665796Y776990D01*
G54D16*
X667352Y773378D02*
X667352Y777823D01*
G54D16*
X667352Y774767D02*
X669130Y777823D01*
G54D16*
X668019Y775601D02*
X669130Y773378D01*
G54D16*
X674335Y774219D02*
X674558Y773664D01*
X675002Y773386D01*
X675446Y773386D01*
X675891Y773664D01*
X676113Y774219D01*
X676113Y774775D01*
X675891Y775330D01*
X675446Y775608D01*
X675002Y775608D01*
X674558Y775886D01*
X674335Y776441D01*
X674335Y776997D01*
X674558Y777552D01*
X675002Y777830D01*
X675446Y777830D01*
X675891Y777552D01*
X676113Y776997D01*
G54D16*
X677669Y773386D02*
X677669Y777830D01*
X678780Y777830D01*
X679225Y777552D01*
X679447Y776997D01*
X679447Y774219D01*
X679225Y773664D01*
X678780Y773386D01*
X677669Y773386D01*
G54D16*
X681003Y773386D02*
X681003Y777830D01*
G54D17*
X632705Y732754D02*
X632705Y712754D01*
X683805Y712754D01*
X683805Y732754D01*
X632705Y732754D01*
G54D17*
X632705Y727754D02*
X632705Y717754D01*
X637705Y717754D01*
X637705Y727754D01*
X632705Y727754D01*
G54D11*
X623393Y738107D02*
X623393Y713104D01*
X594421Y713104D01*
X594421Y738107D01*
X623393Y738107D01*
G54D11*
G75*
G01X620218Y733344D02*
G03X620218Y733344I0J1588D01*
G01*
G54D14*
X618027Y764781D02*
X618027Y764070D01*
X616916Y764070D01*
X616471Y764247D01*
X616249Y764603D01*
X616249Y764958D01*
X616471Y765314D01*
X616916Y765492D01*
X619138Y765492D01*
X619583Y765314D01*
X619805Y764958D01*
X619805Y764603D01*
X619583Y764247D01*
X619138Y764070D01*
G54D14*
X616249Y762826D02*
X619805Y762826D01*
X616249Y761403D01*
X619805Y761404D01*
G54D14*
X616249Y760160D02*
X619805Y760160D01*
X619805Y759271D01*
X619583Y758915D01*
X619138Y758737D01*
X616916Y758737D01*
X616471Y758915D01*
X616249Y759271D01*
X616249Y760160D01*
G54D14*
X610566Y763904D02*
X610121Y763726D01*
X609899Y763371D01*
X609899Y763015D01*
X610121Y762660D01*
X610566Y762482D01*
X611010Y762482D01*
X611455Y762660D01*
X611677Y763015D01*
X611677Y763371D01*
X611899Y763726D01*
X612344Y763904D01*
X612788Y763904D01*
X613232Y763726D01*
X613455Y763371D01*
X613455Y763015D01*
X613233Y762660D01*
X612788Y762482D01*
G54D14*
X609899Y761238D02*
X613455Y761238D01*
X613455Y760349D01*
X613233Y759994D01*
X612788Y759816D01*
X610566Y759816D01*
X610121Y759994D01*
X609899Y760349D01*
X609899Y761238D01*
G54D14*
X609899Y758572D02*
X613455Y758572D01*
G54D14*
X604216Y765095D02*
X603771Y764917D01*
X603549Y764562D01*
X603549Y764206D01*
X603771Y763850D01*
X604216Y763672D01*
X604660Y763673D01*
X605105Y763850D01*
X605327Y764206D01*
X605327Y764562D01*
X605549Y764917D01*
X605994Y765095D01*
X606438Y765095D01*
X606882Y764917D01*
X607105Y764562D01*
X607105Y764206D01*
X606883Y763850D01*
X606438Y763673D01*
G54D14*
X604216Y761007D02*
X603771Y761184D01*
X603549Y761540D01*
X603549Y761896D01*
X603771Y762251D01*
X604216Y762429D01*
X606438Y762429D01*
X606882Y762251D01*
X607105Y761895D01*
X607105Y761540D01*
X606883Y761184D01*
X606438Y761007D01*
G54D14*
X603549Y759763D02*
X607105Y759763D01*
G54D14*
X604660Y759763D02*
X607105Y758341D01*
G54D14*
X605327Y759230D02*
X603549Y758340D01*
G54D14*
X597199Y761469D02*
X597199Y762714D01*
X600755Y762714D01*
X600755Y761469D01*
G54D14*
X598977Y762714D02*
X598977Y761469D01*
G54D14*
X597199Y760226D02*
X600755Y760226D01*
X597199Y758803D01*
X600755Y758803D01*
G54D14*
X620202Y692467D02*
X616646Y691578D01*
X620202Y690689D01*
G54D14*
X617313Y688022D02*
X616868Y688200D01*
X616646Y688556D01*
X616646Y688911D01*
X616868Y689267D01*
X617313Y689445D01*
X619535Y689445D01*
X619979Y689267D01*
X620202Y688911D01*
X620202Y688556D01*
X619979Y688200D01*
X619535Y688022D01*
G54D14*
X617313Y685356D02*
X616868Y685534D01*
X616646Y685890D01*
X616646Y686245D01*
X616868Y686601D01*
X617313Y686779D01*
X619535Y686779D01*
X619979Y686601D01*
X620202Y686245D01*
X620202Y685890D01*
X619979Y685534D01*
X619535Y685356D01*
G54D14*
X612788Y691044D02*
X610566Y691044D01*
X610121Y691222D01*
X609899Y691578D01*
X609899Y691933D01*
X610121Y692289D01*
X610566Y692467D01*
X612788Y692467D01*
X613232Y692289D01*
X613455Y691933D01*
X613455Y691578D01*
X613233Y691222D01*
X612788Y691044D01*
G54D14*
X609899Y688556D02*
X609899Y689801D01*
X613455Y689801D01*
X613455Y688556D01*
G54D14*
X611677Y689801D02*
X611677Y688556D01*
G54D14*
X604613Y691044D02*
X604168Y691222D01*
X603946Y691578D01*
X603946Y691933D01*
X604168Y692289D01*
X604613Y692467D01*
X606835Y692467D01*
X607279Y692289D01*
X607502Y691933D01*
X607502Y691578D01*
X607279Y691222D01*
X606835Y691044D01*
G54D14*
X607502Y689801D02*
X603946Y689801D01*
X603946Y688556D01*
G54D14*
X603946Y687313D02*
X607502Y687313D01*
G54D14*
X605057Y687313D02*
X607502Y685890D01*
G54D14*
X605724Y686779D02*
X603946Y685890D01*
G54D14*
X606835Y681944D02*
X604613Y681944D01*
X604168Y682122D01*
X603946Y682478D01*
X603946Y682833D01*
X604168Y683189D01*
X604613Y683367D01*
X606835Y683367D01*
X607279Y683189D01*
X607502Y682833D01*
X607502Y682478D01*
X607279Y682122D01*
X606835Y681944D01*
G54D14*
X607502Y680701D02*
X604613Y680701D01*
X604168Y680523D01*
X603946Y680167D01*
X603946Y679812D01*
X604168Y679456D01*
X604613Y679278D01*
X607502Y679278D01*
G54D14*
X603946Y677324D02*
X607502Y677324D01*
G54D14*
X607502Y678035D02*
X607502Y676612D01*
G54D14*
X597596Y692467D02*
X601152Y692467D01*
X597596Y691044D01*
X601152Y691044D01*
G54D14*
X598263Y688378D02*
X597818Y688556D01*
X597596Y688912D01*
X597596Y689268D01*
X597818Y689623D01*
X598263Y689801D01*
X600485Y689801D01*
X600929Y689623D01*
X601152Y689268D01*
X601152Y688912D01*
X600929Y688556D01*
X600485Y688378D01*
G54D14*
X601213Y727354D02*
X601213Y723799D01*
X602457Y723799D01*
G54D14*
X604412Y723799D02*
X604412Y727354D01*
G54D14*
X603701Y727354D02*
X605123Y727354D01*
G54D14*
X607789Y724466D02*
X607611Y724021D01*
X607256Y723799D01*
X606900Y723799D01*
X606545Y724021D01*
X606367Y724466D01*
X606367Y726688D01*
X606545Y727132D01*
X606900Y727354D01*
X607256Y727354D01*
X607612Y727132D01*
X607789Y726688D01*
G54D14*
X610455Y726688D02*
X610277Y727132D01*
X609922Y727354D01*
X609566Y727354D01*
X609211Y727132D01*
X609033Y726688D01*
X609033Y725577D01*
X609033Y725354D01*
X609566Y725799D01*
X609922Y725799D01*
X610277Y725577D01*
X610455Y725132D01*
X610455Y724466D01*
X610277Y724021D01*
X609922Y723799D01*
X609566Y723799D01*
X609211Y724021D01*
X609033Y724466D01*
X609033Y725577D01*
G54D14*
X611699Y724466D02*
X611877Y724021D01*
X612232Y723799D01*
X612588Y723799D01*
X612943Y724021D01*
X613121Y724466D01*
X613121Y725577D01*
X613121Y725799D01*
X612588Y725355D01*
X612232Y725355D01*
X611877Y725577D01*
X611699Y726021D01*
X611699Y726688D01*
X611877Y727132D01*
X612232Y727354D01*
X612588Y727354D01*
X612944Y727132D01*
X613121Y726688D01*
X613121Y725577D01*
G54D14*
X615787Y726688D02*
X615787Y724466D01*
X615609Y724021D01*
X615254Y723799D01*
X614898Y723799D01*
X614543Y724021D01*
X614365Y724466D01*
X614365Y726688D01*
X614543Y727132D01*
X614898Y727354D01*
X615254Y727354D01*
X615609Y727132D01*
X615787Y726688D01*
G54D14*
X617031Y726688D02*
X617209Y727132D01*
X617564Y727354D01*
X617920Y727354D01*
X618276Y727132D01*
X618453Y726688D01*
X618453Y726243D01*
X618275Y725799D01*
X617920Y725577D01*
X618275Y725354D01*
X618453Y724910D01*
X618453Y724466D01*
X618275Y724021D01*
X617920Y723799D01*
X617564Y723799D01*
X617209Y724021D01*
X617031Y724466D01*
G54D11*
X222497Y673007D02*
X222497Y696907D01*
X231997Y696907D01*
X231997Y706307D01*
X222497Y706307D01*
X222497Y730108D01*
X222397Y730207D01*
X425697Y730207D01*
X425697Y673007D01*
X222497Y673007D01*
G54D11*
G75*
G01X229849Y685526D02*
G03X229849Y685526I0J-4366D01*
G01*
G54D18*
X277918Y677541D02*
X278807Y677896D01*
X279252Y678607D01*
X279252Y679318D01*
X278807Y680030D01*
X277918Y680385D01*
X277030Y680385D01*
X276140Y680030D01*
X275696Y679318D01*
X275696Y678607D01*
X275252Y677896D01*
X274363Y677541D01*
X273474Y677541D01*
X272585Y677896D01*
X272141Y678607D01*
X272140Y679318D01*
X272585Y680030D01*
X273474Y680385D01*
G54D18*
X279252Y682874D02*
X272140Y682874D01*
X279252Y685718D01*
X272140Y685718D01*
G54D18*
X272140Y688207D02*
X272140Y691051D01*
X273029Y690696D01*
X274363Y689984D01*
X276140Y689273D01*
X277474Y688918D01*
X279252Y688918D01*
G54D18*
X273474Y696384D02*
X272585Y696028D01*
X272140Y695317D01*
X272140Y694606D01*
X272585Y693895D01*
X273474Y693540D01*
X275696Y693540D01*
X276140Y693540D01*
X275252Y694606D01*
X275252Y695317D01*
X275696Y696029D01*
X276585Y696384D01*
X277918Y696384D01*
X278807Y696028D01*
X279252Y695317D01*
X279252Y694606D01*
X278807Y693895D01*
X277918Y693540D01*
X275696Y693540D01*
G54D18*
X279252Y701006D02*
X272141Y701006D01*
X276585Y698873D01*
X277474Y698873D01*
X277474Y701717D01*
G54D18*
X275696Y705983D02*
X275696Y705272D01*
X275252Y704561D01*
X274363Y704206D01*
X273474Y704206D01*
X272585Y704561D01*
X272140Y705272D01*
X272140Y705983D01*
X272585Y706695D01*
X273474Y707050D01*
X274363Y707050D01*
X275252Y706695D01*
X275696Y705983D01*
X276140Y706695D01*
X277030Y707050D01*
X277918Y707050D01*
X278807Y706694D01*
X279252Y705983D01*
X279252Y705272D01*
X278807Y704561D01*
X277918Y704206D01*
X277030Y704206D01*
X276140Y704561D01*
X275696Y705272D01*
G54D18*
X277918Y709539D02*
X278807Y709894D01*
X279252Y710605D01*
X279252Y711316D01*
X278807Y712028D01*
X277918Y712383D01*
X275696Y712383D01*
X275252Y712383D01*
X276140Y711316D01*
X276140Y710605D01*
X275696Y709894D01*
X274807Y709539D01*
X273474Y709539D01*
X272585Y709894D01*
X272140Y710605D01*
X272140Y711316D01*
X272585Y712028D01*
X273474Y712383D01*
X275696Y712383D01*
G54D18*
X279252Y714872D02*
X272140Y716649D01*
X279252Y718427D01*
G54D18*
X276585Y715583D02*
X276585Y717716D01*
G54D18*
X279252Y720917D02*
X272140Y720917D01*
X279252Y723761D01*
X272140Y723761D01*
G54D14*
X233667Y649636D02*
X233667Y653191D01*
X234556Y653191D01*
X234912Y652969D01*
X235090Y652524D01*
X235090Y650302D01*
X234912Y649858D01*
X234556Y649636D01*
X233667Y649636D01*
G54D14*
X237756Y649636D02*
X236333Y649636D01*
X236333Y649858D01*
X236511Y650302D01*
X237578Y651636D01*
X237756Y652080D01*
X237756Y652524D01*
X237578Y652969D01*
X237222Y653191D01*
X236867Y653191D01*
X236511Y652969D01*
X236333Y652524D01*
G54D14*
X259235Y649807D02*
X259235Y653362D01*
X260124Y653362D01*
X260479Y653140D01*
X260657Y652696D01*
X260657Y650474D01*
X260479Y650029D01*
X260124Y649807D01*
X259235Y649807D01*
G54D14*
X261901Y652029D02*
X262790Y653362D01*
X262790Y649807D01*
G54D14*
X284823Y649933D02*
X284823Y653488D01*
X285712Y653488D01*
X286067Y653266D01*
X286245Y652822D01*
X286245Y650600D01*
X286067Y650155D01*
X285712Y649933D01*
X284823Y649933D01*
G54D14*
X288911Y652822D02*
X288911Y650600D01*
X288733Y650155D01*
X288378Y649933D01*
X288022Y649933D01*
X287666Y650155D01*
X287489Y650600D01*
X287489Y652822D01*
X287666Y653266D01*
X288022Y653488D01*
X288378Y653488D01*
X288733Y653266D01*
X288911Y652822D01*
G54D14*
X306529Y651525D02*
X307062Y651080D01*
X307240Y650636D01*
X307240Y649747D01*
G54D14*
X305818Y649747D02*
X305818Y653302D01*
X306706Y653302D01*
X307062Y653080D01*
X307240Y652636D01*
X307240Y652191D01*
X307062Y651747D01*
X306706Y651525D01*
X305818Y651525D01*
G54D14*
X309728Y649747D02*
X308484Y649747D01*
X308484Y653302D01*
X309728Y653302D01*
G54D14*
X308484Y651525D02*
X309728Y651525D01*
G54D14*
X310972Y649747D02*
X311860Y653302D01*
X312749Y649747D01*
G54D14*
X311327Y651080D02*
X312394Y651080D01*
G54D14*
X313994Y649747D02*
X313994Y653302D01*
X314882Y653302D01*
X315238Y653080D01*
X315416Y652636D01*
X315416Y650414D01*
X315238Y649969D01*
X314882Y649747D01*
X313994Y649747D01*
G54D14*
X316660Y653302D02*
X317548Y651525D01*
X317548Y649747D01*
G54D14*
X317548Y651525D02*
X318437Y653302D01*
G54D14*
X334700Y653314D02*
X334700Y649758D01*
X335589Y651980D01*
X336478Y649758D01*
X336478Y653314D01*
G54D14*
X338966Y649758D02*
X337722Y649758D01*
X337722Y653314D01*
X338966Y653314D01*
G54D14*
X337722Y651536D02*
X338966Y651536D01*
G54D14*
X361639Y652610D02*
X361639Y650388D01*
X361461Y649944D01*
X361106Y649722D01*
X360750Y649722D01*
X360395Y649944D01*
X360217Y650388D01*
X360217Y652610D01*
X360395Y653055D01*
X360750Y653277D01*
X361106Y653277D01*
X361461Y653055D01*
X361639Y652610D01*
G54D14*
X364127Y649722D02*
X362883Y649722D01*
X362883Y653277D01*
X364127Y653277D01*
G54D14*
X362883Y651500D02*
X364127Y651500D01*
G54D14*
X378291Y649482D02*
X379180Y653037D01*
X380069Y649482D01*
G54D14*
X378647Y650815D02*
X379714Y650815D01*
G54D14*
X381313Y653037D02*
X381313Y650148D01*
X381491Y649704D01*
X381847Y649482D01*
X382202Y649482D01*
X382558Y649704D01*
X382736Y650148D01*
X382736Y653037D01*
G54D14*
X383979Y649482D02*
X383980Y653037D01*
X384868Y653037D01*
X385224Y652815D01*
X385402Y652371D01*
X385402Y650149D01*
X385224Y649704D01*
X384868Y649482D01*
X383979Y649482D01*
G54D14*
X386645Y649482D02*
X386645Y653037D01*
G54D14*
X389312Y652371D02*
X389312Y650148D01*
X389134Y649704D01*
X388778Y649482D01*
X388423Y649482D01*
X388067Y649704D01*
X387890Y650148D01*
X387889Y652371D01*
X388067Y652815D01*
X388423Y653037D01*
X388778Y653037D01*
X389134Y652815D01*
X389312Y652371D01*
G54D14*
X393258Y652371D02*
X393258Y650149D01*
X393080Y649704D01*
X392724Y649482D01*
X392369Y649482D01*
X392013Y649704D01*
X391835Y650148D01*
X391836Y652371D01*
X392013Y652815D01*
X392369Y653037D01*
X392724Y653037D01*
X393080Y652815D01*
X393258Y652371D01*
G54D14*
X394501Y653037D02*
X394501Y650149D01*
X394679Y649704D01*
X395035Y649482D01*
X395390Y649482D01*
X395746Y649704D01*
X395924Y650148D01*
X395924Y653037D01*
G54D14*
X397879Y649482D02*
X397879Y653037D01*
G54D14*
X397167Y653037D02*
X398590Y653037D01*
G54D14*
X410746Y651200D02*
X411457Y651200D01*
X411457Y650089D01*
X411279Y649644D01*
X410924Y649422D01*
X410568Y649422D01*
X410213Y649644D01*
X410035Y650089D01*
X410035Y652311D01*
X410213Y652755D01*
X410568Y652978D01*
X410924Y652978D01*
X411279Y652755D01*
X411457Y652311D01*
G54D14*
X412701Y649422D02*
X412701Y652978D01*
X414123Y649422D01*
X414123Y652978D01*
G54D14*
X415367Y649422D02*
X415367Y652978D01*
X416256Y652978D01*
X416611Y652755D01*
X416789Y652311D01*
X416789Y650089D01*
X416611Y649644D01*
X416256Y649422D01*
X415367Y649422D01*
G54D14*
X411433Y750336D02*
X411433Y753892D01*
X412855Y750336D01*
X412855Y753892D01*
G54D14*
X415521Y751003D02*
X415343Y750558D01*
X414988Y750336D01*
X414632Y750336D01*
X414277Y750558D01*
X414099Y751003D01*
X414099Y753225D01*
X414277Y753669D01*
X414632Y753892D01*
X414988Y753892D01*
X415343Y753669D01*
X415521Y753225D01*
G54D14*
X385466Y749817D02*
X385466Y753373D01*
X386355Y753373D01*
X386710Y753150D01*
X386888Y752706D01*
X386888Y750484D01*
X386710Y750039D01*
X386355Y749817D01*
X385466Y749817D01*
G54D14*
X388132Y753373D02*
X389554Y753373D01*
X389376Y752928D01*
X389021Y752262D01*
X388665Y751373D01*
X388487Y750706D01*
X388487Y749817D01*
G54D14*
X359832Y749946D02*
X359832Y753501D01*
X360721Y753501D01*
X361077Y753279D01*
X361254Y752834D01*
X361254Y750612D01*
X361077Y750168D01*
X360721Y749946D01*
X359832Y749946D01*
G54D14*
X363920Y752834D02*
X363743Y753279D01*
X363387Y753501D01*
X363032Y753501D01*
X362676Y753279D01*
X362498Y752834D01*
X362498Y751723D01*
X362498Y751501D01*
X363032Y751945D01*
X363387Y751946D01*
X363743Y751723D01*
X363920Y751279D01*
X363920Y750612D01*
X363743Y750168D01*
X363387Y749946D01*
X363032Y749946D01*
X362676Y750168D01*
X362498Y750612D01*
X362498Y751723D01*
G54D14*
X334730Y749987D02*
X334730Y753542D01*
X335619Y753542D01*
X335975Y753320D01*
X336152Y752876D01*
X336152Y750653D01*
X335975Y750209D01*
X335619Y749987D01*
X334730Y749987D01*
G54D14*
X338818Y753542D02*
X337396Y753542D01*
X337396Y751987D01*
X337574Y751987D01*
X337930Y752209D01*
X338285Y752209D01*
X338641Y751987D01*
X338818Y751542D01*
X338818Y750653D01*
X338641Y750209D01*
X338285Y749987D01*
X337930Y749987D01*
X337574Y750209D01*
X337396Y750653D01*
G54D14*
X309039Y749954D02*
X309039Y753510D01*
X309928Y753510D01*
X310284Y753288D01*
X310461Y752843D01*
X310461Y750621D01*
X310284Y750177D01*
X309928Y749954D01*
X309039Y749954D01*
G54D14*
X312772Y749954D02*
X312772Y753510D01*
X311705Y751288D01*
X311705Y750843D01*
X313127Y750843D01*
G54D14*
X280247Y750434D02*
X280070Y749990D01*
X279714Y749767D01*
X279358Y749767D01*
X279003Y749989D01*
X278825Y750434D01*
X278825Y752656D01*
X279003Y753101D01*
X279359Y753323D01*
X279714Y753323D01*
X280070Y753100D01*
X280247Y752656D01*
G54D14*
X281491Y753323D02*
X281491Y749767D01*
X282736Y749767D01*
G54D14*
X285401Y752656D02*
X285401Y750434D01*
X285224Y749990D01*
X284868Y749767D01*
X284513Y749767D01*
X284157Y749989D01*
X283979Y750434D01*
X283979Y752656D01*
X284157Y753100D01*
X284513Y753323D01*
X284868Y753323D01*
X285224Y753100D01*
X285401Y752656D01*
G54D14*
X288067Y750434D02*
X287890Y749989D01*
X287534Y749767D01*
X287179Y749767D01*
X286823Y749989D01*
X286645Y750434D01*
X286645Y752656D01*
X286823Y753100D01*
X287179Y753323D01*
X287534Y753323D01*
X287890Y753100D01*
X288067Y752656D01*
G54D14*
X289311Y749767D02*
X289311Y753323D01*
G54D14*
X289311Y750878D02*
X290733Y753323D01*
G54D14*
X289845Y751545D02*
X290733Y749767D01*
G54D14*
X258232Y749946D02*
X258232Y753501D01*
X259121Y753501D01*
X259477Y753279D01*
X259654Y752834D01*
X259654Y750612D01*
X259477Y750168D01*
X259121Y749946D01*
X258232Y749946D01*
G54D14*
X260898Y752834D02*
X261076Y753279D01*
X261432Y753501D01*
X261787Y753501D01*
X262143Y753279D01*
X262320Y752834D01*
X262320Y752390D01*
X262143Y751946D01*
X261787Y751723D01*
X262143Y751501D01*
X262320Y751056D01*
X262320Y750612D01*
X262143Y750168D01*
X261787Y749946D01*
X261432Y749946D01*
X261076Y750168D01*
X260898Y750612D01*
G54D14*
X231106Y753509D02*
X231994Y749954D01*
X232883Y753509D01*
G54D14*
X235550Y750620D02*
X235372Y750176D01*
X235016Y749954D01*
X234661Y749954D01*
X234305Y750176D01*
X234128Y750620D01*
X234128Y752843D01*
X234305Y753287D01*
X234661Y753509D01*
X235016Y753509D01*
X235372Y753287D01*
X235550Y752843D01*
G54D14*
X238216Y750620D02*
X238038Y750176D01*
X237682Y749954D01*
X237327Y749954D01*
X236971Y750176D01*
X236794Y750620D01*
X236794Y752843D01*
X236971Y753287D01*
X237327Y753509D01*
X237682Y753509D01*
X238038Y753287D01*
X238216Y752843D01*
G54D17*
X689602Y687912D02*
X689602Y705912D01*
X723602Y705912D01*
X723602Y687912D01*
X689602Y687912D01*
G54D17*
X578081Y618459D02*
X578081Y636459D01*
X612081Y636459D01*
X612081Y618459D01*
X578081Y618459D01*
G54D10*
X712142Y709215D02*
X710009Y709215D01*
X710009Y709548D01*
X710275Y710215D01*
X711875Y712215D01*
X712142Y712882D01*
X712142Y713548D01*
X711875Y714215D01*
X711342Y714548D01*
X710809Y714548D01*
X710275Y714215D01*
X710009Y713548D01*
G54D10*
X716142Y709215D02*
X714009Y709215D01*
X714009Y709548D01*
X714275Y710215D01*
X715875Y712215D01*
X716142Y712882D01*
X716142Y713548D01*
X715875Y714215D01*
X715342Y714548D01*
X714809Y714548D01*
X714275Y714215D01*
X714009Y713548D01*
G54D10*
X718009Y712215D02*
X718009Y707882D01*
G54D10*
X718009Y710215D02*
X718275Y709348D01*
X718809Y709215D01*
X719342Y709348D01*
X719609Y710015D01*
X719609Y711348D01*
X719342Y712015D01*
X718809Y712215D01*
X718275Y712015D01*
X718009Y711215D01*
G54D10*
X721476Y709215D02*
X721476Y714548D01*
X723342Y714548D01*
G54D10*
X721476Y711882D02*
X723342Y711882D01*
G54D10*
X600621Y639762D02*
X598488Y639762D01*
X598488Y640096D01*
X598754Y640762D01*
X600354Y642762D01*
X600621Y643429D01*
X600621Y644096D01*
X600354Y644762D01*
X599821Y645096D01*
X599288Y645096D01*
X598754Y644762D01*
X598488Y644096D01*
G54D10*
X604621Y639762D02*
X602488Y639762D01*
X602488Y640096D01*
X602754Y640762D01*
X604354Y642762D01*
X604621Y643429D01*
X604621Y644096D01*
X604354Y644762D01*
X603821Y645096D01*
X603288Y645096D01*
X602754Y644762D01*
X602488Y644096D01*
G54D10*
X606488Y642762D02*
X606488Y638429D01*
G54D10*
X606488Y640762D02*
X606754Y639896D01*
X607288Y639762D01*
X607821Y639896D01*
X608088Y640562D01*
X608088Y641896D01*
X607821Y642562D01*
X607288Y642762D01*
X606754Y642562D01*
X606488Y641762D01*
G54D10*
X609954Y639762D02*
X609954Y645096D01*
X611821Y645096D01*
G54D10*
X609954Y642429D02*
X611821Y642429D01*
G54D17*
X687681Y746854D02*
X705681Y746854D01*
X705681Y712854D01*
X687681Y712854D01*
X687681Y746854D01*
G54D10*
X689372Y751840D02*
X690705Y753840D01*
X690705Y748506D01*
G54D10*
X694705Y752840D02*
X694705Y749506D01*
X694439Y748840D01*
X693905Y748506D01*
X693372Y748506D01*
X692839Y748840D01*
X692572Y749506D01*
X692572Y752840D01*
X692839Y753506D01*
X693372Y753840D01*
X693905Y753840D01*
X694439Y753506D01*
X694705Y752840D01*
G54D10*
X698705Y752840D02*
X698705Y749506D01*
X698439Y748840D01*
X697905Y748506D01*
X697372Y748506D01*
X696839Y748840D01*
X696572Y749506D01*
X696572Y752840D01*
X696839Y753506D01*
X697372Y753840D01*
X697905Y753840D01*
X698439Y753506D01*
X698705Y752840D01*
G54D10*
X700572Y748506D02*
X700572Y751506D01*
G54D10*
X700572Y750840D02*
X700839Y751306D01*
X701372Y751506D01*
X701905Y751306D01*
X702172Y750840D01*
X702172Y748506D01*
G54D10*
X704039Y748506D02*
X704039Y753840D01*
X705906Y753840D01*
G54D10*
X704039Y751173D02*
X705906Y751173D01*
G54D11*
G75*
G01X564233Y585883D02*
G03X564233Y585883I0J7541D01*
G01*
G54D11*
X595586Y612077D02*
X595586Y575167D01*
X533277Y575167D01*
X533277Y612077D01*
X595586Y612077D01*
G54D11*
X592014Y595805D02*
X592014Y591439D01*
G36*
X592514Y595805D02*
X591514Y595805D01*
X591514Y596305D01*
X592514Y596305D01*
X592514Y595805D01*
G37*
G36*
X591514Y591439D02*
X592514Y591439D01*
X592514Y590939D01*
X591514Y590939D01*
X591514Y591439D01*
G37*
G54D11*
X538833Y595805D02*
X538833Y591439D01*
G36*
X539333Y595805D02*
X538333Y595805D01*
X538333Y596305D01*
X539333Y596305D01*
X539333Y595805D01*
G37*
G36*
X538333Y591439D02*
X539333Y591439D01*
X539333Y590939D01*
X538333Y590939D01*
X538333Y591439D01*
G37*
G54D11*
X574155Y606520D02*
X554311Y606520D01*
G36*
X574155Y606020D02*
X574155Y607020D01*
X574655Y607020D01*
X574655Y606020D01*
X574155Y606020D01*
G37*
G36*
X554311Y607020D02*
X554311Y606020D01*
X553811Y606020D01*
X553811Y607020D01*
X554311Y607020D01*
G37*
G54D11*
X574155Y580724D02*
X554311Y580724D01*
G36*
X574155Y580224D02*
X574155Y581224D01*
X574655Y581224D01*
X574655Y580224D01*
X574155Y580224D01*
G37*
G36*
X554311Y581224D02*
X554311Y580224D01*
X553811Y580224D01*
X553811Y581224D01*
X554311Y581224D01*
G37*
G54D15*
X514785Y577587D02*
X515229Y576475D01*
X516118Y575920D01*
X517007Y575920D01*
X517896Y576475D01*
X518340Y577587D01*
X518340Y578698D01*
X517896Y579809D01*
X517007Y580364D01*
X516118Y580364D01*
X515229Y580920D01*
X514785Y582031D01*
X514785Y583142D01*
X515229Y584253D01*
X516118Y584809D01*
X517007Y584809D01*
X517896Y584253D01*
X518340Y583142D01*
G54D15*
X524563Y575920D02*
X521452Y575920D01*
X521452Y584809D01*
X524563Y584809D01*
G54D15*
X521452Y580364D02*
X524563Y580364D01*
G54D15*
X529452Y575920D02*
X529452Y584809D01*
G54D15*
X527674Y584809D02*
X531229Y584809D01*
G54D19*
X386757Y677936D02*
X386757Y722380D01*
X370090Y722380D01*
X363424Y719602D01*
X360091Y714046D01*
X360090Y686269D01*
X363424Y680713D01*
X370090Y677935D01*
X386757Y677936D01*
G54D19*
X382094Y677885D02*
X382094Y722330D01*
X365428Y722330D01*
X358761Y719552D01*
X355428Y713996D01*
X355428Y708441D01*
X358761Y702885D01*
X365428Y700107D01*
X382094Y700108D01*
G54D19*
X395082Y677935D02*
X395082Y722380D01*
X411749Y722380D01*
X418415Y719602D01*
X421748Y714046D01*
X421749Y708491D01*
X418415Y702935D01*
X411748Y700158D01*
X395082Y700158D01*
G54D19*
X390953Y681904D02*
X390953Y726348D01*
G54D19*
X377619Y726348D02*
X404286Y726348D01*
G54D17*
X157853Y671446D02*
X175853Y671446D01*
X175853Y637446D01*
X157853Y637446D01*
X157853Y671446D01*
G54D17*
X177696Y671446D02*
X195696Y671446D01*
X195696Y637446D01*
X177696Y637446D01*
X177696Y671446D01*
G54D10*
X160090Y673100D02*
X157956Y673100D01*
X157956Y673433D01*
X158223Y674100D01*
X159823Y676100D01*
X160090Y676767D01*
X160090Y677433D01*
X159823Y678100D01*
X159290Y678433D01*
X158756Y678433D01*
X158223Y678100D01*
X157956Y677433D01*
G54D10*
X161956Y673100D02*
X161956Y673100D01*
G54D10*
X165957Y673100D02*
X163823Y673100D01*
X163823Y673433D01*
X164090Y674100D01*
X165690Y676100D01*
X165957Y676767D01*
X165957Y677433D01*
X165690Y678100D01*
X165157Y678433D01*
X164623Y678433D01*
X164090Y678100D01*
X163823Y677433D01*
G54D10*
X167823Y673100D02*
X167823Y678433D01*
G54D10*
X167823Y674767D02*
X169957Y678433D01*
G54D10*
X168623Y675767D02*
X169957Y673100D01*
G54D10*
X179933Y672703D02*
X177800Y672703D01*
X177800Y673036D01*
X178067Y673703D01*
X179667Y675703D01*
X179933Y676370D01*
X179933Y677036D01*
X179667Y677703D01*
X179133Y678036D01*
X178600Y678036D01*
X178067Y677703D01*
X177800Y677036D01*
G54D10*
X183933Y672703D02*
X181800Y672703D01*
X181800Y673036D01*
X182067Y673703D01*
X183667Y675703D01*
X183933Y676370D01*
X183933Y677036D01*
X183667Y677703D01*
X183133Y678036D01*
X182600Y678036D01*
X182067Y677703D01*
X181800Y677036D01*
G54D10*
X187933Y677036D02*
X187933Y673703D01*
X187667Y673036D01*
X187133Y672703D01*
X186600Y672703D01*
X186067Y673036D01*
X185800Y673703D01*
X185800Y677036D01*
X186067Y677703D01*
X186600Y678036D01*
X187133Y678036D01*
X187667Y677703D01*
X187933Y677036D01*
G54D10*
X189800Y675703D02*
X189800Y671370D01*
G54D10*
X189800Y673703D02*
X190067Y672836D01*
X190600Y672703D01*
X191133Y672836D01*
X191400Y673503D01*
X191400Y674836D01*
X191133Y675503D01*
X190600Y675703D01*
X190067Y675503D01*
X189800Y674703D01*
G54D10*
X193267Y672703D02*
X193267Y678036D01*
X195134Y678036D01*
G54D10*
X193267Y675370D02*
X195134Y675370D01*
G54D17*
X191791Y697974D02*
X191791Y679974D01*
X157791Y679974D01*
X157791Y697974D01*
X191791Y697974D01*
G54D10*
X157559Y703024D02*
X158893Y705024D01*
X158893Y699691D01*
G54D10*
X162359Y702691D02*
X162359Y699691D01*
G54D10*
X162359Y700357D02*
X162093Y699824D01*
X161559Y699691D01*
X161026Y699824D01*
X160759Y700357D01*
X160759Y702691D01*
G54D10*
X164226Y699691D02*
X164226Y705024D01*
X166093Y705024D01*
G54D10*
X164226Y702357D02*
X166093Y702357D01*
G54D17*
X212762Y700153D02*
X194762Y700153D01*
X194763Y734153D01*
X212763Y734153D01*
X212762Y700153D01*
G54D17*
X192125Y700153D02*
X174125Y700153D01*
X174125Y734153D01*
X192125Y734153D01*
X192125Y700153D01*
G54D10*
X176758Y736203D02*
X174625Y736203D01*
X174625Y736536D01*
X174892Y737203D01*
X176492Y739203D01*
X176758Y739870D01*
X176758Y740536D01*
X176492Y741203D01*
X175958Y741536D01*
X175425Y741536D01*
X174892Y741203D01*
X174625Y740536D01*
G54D10*
X178625Y739203D02*
X180758Y736203D01*
G54D10*
X178625Y736203D02*
X180758Y739203D01*
G54D10*
X184758Y741536D02*
X182625Y741536D01*
X182625Y739203D01*
X182892Y739203D01*
X183425Y739536D01*
X183958Y739536D01*
X184492Y739203D01*
X184758Y738536D01*
X184758Y737203D01*
X184492Y736536D01*
X183958Y736203D01*
X183425Y736203D01*
X182892Y736536D01*
X182625Y737203D01*
G54D10*
X186625Y739536D02*
X187958Y741536D01*
X187958Y736203D01*
G54D10*
X189825Y736203D02*
X189825Y741536D01*
G54D10*
X189825Y737870D02*
X191958Y741536D01*
G54D10*
X190625Y738870D02*
X191958Y736203D01*
G54D17*
X497119Y803007D02*
X497119Y821007D01*
X531118Y821007D01*
X531118Y803007D01*
X497119Y803007D01*
G54D10*
X497284Y826849D02*
X498618Y828849D01*
X498618Y823516D01*
G54D10*
X502618Y827849D02*
X502618Y824516D01*
X502351Y823849D01*
X501818Y823516D01*
X501284Y823516D01*
X500751Y823849D01*
X500484Y824516D01*
X500484Y827849D01*
X500751Y828516D01*
X501284Y828849D01*
X501818Y828849D01*
X502351Y828516D01*
X502618Y827849D01*
G54D10*
X506618Y827849D02*
X506618Y824516D01*
X506351Y823849D01*
X505818Y823516D01*
X505284Y823516D01*
X504751Y823849D01*
X504484Y824516D01*
X504484Y827849D01*
X504751Y828516D01*
X505284Y828849D01*
X505818Y828849D01*
X506351Y828516D01*
X506618Y827849D01*
G54D10*
X508484Y823516D02*
X508484Y826516D01*
G54D10*
X508484Y825849D02*
X508751Y826316D01*
X509284Y826516D01*
X509818Y826316D01*
X510084Y825849D01*
X510084Y823516D01*
G54D10*
X511951Y823516D02*
X511951Y828849D01*
X513818Y828849D01*
G54D10*
X511951Y826182D02*
X513818Y826182D01*
G54D10*
X15223Y684496D02*
X15223Y689830D01*
X16556Y689830D01*
X17090Y689496D01*
X17356Y688830D01*
X17356Y685496D01*
X17090Y684830D01*
X16556Y684496D01*
X15223Y684496D01*
G54D10*
X19223Y684496D02*
X19223Y689830D01*
X20557Y689830D01*
X21090Y689496D01*
X21356Y688830D01*
X21356Y688163D01*
X21090Y687496D01*
X20556Y687163D01*
X19223Y687163D01*
G54D10*
X24290Y684496D02*
X24290Y689830D01*
G54D10*
X23223Y689830D02*
X25356Y689830D01*
G54D10*
X27223Y684496D02*
X27223Y689830D01*
X28556Y689830D01*
X29090Y689496D01*
X29356Y688830D01*
X29356Y688163D01*
X29090Y687496D01*
X28556Y687163D01*
X27223Y687163D01*
G54D10*
X33143Y685496D02*
X33410Y684830D01*
X33943Y684496D01*
X34476Y684496D01*
X35010Y684830D01*
X35276Y685496D01*
X35276Y686163D01*
X35010Y686830D01*
X34476Y687163D01*
X33943Y687163D01*
X33410Y687496D01*
X33143Y688163D01*
X33143Y688830D01*
X33410Y689496D01*
X33943Y689830D01*
X34476Y689830D01*
X35010Y689496D01*
X35276Y688830D01*
G54D10*
X37143Y687496D02*
X38210Y684496D01*
X39276Y687496D01*
G54D10*
X38210Y684496D02*
X37943Y683496D01*
X37676Y683163D01*
X37410Y683163D01*
G54D10*
X41143Y684830D02*
X41676Y684496D01*
X42210Y684496D01*
X42743Y684830D01*
X42743Y685496D01*
X42476Y685830D01*
X41410Y686163D01*
X41143Y686496D01*
X41143Y687163D01*
X41676Y687496D01*
X42210Y687496D01*
X42743Y687163D01*
G54D10*
X45144Y689830D02*
X45144Y684830D01*
X45410Y684496D01*
X45677Y684630D01*
G54D10*
X44610Y687496D02*
X45677Y687496D01*
G54D10*
X49144Y684830D02*
X48718Y684496D01*
X48184Y684496D01*
X47651Y684830D01*
X47544Y685496D01*
X47544Y686630D01*
X47811Y687296D01*
X48344Y687496D01*
X48878Y687296D01*
X49144Y686830D01*
X49144Y686163D01*
X47544Y686163D01*
G54D10*
X51011Y684496D02*
X51011Y687496D01*
G54D10*
X51011Y686963D02*
X51545Y687496D01*
X52078Y687296D01*
X52344Y686830D01*
X52344Y684496D01*
G54D10*
X52344Y686963D02*
X52878Y687496D01*
X53411Y687296D01*
X53678Y686830D01*
X53678Y684496D01*
G54D10*
X17356Y676956D02*
X15223Y676956D01*
X15223Y677289D01*
X15490Y677956D01*
X17090Y679956D01*
X17356Y680622D01*
X17356Y681289D01*
X17090Y681956D01*
X16556Y682289D01*
X16023Y682289D01*
X15490Y681956D01*
X15223Y681289D01*
G54D10*
X21356Y681289D02*
X21356Y677956D01*
X21090Y677289D01*
X20556Y676956D01*
X20023Y676956D01*
X19490Y677289D01*
X19223Y677956D01*
X19223Y681289D01*
X19490Y681956D01*
X20023Y682289D01*
X20556Y682289D01*
X21090Y681956D01*
X21356Y681289D01*
G54D10*
X25356Y676956D02*
X23223Y676956D01*
X23223Y677289D01*
X23490Y677956D01*
X25090Y679956D01*
X25356Y680622D01*
X25356Y681289D01*
X25090Y681956D01*
X24556Y682289D01*
X24023Y682289D01*
X23490Y681956D01*
X23223Y681289D01*
G54D10*
X29356Y681289D02*
X29356Y677956D01*
X29090Y677289D01*
X28556Y676956D01*
X28023Y676956D01*
X27490Y677289D01*
X27223Y677956D01*
X27223Y681289D01*
X27490Y681956D01*
X28023Y682289D01*
X28556Y682289D01*
X29090Y681956D01*
X29356Y681289D01*
G54D10*
X31223Y679289D02*
X33356Y679289D01*
G54D10*
X37356Y681289D02*
X37356Y677956D01*
X37090Y677289D01*
X36556Y676956D01*
X36023Y676956D01*
X35490Y677289D01*
X35223Y677956D01*
X35223Y681289D01*
X35490Y681956D01*
X36023Y682289D01*
X36556Y682289D01*
X37090Y681956D01*
X37356Y681289D01*
G54D10*
X39223Y682289D02*
X41356Y682289D01*
X41090Y681622D01*
X40556Y680622D01*
X40023Y679289D01*
X39756Y678289D01*
X39756Y676956D01*
G54D10*
X43223Y679289D02*
X45356Y679289D01*
G54D10*
X47223Y680289D02*
X48556Y682289D01*
X48556Y676956D01*
G54D10*
X50423Y681289D02*
X50690Y681956D01*
X51223Y682289D01*
X51756Y682289D01*
X52290Y681956D01*
X52556Y681289D01*
X52556Y680622D01*
X52290Y679956D01*
X51756Y679622D01*
X52290Y679289D01*
X52556Y678622D01*
X52556Y677956D01*
X52290Y677289D01*
X51756Y676956D01*
X51223Y676956D01*
X50690Y677289D01*
X50423Y677956D01*
G54D10*
X15620Y674748D02*
X16953Y669415D01*
X18287Y674748D01*
G54D10*
X21221Y672082D02*
X22287Y672082D01*
X22287Y670415D01*
X22021Y669748D01*
X21487Y669415D01*
X20954Y669415D01*
X20421Y669748D01*
X20154Y670415D01*
X20154Y673748D01*
X20421Y674415D01*
X20954Y674748D01*
X21487Y674748D01*
X22021Y674415D01*
X22287Y673748D01*
G54D10*
X24154Y669415D02*
X24154Y674748D01*
X25487Y671415D01*
X26821Y674748D01*
X26821Y669415D01*
G54D10*
X30608Y669415D02*
X30608Y674748D01*
X31941Y674748D01*
X32475Y674415D01*
X32741Y673748D01*
X32741Y673082D01*
X32475Y672415D01*
X31941Y672082D01*
X30608Y672082D01*
G54D10*
X34608Y669415D02*
X34608Y674748D01*
G54D10*
X36475Y672082D02*
X37008Y672415D01*
X37648Y672415D01*
X38075Y671748D01*
X38075Y669415D01*
G54D10*
X38075Y670415D02*
X37808Y671082D01*
X37275Y671215D01*
X36742Y671082D01*
X36475Y670415D01*
X36582Y669748D01*
X37008Y669415D01*
X37275Y669415D01*
X37382Y669415D01*
X37808Y669748D01*
X38075Y670415D01*
G54D10*
X39942Y672415D02*
X41009Y669415D01*
X42075Y672415D01*
G54D10*
X41009Y669415D02*
X40742Y668415D01*
X40475Y668082D01*
X40209Y668082D01*
G54D10*
X45542Y669748D02*
X45115Y669415D01*
X44582Y669415D01*
X44049Y669748D01*
X43942Y670415D01*
X43942Y671548D01*
X44209Y672215D01*
X44742Y672415D01*
X45275Y672215D01*
X45542Y671748D01*
X45542Y671082D01*
X43942Y671082D01*
G54D10*
X47409Y669415D02*
X47409Y672415D01*
G54D10*
X47409Y671748D02*
X47942Y672415D01*
X48476Y672415D01*
G54D10*
X15620Y667208D02*
X16953Y661874D01*
X18287Y667208D01*
G54D10*
X21754Y662208D02*
X21327Y661874D01*
X20794Y661874D01*
X20261Y662208D01*
X20154Y662874D01*
X20154Y664008D01*
X20421Y664674D01*
X20954Y664874D01*
X21487Y664674D01*
X21754Y664208D01*
X21754Y663541D01*
X20154Y663541D01*
G54D10*
X23621Y661874D02*
X23621Y664874D01*
G54D10*
X23621Y664208D02*
X24154Y664874D01*
X24688Y664874D01*
G54D10*
X26555Y662208D02*
X27088Y661874D01*
X27622Y661874D01*
X28155Y662208D01*
X28155Y662874D01*
X27888Y663208D01*
X26822Y663541D01*
X26555Y663874D01*
X26555Y664541D01*
X27088Y664874D01*
X27622Y664874D01*
X28155Y664541D01*
G54D10*
X30022Y661874D02*
X30022Y664874D01*
G54D10*
X30022Y665874D02*
X30022Y665874D01*
G54D10*
X33489Y662674D02*
X33489Y664008D01*
X33222Y664674D01*
X32689Y664874D01*
X32156Y664674D01*
X31889Y664008D01*
X31889Y662674D01*
X32156Y662008D01*
X32689Y661874D01*
X33222Y662008D01*
X33489Y662674D01*
G54D10*
X35356Y661874D02*
X35356Y664874D01*
G54D10*
X35356Y664208D02*
X35623Y664674D01*
X36156Y664874D01*
X36689Y664674D01*
X36956Y664208D01*
X36956Y661874D01*
G54D10*
X38823Y661874D02*
X38823Y661874D01*
G54D10*
X38823Y664874D02*
X38823Y664874D01*
G54D10*
X44743Y661874D02*
X42610Y661874D01*
X42610Y662208D01*
X42877Y662874D01*
X44477Y664874D01*
X44743Y665541D01*
X44743Y666208D01*
X44477Y666874D01*
X43943Y667208D01*
X43410Y667208D01*
X42877Y666874D01*
X42610Y666208D01*
G54D10*
X46610Y661874D02*
X46610Y661874D01*
G54D10*
X50610Y661874D02*
X48477Y661874D01*
X48477Y662208D01*
X48744Y662874D01*
X50344Y664874D01*
X50610Y665541D01*
X50610Y666208D01*
X50344Y666874D01*
X49810Y667208D01*
X49277Y667208D01*
X48744Y666874D01*
X48477Y666208D01*
G54D11*
X18333Y658813D02*
X112393Y658813D01*
X112393Y760810D01*
G54D11*
X10793Y785813D02*
X86993Y785807D01*
X86988Y785811D01*
X112388Y785811D01*
X112388Y760814D01*
X112393Y760810D01*
G54D11*
X10793Y785813D02*
X10793Y658890D01*
X10717Y658814D01*
X18333Y658813D01*
G54D11*
X10717Y742951D02*
X5161Y742951D01*
X5161Y708423D01*
X10717Y708423D01*
G54D17*
X341209Y827418D02*
X359209Y827418D01*
X359209Y793418D01*
X341209Y793418D01*
X341209Y827418D01*
G54D17*
X320572Y827418D02*
X338572Y827418D01*
X338572Y793418D01*
X320572Y793418D01*
X320572Y827418D01*
G54D10*
X323102Y829137D02*
X320969Y829137D01*
X320969Y829470D01*
X321235Y830137D01*
X322835Y832137D01*
X323102Y832804D01*
X323102Y833470D01*
X322835Y834137D01*
X322302Y834470D01*
X321769Y834470D01*
X321235Y834137D01*
X320969Y833470D01*
G54D10*
X324969Y832137D02*
X327102Y829137D01*
G54D10*
X324969Y829137D02*
X327102Y832137D01*
G54D10*
X331102Y829137D02*
X328969Y829137D01*
X328969Y829470D01*
X329235Y830137D01*
X330835Y832137D01*
X331102Y832804D01*
X331102Y833470D01*
X330835Y834137D01*
X330302Y834470D01*
X329769Y834470D01*
X329235Y834137D01*
X328969Y833470D01*
G54D10*
X332969Y829137D02*
X332969Y829137D01*
G54D10*
X336969Y829137D02*
X334836Y829137D01*
X334836Y829470D01*
X335102Y830137D01*
X336702Y832137D01*
X336969Y832804D01*
X336969Y833470D01*
X336702Y834137D01*
X336169Y834470D01*
X335636Y834470D01*
X335102Y834137D01*
X334836Y833470D01*
G54D10*
X338836Y829137D02*
X338836Y834470D01*
G54D10*
X338836Y830804D02*
X340969Y834470D01*
G54D10*
X339636Y831804D02*
X340969Y829137D01*
G54D17*
X314978Y827541D02*
X314978Y809541D01*
X280978Y809541D01*
X280978Y827541D01*
X314978Y827541D01*
G54D17*
X314978Y807300D02*
X314978Y789300D01*
X280978Y789300D01*
X280978Y807300D01*
X314978Y807300D01*
G54D10*
X283811Y829137D02*
X281678Y829137D01*
X281678Y829470D01*
X281945Y830137D01*
X283545Y832137D01*
X283811Y832804D01*
X283811Y833470D01*
X283545Y834137D01*
X283011Y834470D01*
X282478Y834470D01*
X281945Y834137D01*
X281678Y833470D01*
G54D10*
X285678Y832137D02*
X287811Y829137D01*
G54D10*
X285678Y829137D02*
X287811Y832137D01*
G54D10*
X289678Y832470D02*
X291011Y834470D01*
X291011Y829137D01*
G54D10*
X295011Y833470D02*
X295011Y830137D01*
X294745Y829470D01*
X294211Y829137D01*
X293678Y829137D01*
X293145Y829470D01*
X292878Y830137D01*
X292878Y833470D01*
X293145Y834137D01*
X293678Y834470D01*
X294211Y834470D01*
X294745Y834137D01*
X295011Y833470D01*
G54D10*
X298478Y832137D02*
X298478Y829137D01*
G54D10*
X298478Y829804D02*
X298211Y829270D01*
X297678Y829137D01*
X297145Y829270D01*
X296878Y829804D01*
X296878Y832137D01*
G54D10*
X300345Y829137D02*
X300345Y834470D01*
X302212Y834470D01*
G54D10*
X300345Y831804D02*
X302212Y831804D01*
G54D17*
X278068Y827541D02*
X278068Y809541D01*
X244068Y809541D01*
X244068Y827541D01*
X278068Y827541D01*
G54D17*
X278068Y807300D02*
X278068Y789300D01*
X244068Y789300D01*
X244068Y807300D01*
X278068Y807300D01*
G54D10*
X246505Y829137D02*
X244372Y829137D01*
X244372Y829470D01*
X244638Y830137D01*
X246238Y832137D01*
X246505Y832804D01*
X246505Y833470D01*
X246238Y834137D01*
X245705Y834470D01*
X245172Y834470D01*
X244638Y834137D01*
X244372Y833470D01*
G54D10*
X248372Y832137D02*
X250505Y829137D01*
G54D10*
X248372Y829137D02*
X250505Y832137D01*
G54D10*
X254505Y829137D02*
X252372Y829137D01*
X252372Y829470D01*
X252638Y830137D01*
X254238Y832137D01*
X254505Y832804D01*
X254505Y833470D01*
X254238Y834137D01*
X253705Y834470D01*
X253172Y834470D01*
X252638Y834137D01*
X252372Y833470D01*
G54D10*
X256372Y829137D02*
X256372Y829137D01*
G54D10*
X260372Y829137D02*
X258239Y829137D01*
X258239Y829470D01*
X258505Y830137D01*
X260105Y832137D01*
X260372Y832804D01*
X260372Y833470D01*
X260105Y834137D01*
X259572Y834470D01*
X259039Y834470D01*
X258505Y834137D01*
X258239Y833470D01*
G54D10*
X262239Y829137D02*
X262239Y834470D01*
G54D10*
X262239Y830804D02*
X264372Y834470D01*
G54D10*
X263039Y831804D02*
X264372Y829137D01*
G54D17*
X387644Y609138D02*
X405644Y609138D01*
X405644Y575138D01*
X387644Y575138D01*
X387644Y609138D01*
G54D17*
X369387Y609138D02*
X387387Y609138D01*
X387387Y575138D01*
X369387Y575138D01*
X369387Y609138D01*
G54D17*
X351131Y609138D02*
X369131Y609138D01*
X369131Y575138D01*
X351131Y575138D01*
X351131Y609138D01*
G54D17*
X332875Y609138D02*
X350875Y609138D01*
X350875Y575138D01*
X332875Y575138D01*
X332875Y609138D01*
G54D17*
X314619Y609138D02*
X332619Y609138D01*
X332619Y575138D01*
X314619Y575138D01*
X314619Y609138D01*
G54D17*
X296362Y609138D02*
X314362Y609138D01*
X314362Y575138D01*
X296362Y575138D01*
X296362Y609138D01*
G54D17*
X278106Y609138D02*
X296106Y609138D01*
X296106Y575138D01*
X278106Y575138D01*
X278106Y609138D01*
G54D17*
X259850Y609138D02*
X277850Y609138D01*
X277850Y575138D01*
X259850Y575138D01*
X259850Y609138D01*
G54D17*
X598781Y609534D02*
X616781Y609534D01*
X616781Y575534D01*
X598781Y575534D01*
X598781Y609534D01*
G54D10*
X618728Y578802D02*
X620061Y580802D01*
X620061Y575469D01*
G54D10*
X624061Y579802D02*
X624061Y576469D01*
X623795Y575802D01*
X623261Y575469D01*
X622728Y575469D01*
X622195Y575802D01*
X621928Y576469D01*
X621928Y579802D01*
X622195Y580469D01*
X622728Y580802D01*
X623261Y580802D01*
X623795Y580469D01*
X624061Y579802D01*
G54D10*
X625928Y575469D02*
X625928Y580802D01*
G54D10*
X625928Y577135D02*
X628061Y580802D01*
G54D10*
X626728Y578135D02*
X628061Y575469D01*
G54D17*
X219766Y834960D02*
X237766Y834960D01*
X237766Y800960D01*
X219766Y800960D01*
X219766Y834960D01*
G54D17*
X201509Y834960D02*
X219509Y834960D01*
X219509Y800960D01*
X201509Y800960D01*
X201509Y834960D01*
G54D17*
X183253Y834960D02*
X201253Y834960D01*
X201253Y800960D01*
X183253Y800960D01*
X183253Y834960D01*
G54D17*
X164997Y834960D02*
X182997Y834960D01*
X182997Y800960D01*
X164997Y800960D01*
X164997Y834960D01*
G54D17*
X146740Y834960D02*
X164740Y834960D01*
X164740Y800960D01*
X146740Y800960D01*
X146740Y834960D01*
G54D17*
X128484Y834960D02*
X146484Y834960D01*
X146484Y800960D01*
X128484Y800960D01*
X128484Y834960D01*
G54D10*
X124892Y570198D02*
X125958Y570198D01*
X125958Y568531D01*
X125692Y567865D01*
X125158Y567531D01*
X124625Y567531D01*
X124092Y567865D01*
X123825Y568531D01*
X123825Y571865D01*
X124092Y572531D01*
X124625Y572865D01*
X125158Y572865D01*
X125692Y572531D01*
X125958Y571865D01*
G54D10*
X127825Y567531D02*
X127825Y572865D01*
X129958Y567531D01*
X129958Y572865D01*
G54D10*
X131825Y567531D02*
X131825Y572865D01*
X133158Y572865D01*
X133692Y572531D01*
X133958Y571865D01*
X133958Y568531D01*
X133692Y567865D01*
X133158Y567531D01*
X131825Y567531D01*
G54D10*
X61340Y573286D02*
X62673Y567952D01*
X64006Y573286D01*
G54D10*
X68007Y568952D02*
X67740Y568286D01*
X67207Y567952D01*
X66674Y567952D01*
X66140Y568286D01*
X65874Y568952D01*
X65874Y572286D01*
X66140Y572952D01*
X66674Y573286D01*
X67207Y573286D01*
X67740Y572952D01*
X68007Y572286D01*
G54D10*
X72007Y568952D02*
X71740Y568286D01*
X71207Y567952D01*
X70674Y567952D01*
X70140Y568286D01*
X69874Y568952D01*
X69874Y572286D01*
X70140Y572952D01*
X70674Y573286D01*
X71207Y573286D01*
X71740Y572952D01*
X72007Y572286D01*
G54D10*
X87286Y571889D02*
X87286Y568555D01*
X87019Y567889D01*
X86486Y567555D01*
X85952Y567555D01*
X85419Y567889D01*
X85152Y568555D01*
X85152Y571889D01*
X85419Y572555D01*
X85952Y572889D01*
X86486Y572889D01*
X87019Y572555D01*
X87286Y571889D01*
G54D10*
X89152Y572889D02*
X89152Y568555D01*
X89419Y567889D01*
X89952Y567555D01*
X90486Y567555D01*
X91019Y567889D01*
X91286Y568555D01*
X91286Y572889D01*
G54D10*
X94219Y567555D02*
X94219Y572889D01*
G54D10*
X93152Y572889D02*
X95286Y572889D01*
G54D10*
X100139Y570222D02*
X100939Y569555D01*
X101206Y568889D01*
X101206Y567555D01*
G54D10*
X99072Y567555D02*
X99072Y572889D01*
X100406Y572889D01*
X100939Y572555D01*
X101206Y571889D01*
X101206Y571222D01*
X100939Y570555D01*
X100406Y570222D01*
X99072Y570222D01*
G54D11*
X53975Y600472D02*
X155575Y600472D01*
X155575Y575072D01*
X53975Y575072D01*
X53975Y600472D01*
G54D10*
X227682Y570198D02*
X228749Y570198D01*
X228749Y568531D01*
X228482Y567865D01*
X227949Y567531D01*
X227416Y567531D01*
X226882Y567865D01*
X226616Y568531D01*
X226616Y571865D01*
X226882Y572531D01*
X227416Y572865D01*
X227949Y572865D01*
X228482Y572531D01*
X228749Y571865D01*
G54D10*
X230616Y567531D02*
X230616Y572865D01*
X232749Y567531D01*
X232749Y572865D01*
G54D10*
X234616Y567531D02*
X234616Y572865D01*
X235949Y572865D01*
X236482Y572531D01*
X236749Y571865D01*
X236749Y568531D01*
X236482Y567865D01*
X235949Y567531D01*
X234616Y567531D01*
G54D10*
X164130Y573286D02*
X165464Y567952D01*
X166797Y573286D01*
G54D10*
X170798Y568952D02*
X170531Y568286D01*
X169998Y567952D01*
X169464Y567952D01*
X168931Y568286D01*
X168664Y568952D01*
X168664Y572286D01*
X168931Y572952D01*
X169464Y573286D01*
X169998Y573286D01*
X170531Y572952D01*
X170798Y572286D01*
G54D10*
X174798Y568952D02*
X174531Y568286D01*
X173998Y567952D01*
X173464Y567952D01*
X172931Y568286D01*
X172664Y568952D01*
X172664Y572286D01*
X172931Y572952D01*
X173464Y573286D01*
X173998Y573286D01*
X174531Y572952D01*
X174798Y572286D01*
G54D10*
X190076Y571889D02*
X190076Y568555D01*
X189810Y567889D01*
X189276Y567555D01*
X188743Y567555D01*
X188210Y567889D01*
X187943Y568555D01*
X187943Y571889D01*
X188210Y572555D01*
X188743Y572889D01*
X189276Y572889D01*
X189810Y572555D01*
X190076Y571889D01*
G54D10*
X191943Y572889D02*
X191943Y568555D01*
X192210Y567889D01*
X192743Y567555D01*
X193276Y567555D01*
X193810Y567889D01*
X194076Y568555D01*
X194076Y572889D01*
G54D10*
X197010Y567555D02*
X197010Y572889D01*
G54D10*
X195943Y572889D02*
X198076Y572889D01*
G54D10*
X201863Y572889D02*
X201863Y567555D01*
X203730Y567555D01*
G54D11*
X156766Y600472D02*
X258366Y600472D01*
X258366Y575072D01*
X156766Y575072D01*
X156766Y600472D01*
G54D11*
X745407Y631030D02*
X770807Y631030D01*
X770807Y733027D01*
X745407Y733027D01*
X745407Y631030D01*
G54D10*
X743423Y692819D02*
X738089Y692819D01*
G54D10*
X738089Y691752D02*
X738089Y693886D01*
G54D10*
X738089Y695752D02*
X743423Y698419D01*
G54D10*
X743423Y695752D02*
X738089Y698419D01*
G54D10*
X740756Y667022D02*
X741423Y667822D01*
X742089Y668089D01*
X743423Y668089D01*
G54D10*
X743423Y665956D02*
X738089Y665955D01*
X738089Y667289D01*
X738423Y667822D01*
X739089Y668089D01*
X739756Y668089D01*
X740423Y667822D01*
X740756Y667289D01*
X740756Y665955D01*
G54D10*
X738089Y669956D02*
X743423Y672622D01*
G54D10*
X743423Y669956D02*
X738089Y672622D01*
G54D11*
X745407Y733027D02*
X745407Y758024D01*
X745403Y758029D01*
X770803Y758029D01*
X770803Y733032D01*
X770807Y733027D01*
G54D10*
X777627Y749474D02*
X775494Y749474D01*
X775494Y747141D01*
X775760Y747141D01*
X776294Y747474D01*
X776827Y747474D01*
X777360Y747141D01*
X777627Y746474D01*
X777627Y745141D01*
X777360Y744474D01*
X776827Y744141D01*
X776294Y744141D01*
X775760Y744474D01*
X775494Y745141D01*
G54D10*
X779494Y747141D02*
X780560Y744141D01*
X781627Y747141D01*
G54D10*
X776560Y721804D02*
X777627Y721804D01*
X777627Y720138D01*
X777360Y719471D01*
X776827Y719138D01*
X776294Y719138D01*
X775760Y719471D01*
X775494Y720138D01*
X775494Y723471D01*
X775760Y724138D01*
X776294Y724471D01*
X776827Y724471D01*
X777360Y724138D01*
X777627Y723471D01*
G54D10*
X779494Y719138D02*
X779494Y724471D01*
X781627Y719138D01*
X781627Y724471D01*
G54D10*
X783494Y719138D02*
X783494Y724471D01*
X784827Y724471D01*
X785360Y724138D01*
X785627Y723471D01*
X785627Y720138D01*
X785360Y719471D01*
X784827Y719138D01*
X783494Y719138D01*
G54D10*
X776560Y694817D02*
X777360Y694150D01*
X777627Y693483D01*
X777627Y692150D01*
G54D10*
X775494Y692150D02*
X775494Y697483D01*
X776827Y697483D01*
X777360Y697150D01*
X777627Y696483D01*
X777627Y695817D01*
X777360Y695150D01*
X776827Y694817D01*
X775494Y694817D01*
G54D10*
X779494Y697483D02*
X782160Y692150D01*
G54D10*
X779494Y692150D02*
X782160Y697483D01*
G54D10*
X776560Y667544D02*
X776560Y672877D01*
G54D10*
X775494Y672877D02*
X777627Y672877D01*
G54D10*
X779494Y672877D02*
X782160Y667544D01*
G54D10*
X779494Y667544D02*
X782160Y672877D01*
G54D10*
X775494Y647668D02*
X775760Y648334D01*
X776294Y648668D01*
X776827Y648668D01*
X777360Y648334D01*
X777627Y647668D01*
X777627Y647001D01*
X777360Y646334D01*
X776827Y646001D01*
X777360Y645668D01*
X777627Y645001D01*
X777627Y644334D01*
X777360Y643668D01*
X776827Y643334D01*
X776294Y643334D01*
X775760Y643668D01*
X775494Y644334D01*
G54D10*
X779494Y643334D02*
X779494Y643334D01*
G54D10*
X781361Y647668D02*
X781627Y648334D01*
X782161Y648668D01*
X782694Y648668D01*
X783227Y648334D01*
X783494Y647668D01*
X783494Y647001D01*
X783227Y646334D01*
X782694Y646001D01*
X783227Y645668D01*
X783494Y645001D01*
X783494Y644334D01*
X783227Y643668D01*
X782694Y643334D01*
X782161Y643334D01*
X781627Y643668D01*
X781361Y644334D01*
G54D10*
X785361Y646334D02*
X786427Y643334D01*
X787494Y646334D01*
G54D10*
X44053Y741933D02*
X44053Y736600D01*
X45920Y736600D01*
G54D10*
X49654Y736600D02*
X47787Y736600D01*
X47787Y741933D01*
X49654Y741933D01*
G54D10*
X47787Y739267D02*
X49654Y739267D01*
G54D10*
X51521Y736600D02*
X51521Y741933D01*
X53388Y741933D01*
G54D10*
X51521Y739267D02*
X53388Y739267D01*
G54D10*
X56322Y736600D02*
X56322Y741933D01*
G54D10*
X55255Y741933D02*
X57388Y741933D01*
G54D10*
X70123Y774192D02*
X70923Y773525D01*
X71190Y772858D01*
X71190Y771525D01*
G54D10*
X69056Y771525D02*
X69056Y776858D01*
X70390Y776858D01*
X70923Y776525D01*
X71190Y775858D01*
X71190Y775192D01*
X70923Y774525D01*
X70390Y774192D01*
X69056Y774192D01*
G54D10*
X73056Y771525D02*
X73056Y776858D01*
G54D10*
X75990Y774192D02*
X77057Y774192D01*
X77057Y772525D01*
X76790Y771858D01*
X76257Y771525D01*
X75723Y771525D01*
X75190Y771858D01*
X74923Y772525D01*
X74923Y775858D01*
X75190Y776525D01*
X75723Y776858D01*
X76257Y776858D01*
X76790Y776525D01*
X77057Y775858D01*
G54D10*
X78923Y771525D02*
X78923Y776858D01*
G54D10*
X81057Y771525D02*
X81057Y776858D01*
G54D10*
X78923Y774192D02*
X81057Y774192D01*
G54D10*
X83990Y771525D02*
X83990Y776858D01*
G54D10*
X82923Y776858D02*
X85057Y776858D01*
G54D19*
X71318Y606102D02*
X71318Y650546D01*
X54652Y650546D01*
X47985Y647768D01*
X44652Y642213D01*
X44652Y614435D01*
X47985Y608879D01*
X54651Y606102D01*
X71318Y606102D01*
G54D19*
X66656Y606052D02*
X66656Y650496D01*
X49989Y650496D01*
X43322Y647718D01*
X39989Y642163D01*
X39989Y636607D01*
X43322Y631052D01*
X49989Y628274D01*
X66656Y628274D01*
G54D19*
X79643Y606102D02*
X79643Y650546D01*
X96310Y650546D01*
X102976Y647768D01*
X106310Y642213D01*
X106310Y636657D01*
X102977Y631101D01*
X96310Y628324D01*
X79643Y628324D01*
G54D19*
X75514Y610070D02*
X75514Y654514D01*
G54D19*
X62181Y654514D02*
X88848Y654514D01*
G54D10*
X259953Y567531D02*
X259953Y572865D01*
X261286Y572865D01*
X261820Y572531D01*
X262086Y571865D01*
X262086Y568531D01*
X261820Y567865D01*
X261286Y567531D01*
X259953Y567531D01*
G54D10*
X265873Y567531D02*
X265873Y572865D01*
X267206Y572865D01*
X267740Y572531D01*
X268006Y571865D01*
X268006Y571198D01*
X267740Y570531D01*
X267206Y570198D01*
X265873Y570198D01*
G54D10*
X272006Y571865D02*
X272006Y568531D01*
X271740Y567865D01*
X271206Y567531D01*
X270673Y567531D01*
X270140Y567865D01*
X269873Y568531D01*
X269873Y571865D01*
X270140Y572531D01*
X270673Y572865D01*
X271206Y572865D01*
X271740Y572531D01*
X272006Y571865D01*
G54D10*
X274940Y570198D02*
X275740Y569531D01*
X276006Y568865D01*
X276006Y567531D01*
G54D10*
X273873Y567531D02*
X273873Y572865D01*
X275206Y572865D01*
X275740Y572531D01*
X276006Y571865D01*
X276006Y571198D01*
X275740Y570531D01*
X275206Y570198D01*
X273873Y570198D01*
G54D10*
X278940Y567531D02*
X278940Y572865D01*
G54D10*
X277873Y572865D02*
X280006Y572865D01*
G54D10*
X135731Y793750D02*
X135731Y799083D01*
G54D10*
X139732Y794750D02*
X139465Y794083D01*
X138932Y793750D01*
X138398Y793750D01*
X137865Y794083D01*
X137598Y794750D01*
X137598Y798083D01*
X137865Y798750D01*
X138398Y799083D01*
X138932Y799083D01*
X139465Y798750D01*
X139732Y798083D01*
G54D10*
X155327Y794750D02*
X155060Y794083D01*
X154527Y793750D01*
X153994Y793750D01*
X153460Y794083D01*
X153194Y794750D01*
X153194Y798083D01*
X153460Y798750D01*
X153994Y799083D01*
X154527Y799083D01*
X155060Y798750D01*
X155327Y798083D01*
G54D10*
X157194Y794750D02*
X157460Y794083D01*
X157994Y793750D01*
X158527Y793750D01*
X159060Y794083D01*
X159327Y794750D01*
X159327Y795417D01*
X159060Y796083D01*
X158527Y796417D01*
X157994Y796417D01*
X157460Y796750D01*
X157194Y797417D01*
X157194Y798083D01*
X157460Y798750D01*
X157994Y799083D01*
X158527Y799083D01*
X159060Y798750D01*
X159327Y798083D01*
G54D10*
X170656Y799083D02*
X170656Y793750D01*
X171990Y797083D01*
X173323Y793750D01*
X173323Y799083D01*
G54D10*
X176257Y796417D02*
X177057Y795750D01*
X177324Y795083D01*
X177324Y793750D01*
G54D10*
X175190Y793750D02*
X175190Y799083D01*
X176524Y799083D01*
X177057Y798750D01*
X177324Y798083D01*
X177324Y797417D01*
X177057Y796750D01*
X176524Y796417D01*
X175190Y796417D01*
G54D10*
X190376Y796417D02*
X191176Y795750D01*
X191443Y795083D01*
X191443Y793750D01*
G54D10*
X189309Y793750D02*
X189309Y799083D01*
X190643Y799083D01*
X191176Y798750D01*
X191443Y798083D01*
X191443Y797417D01*
X191176Y796750D01*
X190643Y796417D01*
X189309Y796417D01*
G54D10*
X193309Y793750D02*
X193309Y799083D01*
X194643Y799083D01*
X195176Y798750D01*
X195443Y798083D01*
X195443Y794750D01*
X195176Y794083D01*
X194643Y793750D01*
X193309Y793750D01*
G54D10*
X206772Y793750D02*
X208105Y799083D01*
X209439Y793750D01*
G54D10*
X207305Y795750D02*
X208905Y795750D01*
G54D10*
X213439Y798083D02*
X213439Y794750D01*
X213173Y794083D01*
X212639Y793750D01*
X212106Y793750D01*
X211573Y794083D01*
X211306Y794750D01*
X211306Y798083D01*
X211573Y798750D01*
X212106Y799083D01*
X212639Y799083D01*
X213173Y798750D01*
X213439Y798083D01*
G54D10*
X225822Y793750D02*
X227155Y799083D01*
X228489Y793750D01*
G54D10*
X226355Y795750D02*
X227955Y795750D01*
G54D10*
X230356Y797083D02*
X231689Y799083D01*
X231689Y793750D01*
G54D11*
X576232Y805585D02*
X678232Y805585D01*
X678232Y858586D01*
X576232Y858585D01*
X576232Y805585D01*
G54D20*
G75*
G01X673338Y851251D02*
G03X673338Y851251I-1588J0D01*
G01*
G54D10*
X630982Y854251D02*
X630982Y853185D01*
X629315Y853184D01*
X628649Y853451D01*
X628315Y853985D01*
X628315Y854518D01*
X628649Y855051D01*
X629315Y855318D01*
X632649Y855318D01*
X633315Y855051D01*
X633649Y854518D01*
X633649Y853985D01*
X633315Y853451D01*
X632649Y853185D01*
G54D10*
X628315Y851318D02*
X633649Y851318D01*
X628315Y849185D01*
X633649Y849185D01*
G54D10*
X628315Y847318D02*
X633649Y847318D01*
X633649Y845985D01*
X633315Y845451D01*
X632649Y845185D01*
X629315Y845185D01*
X628649Y845451D01*
X628315Y845985D01*
X628315Y847318D01*
G54D10*
X605185Y818929D02*
X605185Y817863D01*
X603519Y817863D01*
X602852Y818129D01*
X602519Y818663D01*
X602518Y819196D01*
X602852Y819729D01*
X603519Y819996D01*
X606852Y819996D01*
X607519Y819729D01*
X607852Y819196D01*
X607852Y818663D01*
X607519Y818129D01*
X606852Y817863D01*
G54D10*
X602519Y815996D02*
X607852Y815996D01*
X602519Y813863D01*
X607852Y813863D01*
G54D10*
X602519Y811996D02*
X607852Y811996D01*
X607852Y810663D01*
X607519Y810129D01*
X606852Y809863D01*
X603519Y809863D01*
X602852Y810129D01*
X602519Y810663D01*
X602519Y811996D01*
G54D10*
X623838Y818929D02*
X623838Y817863D01*
X622172Y817863D01*
X621505Y818129D01*
X621172Y818663D01*
X621172Y819196D01*
X621505Y819729D01*
X622172Y819996D01*
X625505Y819996D01*
X626172Y819729D01*
X626505Y819196D01*
X626505Y818663D01*
X626172Y818129D01*
X625505Y817863D01*
G54D10*
X621172Y815996D02*
X626505Y815996D01*
X621172Y813863D01*
X626505Y813863D01*
G54D10*
X621172Y811996D02*
X626505Y811996D01*
X626505Y810663D01*
X626172Y810129D01*
X625505Y809863D01*
X622172Y809863D01*
X621505Y810129D01*
X621172Y810663D01*
X621172Y811996D01*
G54D10*
X599311Y831902D02*
X599978Y831636D01*
X600311Y831102D01*
X600311Y830569D01*
X599978Y830036D01*
X599311Y829769D01*
X598644Y829769D01*
X597978Y830036D01*
X597644Y830569D01*
X597311Y830036D01*
X596644Y829769D01*
X595978Y829769D01*
X595311Y830036D01*
X594978Y830569D01*
X594978Y831102D01*
X595311Y831636D01*
X595978Y831902D01*
G54D10*
X597978Y827902D02*
X594978Y826836D01*
X597978Y825769D01*
G54D10*
X599311Y823902D02*
X599978Y823636D01*
X600311Y823102D01*
X600311Y822569D01*
X599978Y822036D01*
X599311Y821769D01*
X598645Y821769D01*
X597978Y822036D01*
X597645Y822569D01*
X597311Y822036D01*
X596644Y821769D01*
X595978Y821769D01*
X595311Y822036D01*
X594978Y822569D01*
X594978Y823102D01*
X595311Y823636D01*
X595978Y823902D01*
G54D10*
X599311Y817769D02*
X595978Y817769D01*
X595311Y818036D01*
X594978Y818569D01*
X594978Y819102D01*
X595311Y819636D01*
X595978Y819902D01*
X599311Y819902D01*
X599978Y819636D01*
X600311Y819102D01*
X600311Y818569D01*
X599978Y818036D01*
X599311Y817769D01*
G54D10*
X600311Y815902D02*
X595978Y815902D01*
X595311Y815636D01*
X594978Y815102D01*
X594978Y814569D01*
X595311Y814036D01*
X595978Y813769D01*
X600311Y813769D01*
G54D10*
X594978Y810836D02*
X600311Y810836D01*
G54D10*
X600311Y811902D02*
X600311Y809769D01*
G54D10*
X592771Y828330D02*
X588437Y828330D01*
X587771Y828064D01*
X587437Y827530D01*
X587437Y826997D01*
X587771Y826464D01*
X588437Y826197D01*
X592771Y826197D01*
G54D10*
X588437Y824330D02*
X587771Y824064D01*
X587437Y823530D01*
X587437Y822997D01*
X587771Y822464D01*
X588437Y822197D01*
X589104Y822197D01*
X589771Y822464D01*
X590104Y822997D01*
X590104Y823530D01*
X590437Y824064D01*
X591104Y824330D01*
X591771Y824330D01*
X592437Y824064D01*
X592771Y823530D01*
X592771Y822997D01*
X592437Y822464D01*
X591771Y822197D01*
G54D10*
X587437Y820330D02*
X592771Y820330D01*
X592771Y818997D01*
X592437Y818464D01*
X591771Y818197D01*
X591104Y818197D01*
X590437Y818464D01*
X590104Y818997D01*
X589771Y818464D01*
X589104Y818197D01*
X588437Y818197D01*
X587771Y818464D01*
X587437Y818997D01*
X587437Y820330D01*
G54D10*
X590104Y820330D02*
X590104Y818997D01*
G54D10*
X587437Y816330D02*
X592771Y816330D01*
X592771Y814997D01*
X592437Y814464D01*
X591771Y814197D01*
X588437Y814197D01*
X587771Y814464D01*
X587437Y814997D01*
X587437Y816330D01*
G54D10*
X587437Y812330D02*
X592771Y812330D01*
X589437Y810997D01*
X592771Y809664D01*
X587437Y809664D01*
G54D10*
X586421Y827934D02*
X582087Y827934D01*
X581421Y827667D01*
X581087Y827134D01*
X581087Y826600D01*
X581421Y826067D01*
X582087Y825800D01*
X586421Y825800D01*
G54D10*
X582087Y823934D02*
X581421Y823667D01*
X581087Y823134D01*
X581087Y822600D01*
X581421Y822067D01*
X582087Y821800D01*
X582754Y821800D01*
X583421Y822067D01*
X583754Y822600D01*
X583754Y823134D01*
X584087Y823667D01*
X584754Y823933D01*
X585421Y823934D01*
X586087Y823667D01*
X586421Y823133D01*
X586421Y822600D01*
X586087Y822067D01*
X585421Y821800D01*
G54D10*
X581087Y819933D02*
X586421Y819934D01*
X586421Y818600D01*
X586087Y818067D01*
X585421Y817800D01*
X584754Y817800D01*
X584087Y818067D01*
X583754Y818600D01*
X583421Y818067D01*
X582754Y817800D01*
X582087Y817800D01*
X581421Y818067D01*
X581087Y818600D01*
X581087Y819933D01*
G54D10*
X583754Y819934D02*
X583754Y818600D01*
G54D10*
X581087Y815934D02*
X586421Y815934D01*
X586421Y814600D01*
X586087Y814067D01*
X585421Y813800D01*
X582087Y813800D01*
X581421Y814067D01*
X581087Y814600D01*
X581087Y815934D01*
G54D10*
X581087Y811934D02*
X586421Y811934D01*
X586421Y810600D01*
X586087Y810067D01*
X585421Y809800D01*
X584754Y809800D01*
X584087Y810067D01*
X583754Y810600D01*
X583754Y811933D01*
G54D10*
X667209Y846711D02*
X672543Y846710D01*
G54D10*
X672542Y847777D02*
X672543Y845644D01*
G54D10*
X672543Y843777D02*
X667209Y841111D01*
G54D10*
X667209Y843777D02*
X672542Y841111D01*
G54D10*
X643682Y854251D02*
X643015Y853451D01*
X642349Y853185D01*
X641015Y853184D01*
G54D10*
X641015Y855318D02*
X646349Y855318D01*
X646349Y853985D01*
X646015Y853451D01*
X645349Y853184D01*
X644682Y853185D01*
X644015Y853451D01*
X643682Y853985D01*
X643682Y855318D01*
G54D10*
X646349Y851318D02*
X641015Y848651D01*
G54D10*
X641015Y851318D02*
X646349Y848651D01*
G54D10*
X619361Y820393D02*
X614028Y819060D01*
X619361Y817726D01*
G54D10*
X615028Y813726D02*
X614361Y813992D01*
X614028Y814526D01*
X614028Y815059D01*
X614361Y815592D01*
X615028Y815859D01*
X618361Y815859D01*
X619028Y815592D01*
X619361Y815059D01*
X619361Y814526D01*
X619028Y813992D01*
X618361Y813726D01*
G54D10*
X615028Y809726D02*
X614361Y809992D01*
X614028Y810526D01*
X614028Y811059D01*
X614361Y811592D01*
X615028Y811859D01*
X618361Y811859D01*
X619028Y811592D01*
X619361Y811059D01*
X619361Y810526D01*
X619028Y809992D01*
X618361Y809726D01*
G54D10*
X652302Y855715D02*
X646969Y854381D01*
X652302Y853048D01*
G54D10*
X647969Y849047D02*
X647302Y849314D01*
X646968Y849847D01*
X646968Y850381D01*
X647302Y850914D01*
X647969Y851181D01*
X651302Y851181D01*
X651968Y850914D01*
X652302Y850381D01*
X652302Y849847D01*
X651968Y849314D01*
X651302Y849047D01*
G54D10*
X647969Y845047D02*
X647302Y845314D01*
X646968Y845847D01*
X646968Y846381D01*
X647302Y846914D01*
X647969Y847181D01*
X651302Y847181D01*
X651968Y846914D01*
X652302Y846381D01*
X652302Y845847D01*
X651968Y845314D01*
X651302Y845047D01*
G54D10*
X671146Y821435D02*
X667812Y821435D01*
X667146Y821701D01*
X666812Y822235D01*
X666812Y822768D01*
X667146Y823301D01*
X667812Y823568D01*
X671146Y823568D01*
X671812Y823301D01*
X672146Y822768D01*
X672146Y822235D01*
X671812Y821701D01*
X671146Y821435D01*
G54D10*
X667812Y819568D02*
X667146Y819301D01*
X666812Y818768D01*
X666812Y818235D01*
X667146Y817701D01*
X667812Y817435D01*
X668479Y817435D01*
X669146Y817701D01*
X669479Y818235D01*
X669479Y818768D01*
X669812Y819301D01*
X670479Y819568D01*
X671146Y819568D01*
X671812Y819301D01*
X672146Y818768D01*
X672146Y818235D01*
X671812Y817701D01*
X671146Y817435D01*
G54D10*
X667812Y813435D02*
X667146Y813701D01*
X666812Y814235D01*
X666812Y814768D01*
X667146Y815301D01*
X667812Y815568D01*
X671146Y815568D01*
X671812Y815301D01*
X672146Y814768D01*
X672146Y814234D01*
X671812Y813701D01*
X671146Y813434D01*
G54D10*
X671146Y809435D02*
X667812Y809435D01*
X667146Y809701D01*
X666812Y810235D01*
X666812Y810768D01*
X667146Y811301D01*
X667812Y811568D01*
X671146Y811568D01*
X671812Y811301D01*
X672146Y810768D01*
X672146Y810235D01*
X671812Y809701D01*
X671146Y809435D01*
G54D10*
X664399Y819450D02*
X661065Y819450D01*
X660399Y819717D01*
X660065Y820250D01*
X660065Y820784D01*
X660399Y821317D01*
X661065Y821584D01*
X664399Y821584D01*
X665065Y821317D01*
X665399Y820784D01*
X665399Y820250D01*
X665065Y819717D01*
X664399Y819450D01*
G54D10*
X661065Y817584D02*
X660399Y817317D01*
X660065Y816784D01*
X660065Y816250D01*
X660399Y815717D01*
X661065Y815450D01*
X661732Y815450D01*
X662399Y815717D01*
X662732Y816250D01*
X662732Y816783D01*
X663065Y817317D01*
X663732Y817584D01*
X664399Y817584D01*
X665065Y817317D01*
X665399Y816784D01*
X665399Y816250D01*
X665065Y815717D01*
X664399Y815450D01*
G54D10*
X661065Y811450D02*
X660399Y811717D01*
X660065Y812250D01*
X660065Y812784D01*
X660399Y813317D01*
X661065Y813583D01*
X664399Y813583D01*
X665065Y813317D01*
X665399Y812784D01*
X665399Y812250D01*
X665065Y811717D01*
X664399Y811450D01*
G54D10*
X660065Y809584D02*
X665399Y809584D01*
G54D10*
X636062Y825800D02*
X635396Y826067D01*
X635062Y826600D01*
X635062Y827134D01*
X635396Y827667D01*
X636062Y827934D01*
X639396Y827934D01*
X640062Y827667D01*
X640396Y827134D01*
X640396Y826600D01*
X640062Y826067D01*
X639396Y825800D01*
G54D10*
X635062Y823934D02*
X640396Y823934D01*
X640396Y822600D01*
X640062Y822067D01*
X639396Y821800D01*
X638729Y821800D01*
X638062Y822067D01*
X637729Y822600D01*
X637396Y822067D01*
X636729Y821800D01*
X636062Y821800D01*
X635396Y822067D01*
X635062Y822600D01*
X635062Y823934D01*
G54D10*
X637729Y823933D02*
X637729Y822600D01*
G54D10*
X640396Y819934D02*
X636062Y819933D01*
X635396Y819667D01*
X635062Y819134D01*
X635062Y818600D01*
X635396Y818067D01*
X636062Y817800D01*
X640396Y817800D01*
G54D10*
X636062Y815934D02*
X635396Y815667D01*
X635062Y815134D01*
X635062Y814600D01*
X635396Y814067D01*
X636062Y813800D01*
X636729Y813800D01*
X637396Y814067D01*
X637729Y814600D01*
X637729Y815134D01*
X638062Y815667D01*
X638729Y815934D01*
X639396Y815934D01*
X640062Y815667D01*
X640396Y815134D01*
X640396Y814600D01*
X640062Y814067D01*
X639396Y813800D01*
G54D10*
X639396Y809800D02*
X636062Y809800D01*
X635396Y810067D01*
X635062Y810600D01*
X635062Y811133D01*
X635396Y811667D01*
X636062Y811934D01*
X639396Y811934D01*
X640062Y811667D01*
X640396Y811133D01*
X640396Y810600D01*
X640062Y810067D01*
X639396Y809800D01*
G54D10*
X629315Y825006D02*
X628649Y825273D01*
X628315Y825806D01*
X628315Y826340D01*
X628649Y826873D01*
X629315Y827140D01*
X632649Y827140D01*
X633315Y826873D01*
X633649Y826340D01*
X633649Y825806D01*
X633315Y825273D01*
X632649Y825006D01*
G54D10*
X628315Y823140D02*
X633649Y823140D01*
X633649Y821806D01*
X633315Y821273D01*
X632649Y821006D01*
X631982Y821006D01*
X631315Y821273D01*
X630982Y821806D01*
X630649Y821273D01*
X629982Y821006D01*
X629315Y821006D01*
X628649Y821273D01*
X628315Y821806D01*
X628315Y823140D01*
G54D10*
X630982Y823140D02*
X630982Y821806D01*
G54D10*
X633649Y819140D02*
X629315Y819140D01*
X628649Y818873D01*
X628315Y818340D01*
X628315Y817806D01*
X628649Y817273D01*
X629315Y817006D01*
X633649Y817006D01*
G54D10*
X629315Y815140D02*
X628649Y814873D01*
X628315Y814340D01*
X628315Y813806D01*
X628649Y813273D01*
X629315Y813006D01*
X629982Y813006D01*
X630649Y813273D01*
X630982Y813806D01*
X630982Y814340D01*
X631315Y814873D01*
X631982Y815140D01*
X632649Y815140D01*
X633315Y814873D01*
X633649Y814340D01*
X633649Y813806D01*
X633315Y813273D01*
X632649Y813006D01*
G54D10*
X631649Y811140D02*
X633649Y809806D01*
X628315Y809806D01*
G54D10*
X680703Y856905D02*
X686036Y856905D01*
X686036Y855039D01*
G54D10*
X683370Y856905D02*
X683370Y855039D01*
G54D10*
X680703Y852105D02*
X686036Y852105D01*
G54D10*
X686036Y853171D02*
X686036Y851038D01*
G54D10*
X680703Y847038D02*
X680703Y849171D01*
X681036Y849171D01*
X681703Y848905D01*
X683703Y847305D01*
X684370Y847038D01*
X685036Y847038D01*
X685703Y847305D01*
X686036Y847838D01*
X686036Y848371D01*
X685703Y848905D01*
X685036Y849171D01*
G54D10*
X685036Y845171D02*
X685703Y844905D01*
X686036Y844371D01*
X686036Y843838D01*
X685703Y843305D01*
X685036Y843038D01*
X684370Y843038D01*
X683703Y843305D01*
X683370Y843838D01*
X683036Y843305D01*
X682370Y843038D01*
X681703Y843038D01*
X681036Y843305D01*
X680703Y843838D01*
X680703Y844371D01*
X681036Y844905D01*
X681703Y845171D01*
G54D10*
X680703Y839038D02*
X680703Y841171D01*
X681036Y841171D01*
X681703Y840905D01*
X683703Y839305D01*
X684370Y839038D01*
X685036Y839038D01*
X685703Y839305D01*
X686036Y839838D01*
X686036Y840371D01*
X685703Y840905D01*
X685036Y841171D01*
G54D10*
X683370Y836105D02*
X682703Y835305D01*
X682036Y835038D01*
X680703Y835038D01*
G54D10*
X680703Y837171D02*
X686036Y837171D01*
X686036Y835838D01*
X685703Y835305D01*
X685036Y835038D01*
X684370Y835038D01*
X683703Y835305D01*
X683370Y835838D01*
X683370Y837171D01*
G54D10*
X686036Y833171D02*
X680703Y833171D01*
X680703Y831305D01*
G54D21*
X588058Y999795D02*
X588058Y905338D01*
X665052Y905338D01*
X665052Y999795D01*
X588058Y999795D01*
G54D22*
X642541Y903188D02*
X641541Y904188D01*
X644208Y904188D01*
G54D22*
X636271Y905088D02*
X636271Y903488D01*
X636104Y903488D01*
X635771Y903688D01*
X634771Y904888D01*
X634437Y905088D01*
X634104Y905088D01*
X633771Y904888D01*
X633604Y904488D01*
X633604Y904088D01*
X633771Y903688D01*
X634104Y903488D01*
G54D22*
X626129Y903282D02*
X625796Y903482D01*
X625629Y903882D01*
X625629Y904282D01*
X625796Y904682D01*
X626129Y904882D01*
X626462Y904882D01*
X626796Y904682D01*
X626962Y904282D01*
X627129Y904682D01*
X627462Y904882D01*
X627796Y904882D01*
X628129Y904682D01*
X628296Y904282D01*
X628296Y903882D01*
X628129Y903482D01*
X627796Y903282D01*
G54D22*
X620358Y904482D02*
X617691Y904482D01*
X619358Y903282D01*
X619692Y903282D01*
X619692Y904882D01*
G54D22*
X609754Y904882D02*
X609754Y903282D01*
X610921Y903282D01*
X610921Y903482D01*
X610754Y903882D01*
X610754Y904282D01*
X610921Y904682D01*
X611254Y904882D01*
X611921Y904882D01*
X612254Y904682D01*
X612421Y904282D01*
X612421Y903882D01*
X612254Y903482D01*
X611921Y903282D01*
G54D22*
X668265Y908838D02*
X668598Y909038D01*
X668765Y909438D01*
X668765Y909838D01*
X668598Y910238D01*
X668265Y910438D01*
X667931Y910438D01*
X667598Y910238D01*
X667431Y909838D01*
X667431Y909438D01*
X667265Y909038D01*
X666931Y908838D01*
X666598Y908838D01*
X666265Y909038D01*
X666098Y909438D01*
X666098Y909838D01*
X666265Y910238D01*
X666598Y910438D01*
G54D22*
X668765Y911138D02*
X666098Y911138D01*
G54D22*
X668765Y912738D02*
X666098Y912738D01*
G54D22*
X667431Y911138D02*
X667431Y912738D01*
G54D22*
X666098Y913438D02*
X668765Y913438D01*
X668765Y914838D01*
G54D22*
X668765Y915538D02*
X666098Y915538D01*
X666098Y916538D01*
X666265Y916938D01*
X666598Y917138D01*
X668264Y917138D01*
X668598Y916938D01*
X668765Y916538D01*
X668765Y915538D01*
G54D22*
X586558Y908045D02*
X586892Y908245D01*
X587058Y908645D01*
X587058Y909045D01*
X586892Y909445D01*
X586558Y909645D01*
X586225Y909645D01*
X585892Y909445D01*
X585725Y909045D01*
X585725Y908645D01*
X585558Y908245D01*
X585225Y908045D01*
X584892Y908045D01*
X584558Y908245D01*
X584392Y908645D01*
X584392Y909045D01*
X584558Y909445D01*
X584892Y909645D01*
G54D22*
X587058Y910345D02*
X584392Y910345D01*
G54D22*
X587058Y911945D02*
X584392Y911945D01*
G54D22*
X585725Y910345D02*
X585725Y911945D01*
G54D22*
X584392Y912645D02*
X587058Y912645D01*
X587058Y914045D01*
G54D22*
X587058Y914745D02*
X584392Y914745D01*
X584392Y915745D01*
X584558Y916145D01*
X584892Y916345D01*
X586558Y916345D01*
X586892Y916145D01*
X587058Y915745D01*
X587058Y914745D01*
G54D22*
X611087Y907257D02*
X611087Y908057D01*
X611921Y908057D01*
X612254Y907857D01*
X612421Y907457D01*
X612421Y907057D01*
X612254Y906657D01*
X611921Y906457D01*
X610254Y906457D01*
X609921Y906657D01*
X609754Y907057D01*
X609754Y907457D01*
X609921Y907857D01*
X610254Y908057D01*
G54D22*
X612421Y908757D02*
X609754Y908757D01*
X612421Y910357D01*
X609754Y910357D01*
G54D22*
X612421Y911057D02*
X609754Y911057D01*
X609754Y912057D01*
X609921Y912457D01*
X610254Y912657D01*
X611921Y912657D01*
X612254Y912457D01*
X612421Y912057D01*
X612421Y911057D01*
G54D22*
X620358Y907251D02*
X617692Y907251D01*
G54D22*
X620358Y907951D02*
X617691Y907951D01*
X617692Y908951D01*
X617858Y909351D01*
X618192Y909551D01*
X619858Y909551D01*
X620191Y909351D01*
X620358Y908951D01*
X620358Y907951D01*
G54D22*
X628296Y906457D02*
X625629Y906457D01*
X625629Y907457D01*
X625796Y907857D01*
X626129Y908057D01*
X627796Y908057D01*
X628129Y907857D01*
X628296Y907457D01*
X628296Y906457D01*
G54D22*
X628296Y908757D02*
X625629Y908757D01*
X625629Y909757D01*
X625796Y910157D01*
X626129Y910357D01*
X626462Y910357D01*
X626796Y910157D01*
X626962Y909757D01*
X626962Y908757D01*
G54D22*
X625629Y911057D02*
X628296Y911057D01*
X628296Y912457D01*
G54D22*
X627796Y913157D02*
X628129Y913357D01*
X628296Y913757D01*
X628296Y914157D01*
X628129Y914557D01*
X627796Y914757D01*
X627462Y914757D01*
X627129Y914557D01*
X626962Y914157D01*
X626962Y913757D01*
X626796Y913357D01*
X626462Y913157D01*
X626129Y913157D01*
X625796Y913357D01*
X625629Y913757D01*
X625629Y914157D01*
X625796Y914557D01*
X626129Y914757D01*
G54D22*
X636233Y906457D02*
X633566Y906457D01*
X633566Y907457D01*
X633733Y907857D01*
X634066Y908057D01*
X635733Y908057D01*
X636066Y907857D01*
X636233Y907457D01*
X636233Y906457D01*
G54D22*
X636233Y908757D02*
X633566Y908757D01*
X635233Y909757D01*
X633566Y910757D01*
X636233Y910757D01*
G54D22*
X636233Y911457D02*
X633566Y911457D01*
G54D22*
X636233Y912157D02*
X633566Y912157D01*
X636233Y913757D01*
X633566Y913757D01*
G54D22*
X641504Y905663D02*
X644171Y906663D01*
X641504Y907663D01*
G54D22*
X644171Y908363D02*
X641504Y908363D01*
X641504Y909363D01*
X641671Y909763D01*
X642004Y909963D01*
X642337Y909963D01*
X642671Y909763D01*
X642837Y909363D01*
X643004Y909763D01*
X643337Y909963D01*
X643671Y909963D01*
X644004Y909763D01*
X644171Y909363D01*
X644171Y908363D01*
G54D22*
X642837Y908363D02*
X642837Y909363D01*
G54D22*
X641504Y910663D02*
X643671Y910663D01*
X644004Y910863D01*
X644171Y911264D01*
X644171Y911663D01*
X644004Y912063D01*
X643671Y912263D01*
X641504Y912263D01*
G54D22*
X643671Y912963D02*
X644004Y913163D01*
X644171Y913563D01*
X644171Y913964D01*
X644004Y914363D01*
X643671Y914563D01*
X643337Y914563D01*
X643004Y914363D01*
X642837Y913963D01*
X642837Y913564D01*
X642671Y913163D01*
X642337Y912963D01*
X642004Y912963D01*
X641671Y913163D01*
X641504Y913563D01*
X641504Y913963D01*
X641671Y914363D01*
X642004Y914563D01*
G54D22*
X661223Y906101D02*
X663389Y906101D01*
X663723Y906301D01*
X663889Y906701D01*
X663889Y907101D01*
X663723Y907501D01*
X663389Y907701D01*
X661223Y907701D01*
G54D22*
X663389Y908401D02*
X663723Y908601D01*
X663889Y909001D01*
X663889Y909401D01*
X663723Y909801D01*
X663389Y910001D01*
X663056Y910001D01*
X662723Y909801D01*
X662556Y909401D01*
X662556Y909001D01*
X662389Y908601D01*
X662056Y908401D01*
X661723Y908401D01*
X661389Y908601D01*
X661223Y909001D01*
X661223Y909401D01*
X661389Y909801D01*
X661723Y910001D01*
G54D22*
X663889Y910701D02*
X661223Y910701D01*
X661223Y911701D01*
X661389Y912101D01*
X661723Y912301D01*
X662056Y912301D01*
X662389Y912101D01*
X662556Y911701D01*
X662723Y912101D01*
X663056Y912301D01*
X663389Y912301D01*
X663723Y912101D01*
X663889Y911701D01*
X663889Y910701D01*
G54D22*
X662556Y910701D02*
X662556Y911701D01*
G54D22*
X663889Y913701D02*
X662389Y913701D01*
G54D22*
X662656Y913701D02*
X662389Y914101D01*
X662489Y914501D01*
X662723Y914701D01*
X663889Y914701D01*
G54D22*
X662656Y914701D02*
X662389Y915101D01*
X662489Y915501D01*
X662723Y915701D01*
X663889Y915701D01*
G54D22*
X663889Y916401D02*
X662389Y916401D01*
G54D22*
X661889Y916401D02*
X661889Y916401D01*
G54D22*
X663889Y917101D02*
X662389Y917101D01*
G54D22*
X662723Y917101D02*
X662489Y917301D01*
X662389Y917701D01*
X662489Y918101D01*
X662723Y918301D01*
X663889Y918301D01*
G54D22*
X663889Y919001D02*
X662389Y919001D01*
G54D22*
X661889Y919001D02*
X661889Y919001D01*
G54D22*
X663889Y920401D02*
X661223Y920401D01*
X661223Y921401D01*
X661389Y921801D01*
X661723Y922001D01*
X662056Y922001D01*
X662389Y921801D01*
X662556Y921401D01*
X662723Y921801D01*
X663056Y922001D01*
X663389Y922001D01*
X663723Y921801D01*
X663889Y921401D01*
X663889Y920401D01*
G54D22*
X662556Y920401D02*
X662556Y921401D01*
G54D22*
X661223Y924301D02*
X661223Y922701D01*
X662389Y922701D01*
X662389Y922901D01*
X662223Y923301D01*
X662223Y923701D01*
X662389Y924101D01*
X662723Y924301D01*
X663389Y924301D01*
X663723Y924101D01*
X663889Y923701D01*
X663889Y923301D01*
X663723Y922901D01*
X663389Y922701D01*
G54D21*
G75*
G01X675794Y917937D02*
G03X675794Y908664I-1242J-4636D01*
G01*
G54D21*
X665027Y905363D02*
X676140Y905363D01*
X676140Y908538D01*
G54D21*
X676140Y918064D02*
X676139Y920445D01*
X665027Y920445D01*
G54D21*
G75*
G01X675794Y972706D02*
G03X675794Y963433I-1242J-4636D01*
G01*
G54D21*
X665027Y960132D02*
X676140Y960132D01*
X676140Y963307D01*
G54D21*
X676140Y972832D02*
X676140Y975213D01*
X665027Y975213D01*
G54D21*
G75*
G01X577204Y962571D02*
G03X577204Y971844I1242J4636D01*
G01*
G54D21*
X587971Y975145D02*
X576858Y975145D01*
X576858Y971970D01*
G54D21*
X576858Y962445D02*
X576858Y960064D01*
X587971Y960063D01*
G54D21*
G75*
G01X577278Y907815D02*
G03X577278Y917087I1243J4636D01*
G01*
G54D21*
X588046Y920388D02*
X576933Y920388D01*
X576933Y917213D01*
G54D21*
X576933Y907688D02*
X576933Y905307D01*
X588046Y905307D01*
G54D21*
X608696Y901370D02*
X608696Y915657D01*
X613458Y915657D01*
X613458Y901370D01*
X608696Y901370D01*
G54D21*
X616633Y901370D02*
X616633Y915657D01*
X621396Y915657D01*
X621396Y901370D01*
X616633Y901370D01*
G54D21*
X624571Y901370D02*
X624571Y915657D01*
X629333Y915657D01*
X629333Y901370D01*
X624571Y901370D01*
G54D21*
X632508Y901370D02*
X632508Y915657D01*
X637271Y915657D01*
X637271Y901370D01*
X632508Y901370D01*
G54D21*
X640446Y901370D02*
X640446Y915657D01*
X645208Y915657D01*
X645208Y901370D01*
X640446Y901370D01*
G54D23*
X366902Y819595D02*
X366902Y832928D01*
X370236Y832928D01*
X371569Y832095D01*
X372236Y830428D01*
X372236Y822095D01*
X371569Y820428D01*
X370236Y819595D01*
X366902Y819595D01*
G54D23*
X376902Y819595D02*
X376902Y832928D01*
X380236Y832928D01*
X381569Y832095D01*
X382236Y830428D01*
X382236Y828762D01*
X381569Y827095D01*
X380236Y826262D01*
X376902Y826262D01*
G54D23*
X389569Y819595D02*
X389569Y832928D01*
G54D23*
X386902Y832928D02*
X392236Y832928D01*
G54D23*
X396902Y819595D02*
X396902Y832928D01*
X400236Y832928D01*
X401569Y832095D01*
X402236Y830428D01*
X402236Y828762D01*
X401569Y827095D01*
X400236Y826262D01*
X396902Y826262D01*
G54D23*
X411702Y822095D02*
X412369Y820428D01*
X413702Y819595D01*
X415036Y819595D01*
X416369Y820428D01*
X417036Y822095D01*
X417036Y823762D01*
X416369Y825428D01*
X415036Y826262D01*
X413702Y826262D01*
X412369Y827095D01*
X411702Y828762D01*
X411702Y830428D01*
X412369Y832095D01*
X413702Y832928D01*
X415036Y832928D01*
X416369Y832095D01*
X417036Y830428D01*
G54D23*
X421702Y827095D02*
X424369Y819595D01*
X427036Y827095D01*
G54D23*
X424369Y819595D02*
X423702Y817095D01*
X423036Y816262D01*
X422369Y816262D01*
G54D23*
X431702Y820428D02*
X433036Y819595D01*
X434369Y819595D01*
X435702Y820428D01*
X435702Y822095D01*
X435036Y822928D01*
X432369Y823762D01*
X431702Y824595D01*
X431702Y826262D01*
X433036Y827095D01*
X434369Y827095D01*
X435702Y826262D01*
G54D23*
X441703Y832928D02*
X441703Y820428D01*
X442369Y819595D01*
X443036Y819928D01*
G54D23*
X440369Y827095D02*
X443036Y827095D01*
G54D23*
X451703Y820428D02*
X450637Y819595D01*
X449303Y819595D01*
X447970Y820428D01*
X447703Y822095D01*
X447703Y824928D01*
X448370Y826595D01*
X449703Y827095D01*
X451037Y826595D01*
X451703Y825428D01*
X451703Y823762D01*
X447703Y823762D01*
G54D23*
X456370Y819595D02*
X456370Y827095D01*
G54D23*
X456370Y825762D02*
X457704Y827095D01*
X459037Y826595D01*
X459704Y825428D01*
X459704Y819595D01*
G54D23*
X459704Y825762D02*
X461037Y827095D01*
X462370Y826595D01*
X463037Y825428D01*
X463037Y819595D01*
G54D23*
X365736Y813878D02*
X369069Y800545D01*
X372402Y813878D01*
G54D23*
X379736Y807212D02*
X382403Y807212D01*
X382403Y803045D01*
X381736Y801378D01*
X380403Y800545D01*
X379070Y800545D01*
X377736Y801378D01*
X377070Y803045D01*
X377070Y811378D01*
X377736Y813045D01*
X379070Y813878D01*
X380403Y813878D01*
X381736Y813045D01*
X382403Y811378D01*
G54D23*
X387070Y800545D02*
X387070Y813878D01*
X390403Y805545D01*
X393736Y813878D01*
X393736Y800545D01*
G54D23*
X403204Y800545D02*
X403204Y813878D01*
X406537Y813878D01*
X407870Y813045D01*
X408537Y811378D01*
X408537Y809712D01*
X407870Y808045D01*
X406537Y807212D01*
X403204Y807212D01*
G54D23*
X413204Y800545D02*
X413204Y813878D01*
G54D23*
X417871Y807212D02*
X419204Y808045D01*
X420804Y808045D01*
X421871Y806378D01*
X421871Y800545D01*
G54D23*
X421871Y803045D02*
X421204Y804712D01*
X419871Y805045D01*
X418537Y804712D01*
X417871Y803045D01*
X418137Y801378D01*
X419204Y800545D01*
X419871Y800545D01*
X420137Y800545D01*
X421204Y801378D01*
X421871Y803045D01*
G54D23*
X426538Y808045D02*
X429204Y800545D01*
X431871Y808045D01*
G54D23*
X429204Y800545D02*
X428538Y798045D01*
X427871Y797212D01*
X427204Y797212D01*
G54D23*
X440538Y801378D02*
X439471Y800545D01*
X438138Y800545D01*
X436804Y801378D01*
X436538Y803045D01*
X436538Y805878D01*
X437204Y807545D01*
X438538Y808045D01*
X439871Y807545D01*
X440538Y806378D01*
X440538Y804712D01*
X436538Y804712D01*
G54D23*
X445205Y800545D02*
X445205Y808045D01*
G54D23*
X445205Y806378D02*
X446538Y808045D01*
X447871Y808045D01*
G54D23*
X457339Y808045D02*
X460005Y800545D01*
X462672Y808045D01*
G54D23*
X472672Y800545D02*
X467339Y800545D01*
X467339Y801378D01*
X468005Y803045D01*
X472005Y808045D01*
X472672Y809712D01*
X472672Y811378D01*
X472005Y813045D01*
X470672Y813878D01*
X469339Y813878D01*
X468005Y813045D01*
X467339Y811378D01*
G54D23*
X477339Y800545D02*
X477339Y800545D01*
G54D23*
X487339Y800545D02*
X482006Y800545D01*
X482006Y801378D01*
X482672Y803045D01*
X486672Y808045D01*
X487339Y809712D01*
X487339Y811378D01*
X486672Y813045D01*
X485339Y813878D01*
X484006Y813878D01*
X482672Y813045D01*
X482006Y811378D01*
M02*
